IBM Plex Serif-Bold Italic.ufo
<glyph name="exclam" format="1">
  <advance width="287"/>
  <unicode hex="0021"/>
  <outline>
    <contour>
      <point x="89" y="-12" type="curve" smooth="yes" name="hr00"/>
      <point x="140" y="-12"/>
      <point x="176" y="18"/>
      <point x="187" y="63" type="curve" smooth="yes"/>
      <point x="189" y="71"/>
      <point x="190" y="81"/>
      <point x="190" y="89" type="curve" smooth="yes"/>
      <point x="190" y="128"/>
      <point x="159" y="161"/>
      <point x="109" y="161" type="curve" smooth="yes"/>
      <point x="58" y="161"/>
      <point x="22" y="131"/>
      <point x="11" y="86" type="curve" smooth="yes"/>
      <point x="9" y="78"/>
      <point x="8" y="68"/>
      <point x="8" y="60" type="curve" smooth="yes"/>
      <point x="8" y="21"/>
      <point x="39" y="-12"/>
    </contour>
    <contour>
      <point x="102" y="217" type="line"/>
      <point x="167" y="217" type="line"/>
      <point x="294" y="544" type="line"/>
      <point x="333" y="698" type="line"/>
      <point x="174" y="698" type="line"/>
      <point x="135" y="544" type="line"/>
    </contour>
  </outline>
</glyph>
<glyph name="numbersign" format="1">
  <advance width="563"/>
  <unicode hex="0023"/>
  <outline>
    <contour>
      <point x="9" y="0" type="line" name="hr00"/>
      <point x="94" y="0" type="line"/>
      <point x="169" y="190" type="line"/>
      <point x="312" y="190" type="line"/>
      <point x="237" y="0" type="line"/>
      <point x="322" y="0" type="line"/>
      <point x="397" y="190" type="line"/>
      <point x="498" y="190" type="line"/>
      <point x="516" y="262" type="line"/>
      <point x="425" y="262" type="line"/>
      <point x="495" y="436" type="line"/>
      <point x="596" y="436" type="line"/>
      <point x="615" y="508" type="line"/>
      <point x="524" y="508" type="line"/>
      <point x="600" y="698" type="line"/>
      <point x="515" y="698" type="line"/>
      <point x="440" y="508" type="line"/>
      <point x="297" y="508" type="line"/>
      <point x="372" y="698" type="line"/>
      <point x="287" y="698" type="line"/>
      <point x="212" y="508" type="line"/>
      <point x="111" y="508" type="line"/>
      <point x="93" y="436" type="line"/>
      <point x="183" y="436" type="line"/>
      <point x="113" y="262" type="line"/>
      <point x="13" y="262" type="line"/>
      <point x="-6" y="190" type="line"/>
      <point x="85" y="190" type="line"/>
    </contour>
    <contour>
      <point x="268" y="436" type="line"/>
      <point x="410" y="436" type="line"/>
      <point x="341" y="262" type="line"/>
      <point x="198" y="262" type="line"/>
    </contour>
  </outline>
</glyph>
<glyph name="dollar" format="1">
  <advance width="560"/>
  <unicode hex="0024"/>
  <outline>
    <contour>
      <point x="166" y="-82" type="line" name="hr00"/>
      <point x="223" y="-82" type="line"/>
      <point x="243" y="-2" type="line"/>
      <point x="408" y="6"/>
      <point x="505" y="116"/>
      <point x="505" y="246" type="curve" smooth="yes"/>
      <point x="505" y="330"/>
      <point x="462" y="382"/>
      <point x="357" y="412" type="curve" smooth="yes"/>
      <point x="346" y="415" type="line"/>
      <point x="404" y="646" type="line"/>
      <point x="440" y="645"/>
      <point x="465" y="640"/>
      <point x="492" y="632" type="curve"/>
      <point x="492" y="623" type="line"/>
      <point x="446" y="616"/>
      <point x="424" y="582"/>
      <point x="424" y="547" type="curve" smooth="yes"/>
      <point x="424" y="516"/>
      <point x="445" y="487"/>
      <point x="484" y="487" type="curve" smooth="yes"/>
      <point x="535" y="487"/>
      <point x="566" y="534"/>
      <point x="566" y="581" type="curve" smooth="yes"/>
      <point x="566" y="659"/>
      <point x="491" y="692"/>
      <point x="419" y="700" type="curve"/>
      <point x="439" y="780" type="line"/>
      <point x="382" y="780" type="line"/>
      <point x="362" y="701" type="line"/>
      <point x="200" y="694"/>
      <point x="112" y="588"/>
      <point x="112" y="469" type="curve" smooth="yes"/>
      <point x="112" y="377"/>
      <point x="154" y="323"/>
      <point x="250" y="294" type="curve" smooth="yes"/>
      <point x="260" y="291" type="line"/>
      <point x="201" y="53" type="line"/>
      <point x="157" y="53"/>
      <point x="125" y="58"/>
      <point x="98" y="67" type="curve"/>
      <point x="98" y="76" type="line"/>
      <point x="145" y="83"/>
      <point x="166" y="117"/>
      <point x="166" y="152" type="curve" smooth="yes"/>
      <point x="166" y="183"/>
      <point x="146" y="212"/>
      <point x="106" y="212" type="curve" smooth="yes"/>
      <point x="56" y="212"/>
      <point x="23" y="165"/>
      <point x="23" y="118" type="curve" smooth="yes"/>
      <point x="23" y="37"/>
      <point x="106" y="4"/>
      <point x="186" y="-1" type="curve"/>
    </contour>
    <contour>
      <point x="311" y="276" type="line"/>
      <point x="360" y="258"/>
      <point x="385" y="233"/>
      <point x="385" y="197" type="curve" smooth="yes"/>
      <point x="385" y="134"/>
      <point x="333" y="74"/>
      <point x="257" y="57" type="curve"/>
    </contour>
    <contour>
      <point x="295" y="430" type="line"/>
      <point x="241" y="452"/>
      <point x="226" y="482"/>
      <point x="226" y="519" type="curve" smooth="yes"/>
      <point x="226" y="573"/>
      <point x="266" y="629"/>
      <point x="348" y="642" type="curve"/>
    </contour>
  </outline>
</glyph>
<glyph name="percent" format="1">
  <advance width="860"/>
  <unicode hex="0025"/>
  <outline>
    <contour>
      <point x="243" y="366" type="curve" smooth="yes" name="hr00"/>
      <point x="223" y="366"/>
      <point x="206" y="377"/>
      <point x="206" y="410" type="curve" smooth="yes"/>
      <point x="206" y="429"/>
      <point x="213" y="456"/>
      <point x="242" y="572" type="curve" smooth="yes"/>
      <point x="256" y="629"/>
      <point x="280" y="658"/>
      <point x="312" y="658" type="curve" smooth="yes"/>
      <point x="332" y="658"/>
      <point x="349" y="647"/>
      <point x="349" y="614" type="curve" smooth="yes"/>
      <point x="349" y="595"/>
      <point x="342" y="568"/>
      <point x="313" y="452" type="curve" smooth="yes"/>
      <point x="299" y="395"/>
      <point x="275" y="366"/>
    </contour>
    <contour>
      <point x="592" y="40" type="curve" smooth="yes"/>
      <point x="572" y="40"/>
      <point x="555" y="51"/>
      <point x="555" y="84" type="curve" smooth="yes"/>
      <point x="555" y="103"/>
      <point x="562" y="130"/>
      <point x="591" y="246" type="curve" smooth="yes"/>
      <point x="605" y="303"/>
      <point x="629" y="332"/>
      <point x="661" y="332" type="curve" smooth="yes"/>
      <point x="681" y="332"/>
      <point x="698" y="321"/>
      <point x="698" y="288" type="curve" smooth="yes"/>
      <point x="698" y="269"/>
      <point x="691" y="242"/>
      <point x="662" y="126" type="curve" smooth="yes"/>
      <point x="648" y="69"/>
      <point x="624" y="40"/>
    </contour>
    <contour>
      <point x="234" y="314" type="curve" smooth="yes"/>
      <point x="407" y="314"/>
      <point x="454" y="497"/>
      <point x="454" y="583" type="curve" smooth="yes"/>
      <point x="454" y="673"/>
      <point x="398" y="710"/>
      <point x="321" y="710" type="curve" smooth="yes"/>
      <point x="148" y="710"/>
      <point x="101" y="527"/>
      <point x="101" y="441" type="curve" smooth="yes"/>
      <point x="101" y="351"/>
      <point x="157" y="314"/>
    </contour>
    <contour>
      <point x="583" y="-12" type="curve" smooth="yes"/>
      <point x="756" y="-12"/>
      <point x="803" y="171"/>
      <point x="803" y="257" type="curve" smooth="yes"/>
      <point x="803" y="347"/>
      <point x="747" y="384"/>
      <point x="670" y="384" type="curve" smooth="yes"/>
      <point x="497" y="384"/>
      <point x="450" y="201"/>
      <point x="450" y="115" type="curve" smooth="yes"/>
      <point x="450" y="25"/>
      <point x="506" y="-12"/>
    </contour>
    <contour>
      <point x="105" y="0" type="line"/>
      <point x="184" y="0" type="line"/>
      <point x="799" y="698" type="line"/>
      <point x="719" y="698" type="line"/>
    </contour>
  </outline>
</glyph>
<glyph name="ampersand" format="1">
  <advance width="691"/>
  <unicode hex="0026"/>
  <outline>
    <contour>
      <point x="209" y="-12" type="curve" smooth="yes" name="hr00"/>
      <point x="286" y="-12"/>
      <point x="348" y="8"/>
      <point x="405" y="42" type="curve"/>
      <point x="425" y="13"/>
      <point x="454" y="0"/>
      <point x="496" y="0" type="curve" smooth="yes"/>
      <point x="608" y="0" type="line"/>
      <point x="623" y="60" type="line"/>
      <point x="575" y="60"/>
      <point x="542" y="71"/>
      <point x="526" y="101" type="curve" smooth="yes"/>
      <point x="508" y="135" type="line"/>
      <point x="554" y="189"/>
      <point x="595" y="255"/>
      <point x="619" y="329" type="curve"/>
      <point x="677" y="329" type="line"/>
      <point x="692" y="389" type="line"/>
      <point x="502" y="389" type="line"/>
      <point x="487" y="329" type="line"/>
      <point x="545" y="329" type="line"/>
      <point x="529" y="281"/>
      <point x="502" y="236"/>
      <point x="474" y="200" type="curve"/>
      <point x="372" y="394" type="line"/>
      <point x="466" y="432"/>
      <point x="591" y="488"/>
      <point x="591" y="595" type="curve" smooth="yes"/>
      <point x="591" y="662"/>
      <point x="545" y="710"/>
      <point x="420" y="710" type="curve" smooth="yes"/>
      <point x="299" y="710"/>
      <point x="179" y="643"/>
      <point x="179" y="516" type="curve" smooth="yes"/>
      <point x="179" y="469"/>
      <point x="196" y="442"/>
      <point x="218" y="396" type="curve" smooth="yes"/>
      <point x="224" y="384" type="line"/>
      <point x="100" y="331"/>
      <point x="-5" y="270"/>
      <point x="-5" y="146" type="curve" smooth="yes"/>
      <point x="-5" y="32"/>
      <point x="87" y="-12"/>
    </contour>
    <contour>
      <point x="348" y="440" type="curve"/>
      <point x="330" y="475"/>
      <point x="322" y="499"/>
      <point x="322" y="532" type="curve" smooth="yes"/>
      <point x="322" y="548"/>
      <point x="325" y="562"/>
      <point x="329" y="578" type="curve" smooth="yes"/>
      <point x="341" y="624"/>
      <point x="372" y="648"/>
      <point x="410" y="648" type="curve" smooth="yes"/>
      <point x="440" y="648"/>
      <point x="459" y="632"/>
      <point x="459" y="600" type="curve" smooth="yes"/>
      <point x="459" y="592"/>
      <point x="454" y="563"/>
      <point x="452" y="554" type="curve" smooth="yes"/>
      <point x="440" y="507"/>
      <point x="401" y="470"/>
    </contour>
    <contour>
      <point x="258" y="58" type="curve" smooth="yes"/>
      <point x="198" y="58"/>
      <point x="156" y="87"/>
      <point x="156" y="145" type="curve" smooth="yes"/>
      <point x="156" y="164"/>
      <point x="163" y="191"/>
      <point x="169" y="213" type="curve" smooth="yes"/>
      <point x="179" y="251"/>
      <point x="206" y="297"/>
      <point x="251" y="333" type="curve"/>
      <point x="374" y="97" type="line"/>
      <point x="337" y="73"/>
      <point x="298" y="58"/>
    </contour>
  </outline>
</glyph>
<glyph name="quotesingle" format="1">
  <advance width="231"/>
  <unicode hex="0027"/>
  <outline>
    <contour>
      <point x="137" y="428" type="line" name="hr00"/>
      <point x="178" y="428" type="line"/>
      <point x="266" y="633" type="line"/>
      <point x="295" y="748" type="line"/>
      <point x="181" y="748" type="line"/>
      <point x="152" y="633" type="line"/>
    </contour>
  </outline>
</glyph>
<glyph name="parenleft" format="1">
  <advance width="325"/>
  <unicode hex="0028"/>
  <outline>
    <contour>
      <point x="187" y="-156" type="curve" name="hr00"/>
      <point x="233" y="-112" type="line"/>
      <point x="177" y="-53"/>
      <point x="163" y="38"/>
      <point x="163" y="106" type="curve" smooth="yes"/>
      <point x="163" y="163"/>
      <point x="172" y="214"/>
      <point x="184" y="264" type="curve" smooth="yes"/>
      <point x="202" y="338" type="line" smooth="yes"/>
      <point x="243" y="501"/>
      <point x="328" y="648"/>
      <point x="444" y="729" type="curve"/>
      <point x="416" y="780" type="line"/>
      <point x="253" y="699"/>
      <point x="121" y="548"/>
      <point x="62" y="379" type="curve" smooth="yes"/>
      <point x="40" y="314"/>
      <point x="28" y="247"/>
      <point x="28" y="182" type="curve" smooth="yes"/>
      <point x="28" y="13"/>
      <point x="96" y="-98"/>
    </contour>
  </outline>
</glyph>
<glyph name="parenright" format="1">
  <advance width="325"/>
  <unicode hex="0029"/>
  <outline>
    <contour>
      <point x="-66" y="-156" type="line" name="hr00"/>
      <point x="97" y="-75"/>
      <point x="229" y="76"/>
      <point x="288" y="245" type="curve" smooth="yes"/>
      <point x="310" y="310"/>
      <point x="322" y="377"/>
      <point x="322" y="442" type="curve" smooth="yes"/>
      <point x="322" y="611"/>
      <point x="254" y="722"/>
      <point x="163" y="780" type="curve"/>
      <point x="117" y="736" type="line"/>
      <point x="173" y="677"/>
      <point x="187" y="586"/>
      <point x="187" y="518" type="curve" smooth="yes"/>
      <point x="187" y="461"/>
      <point x="178" y="410"/>
      <point x="166" y="360" type="curve" smooth="yes"/>
      <point x="148" y="286" type="line" smooth="yes"/>
      <point x="107" y="123"/>
      <point x="22" y="-24"/>
      <point x="-94" y="-105" type="curve"/>
    </contour>
  </outline>
</glyph>
<glyph name="asterisk" format="1">
  <advance width="546"/>
  <unicode hex="002A"/>
  <outline>
    <contour>
      <point x="198" y="299" type="line" name="hr00"/>
      <point x="246" y="349" type="line"/>
      <point x="317" y="467" type="line"/>
      <point x="286" y="493" type="line"/>
      <point x="164" y="416" type="line"/>
      <point x="116" y="367" type="line"/>
    </contour>
    <contour>
      <point x="284" y="515" type="line"/>
      <point x="304" y="549" type="line"/>
      <point x="212" y="621" type="line"/>
      <point x="159" y="640" type="line"/>
      <point x="100" y="540" type="line"/>
      <point x="154" y="522" type="line"/>
    </contour>
    <contour>
      <point x="383" y="298" type="line"/>
      <point x="490" y="358" type="line"/>
      <point x="467" y="408" type="line"/>
      <point x="380" y="489" type="line"/>
      <point x="343" y="468" type="line"/>
      <point x="360" y="348" type="line"/>
    </contour>
    <contour>
      <point x="328" y="564" type="line"/>
      <point x="373" y="564" type="line"/>
      <point x="440" y="686" type="line"/>
      <point x="454" y="747" type="line"/>
      <point x="337" y="747" type="line"/>
      <point x="323" y="686" type="line"/>
    </contour>
    <contour>
      <point x="393" y="511" type="line"/>
      <point x="523" y="514" type="line"/>
      <point x="585" y="533" type="line"/>
      <point x="574" y="640" type="line"/>
      <point x="511" y="622" type="line"/>
      <point x="390" y="549" type="line"/>
    </contour>
  </outline>
</glyph>
<glyph name="plus" format="1">
  <advance width="550"/>
  <unicode hex="002B"/>
  <outline>
    <contour>
      <point x="185" y="76" type="line" name="hr00"/>
      <point x="272" y="76" type="line"/>
      <point x="320" y="267" type="line"/>
      <point x="490" y="267" type="line"/>
      <point x="509" y="344" type="line"/>
      <point x="339" y="344" type="line"/>
      <point x="387" y="534" type="line"/>
      <point x="299" y="534" type="line"/>
      <point x="252" y="344" type="line"/>
      <point x="81" y="344" type="line"/>
      <point x="62" y="267" type="line"/>
      <point x="233" y="267" type="line"/>
    </contour>
  </outline>
</glyph>
<glyph name="comma" format="1">
  <advance width="276"/>
  <unicode hex="002C"/>
  <outline>
    <contour>
      <point x="-72" y="-145" type="curve" name="hr00"/>
      <point x="12" y="-145" type="line"/>
      <point x="80" y="-99"/>
      <point x="160" y="-26"/>
      <point x="179" y="57" type="curve" smooth="yes"/>
      <point x="181" y="66"/>
      <point x="182" y="76"/>
      <point x="182" y="85" type="curve" smooth="yes"/>
      <point x="182" y="126"/>
      <point x="151" y="161"/>
      <point x="102" y="161" type="curve" smooth="yes"/>
      <point x="51" y="161"/>
      <point x="17" y="133"/>
      <point x="4" y="90" type="curve" smooth="yes"/>
      <point x="1" y="80"/>
      <point x="0" y="69"/>
      <point x="0" y="60" type="curve" smooth="yes"/>
      <point x="0" y="27"/>
      <point x="23" y="0"/>
      <point x="60" y="-9" type="curve"/>
      <point x="31" y="-57"/>
      <point x="-13" y="-102"/>
    </contour>
  </outline>
</glyph>
<glyph name="hyphen" format="1">
  <advance width="367"/>
  <unicode hex="002D"/>
  <outline>
    <contour>
      <point x="45" y="257" type="line" name="hr00"/>
      <point x="319" y="257" type="line"/>
      <point x="343" y="353" type="line"/>
      <point x="69" y="353" type="line"/>
    </contour>
  </outline>
</glyph>
<glyph name="period" format="1">
  <advance width="276"/>
  <unicode hex="002E"/>
  <outline>
    <contour>
      <point x="82" y="-12" type="curve" smooth="yes" name="hr00"/>
      <point x="133" y="-12"/>
      <point x="169" y="18"/>
      <point x="180" y="63" type="curve" smooth="yes"/>
      <point x="182" y="71"/>
      <point x="183" y="81"/>
      <point x="183" y="89" type="curve" smooth="yes"/>
      <point x="183" y="128"/>
      <point x="152" y="161"/>
      <point x="102" y="161" type="curve" smooth="yes"/>
      <point x="51" y="161"/>
      <point x="15" y="131"/>
      <point x="4" y="86" type="curve" smooth="yes"/>
      <point x="2" y="78"/>
      <point x="1" y="68"/>
      <point x="1" y="60" type="curve" smooth="yes"/>
      <point x="1" y="21"/>
      <point x="32" y="-12"/>
    </contour>
  </outline>
</glyph>
<glyph name="slash" format="1">
  <advance width="409"/>
  <unicode hex="002F"/>
  <outline>
    <contour>
      <point x="-96" y="-143" type="line" name="hr00"/>
      <point x="8" y="-143" type="line"/>
      <point x="502" y="748" type="line"/>
      <point x="398" y="748" type="line"/>
    </contour>
  </outline>
</glyph>
<glyph name="zero" format="1">
  <advance width="550"/>
  <unicode hex="0030"/>
  <outline>
    <contour>
      <point x="221" y="53" type="curve" smooth="yes" name="hr00"/>
      <point x="184" y="53"/>
      <point x="169" y="78"/>
      <point x="169" y="110" type="curve" smooth="yes"/>
      <point x="169" y="160"/>
      <point x="194" y="248"/>
      <point x="237" y="421" type="curve" smooth="yes"/>
      <point x="273" y="563"/>
      <point x="294" y="645"/>
      <point x="369" y="645" type="curve" smooth="yes"/>
      <point x="406" y="645"/>
      <point x="421" y="620"/>
      <point x="421" y="588" type="curve" smooth="yes"/>
      <point x="421" y="538"/>
      <point x="396" y="450"/>
      <point x="353" y="277" type="curve" smooth="yes"/>
      <point x="317" y="135"/>
      <point x="296" y="53"/>
    </contour>
    <contour>
      <point x="214" y="-12" type="curve" smooth="yes"/>
      <point x="506" y="-12"/>
      <point x="559" y="414"/>
      <point x="559" y="504" type="curve" smooth="yes"/>
      <point x="559" y="650"/>
      <point x="488" y="710"/>
      <point x="376" y="710" type="curve" smooth="yes"/>
      <point x="84" y="710"/>
      <point x="31" y="284"/>
      <point x="31" y="194" type="curve" smooth="yes"/>
      <point x="31" y="48"/>
      <point x="102" y="-12"/>
    </contour>
  </outline>
</glyph>
<glyph name="one" format="1">
  <advance width="550"/>
  <unicode hex="0031"/>
  <outline>
    <contour>
      <point x="14" y="0" type="line" name="hr00"/>
      <point x="443" y="0" type="line"/>
      <point x="458" y="60" type="line"/>
      <point x="325" y="60" type="line"/>
      <point x="484" y="698" type="line"/>
      <point x="367" y="698" type="line"/>
      <point x="125" y="587" type="line"/>
      <point x="139" y="533" type="line"/>
      <point x="304" y="591" type="line"/>
      <point x="172" y="60" type="line"/>
      <point x="29" y="60" type="line"/>
    </contour>
  </outline>
</glyph>
<glyph name="two" format="1">
  <advance width="550"/>
  <unicode hex="0032"/>
  <outline>
    <contour>
      <point x="-32" y="0" type="line" name=""/>
      <point x="426" y="0" type="line"/>
      <point x="481" y="218" type="line"/>
      <point x="408" y="218" type="line"/>
      <point x="383" y="124" type="line"/>
      <point x="119" y="124" type="line"/>
      <point x="122" y="135" type="line"/>
      <point x="305" y="259" type="line" smooth="yes"/>
      <point x="414" y="332"/>
      <point x="540" y="419"/>
      <point x="540" y="562" type="curve" smooth="yes"/>
      <point x="540" y="647"/>
      <point x="485" y="710"/>
      <point x="344" y="710" type="curve" smooth="yes"/>
      <point x="201" y="710"/>
      <point x="118" y="634"/>
      <point x="118" y="563" type="curve" smooth="yes"/>
      <point x="118" y="518"/>
      <point x="148" y="497"/>
      <point x="184" y="497" type="curve" smooth="yes"/>
      <point x="238" y="497"/>
      <point x="270" y="536"/>
      <point x="270" y="577" type="curve" smooth="yes"/>
      <point x="270" y="605"/>
      <point x="253" y="626"/>
      <point x="225" y="632" type="curve"/>
      <point x="228" y="640" type="line"/>
      <point x="250" y="648"/>
      <point x="274" y="653"/>
      <point x="307" y="653" type="curve" smooth="yes"/>
      <point x="355" y="653"/>
      <point x="382" y="627"/>
      <point x="382" y="580" type="curve" smooth="yes"/>
      <point x="382" y="556"/>
      <point x="372" y="516"/>
      <point x="370" y="507" type="curve" smooth="yes"/>
      <point x="349" y="426"/>
      <point x="294" y="368"/>
      <point x="222" y="305" type="curve" smooth="yes"/>
      <point x="-6" y="107" type="line"/>
    </contour>
  </outline>
</glyph>
<glyph name="three" format="1">
  <advance width="550"/>
  <unicode hex="0033"/>
  <outline>
    <contour>
      <point x="184" y="-12" type="curve" smooth="yes" name="hr00"/>
      <point x="416" y="-12"/>
      <point x="484" y="142"/>
      <point x="484" y="230" type="curve" smooth="yes"/>
      <point x="484" y="306"/>
      <point x="427" y="353"/>
      <point x="336" y="365" type="curve"/>
      <point x="338" y="373" type="line"/>
      <point x="442" y="389"/>
      <point x="559" y="449"/>
      <point x="559" y="574" type="curve" smooth="yes"/>
      <point x="559" y="667"/>
      <point x="486" y="710"/>
      <point x="359" y="710" type="curve" smooth="yes"/>
      <point x="210" y="710"/>
      <point x="127" y="634"/>
      <point x="127" y="563" type="curve" smooth="yes"/>
      <point x="127" y="518"/>
      <point x="158" y="498"/>
      <point x="195" y="498" type="curve" smooth="yes"/>
      <point x="245" y="498"/>
      <point x="279" y="532"/>
      <point x="279" y="578" type="curve" smooth="yes"/>
      <point x="279" y="602"/>
      <point x="265" y="626"/>
      <point x="235" y="632" type="curve"/>
      <point x="238" y="640" type="line"/>
      <point x="257" y="648"/>
      <point x="282" y="653"/>
      <point x="316" y="653" type="curve" smooth="yes"/>
      <point x="360" y="653"/>
      <point x="397" y="632"/>
      <point x="397" y="574" type="curve" smooth="yes"/>
      <point x="397" y="551"/>
      <point x="388" y="516"/>
      <point x="386" y="506" type="curve" smooth="yes"/>
      <point x="371" y="445"/>
      <point x="328" y="399"/>
      <point x="234" y="399" type="curve" smooth="yes"/>
      <point x="182" y="399" type="line"/>
      <point x="164" y="331" type="line"/>
      <point x="217" y="331" type="line" smooth="yes"/>
      <point x="283" y="331"/>
      <point x="323" y="307"/>
      <point x="323" y="247" type="curve" smooth="yes"/>
      <point x="323" y="219"/>
      <point x="311" y="178"/>
      <point x="308" y="166" type="curve" smooth="yes"/>
      <point x="287" y="82"/>
      <point x="242" y="46"/>
      <point x="160" y="46" type="curve" smooth="yes"/>
      <point x="127" y="46"/>
      <point x="98" y="51"/>
      <point x="76" y="62" type="curve"/>
      <point x="79" y="70" type="line"/>
      <point x="115" y="74"/>
      <point x="154" y="94"/>
      <point x="154" y="144" type="curve" smooth="yes"/>
      <point x="154" y="175"/>
      <point x="134" y="203"/>
      <point x="87" y="203" type="curve" smooth="yes"/>
      <point x="43" y="203"/>
      <point x="-3" y="171"/>
      <point x="-3" y="109" type="curve" smooth="yes"/>
      <point x="-3" y="47"/>
      <point x="53" y="-12"/>
    </contour>
  </outline>
</glyph>
<glyph name="four" format="1">
  <advance width="550"/>
  <unicode hex="0034"/>
  <outline>
    <contour>
      <point x="212" y="0" type="line" name="hr00"/>
      <point x="360" y="0" type="line"/>
      <point x="398" y="153" type="line"/>
      <point x="489" y="153" type="line"/>
      <point x="514" y="252" type="line"/>
      <point x="422" y="252" type="line"/>
      <point x="533" y="698" type="line"/>
      <point x="361" y="698" type="line"/>
      <point x="15" y="242" type="line"/>
      <point x="-7" y="153" type="line"/>
      <point x="250" y="153" type="line"/>
    </contour>
    <contour>
      <point x="351" y="595" type="line"/>
      <point x="360" y="595" type="line"/>
      <point x="274" y="252" type="line"/>
      <point x="99" y="252" type="line"/>
    </contour>
  </outline>
</glyph>
<glyph name="five" format="1">
  <advance width="550"/>
  <unicode hex="0035"/>
  <outline>
    <contour>
      <point x="185" y="-12" type="curve" smooth="yes" name="hr00"/>
      <point x="369" y="-12"/>
      <point x="492" y="118"/>
      <point x="492" y="287" type="curve" smooth="yes"/>
      <point x="492" y="390"/>
      <point x="422" y="432"/>
      <point x="333" y="432" type="curve" smooth="yes"/>
      <point x="242" y="432"/>
      <point x="194" y="388"/>
      <point x="165" y="341" type="curve"/>
      <point x="155" y="341" type="line"/>
      <point x="229" y="579" type="line"/>
      <point x="544" y="579" type="line"/>
      <point x="574" y="698" type="line"/>
      <point x="202" y="698" type="line"/>
      <point x="80" y="307" type="line"/>
      <point x="143" y="292" type="line"/>
      <point x="167" y="324"/>
      <point x="212" y="352"/>
      <point x="254" y="352" type="curve" smooth="yes"/>
      <point x="296" y="352"/>
      <point x="330" y="331"/>
      <point x="330" y="275" type="curve" smooth="yes"/>
      <point x="330" y="244"/>
      <point x="318" y="201"/>
      <point x="316" y="192" type="curve" smooth="yes"/>
      <point x="291" y="93"/>
      <point x="237" y="45"/>
      <point x="164" y="45" type="curve" smooth="yes"/>
      <point x="133" y="45"/>
      <point x="105" y="51"/>
      <point x="86" y="61" type="curve"/>
      <point x="89" y="69" type="line"/>
      <point x="129" y="73"/>
      <point x="165" y="97"/>
      <point x="165" y="144" type="curve" smooth="yes"/>
      <point x="165" y="175"/>
      <point x="145" y="203"/>
      <point x="98" y="203" type="curve" smooth="yes"/>
      <point x="54" y="203"/>
      <point x="8" y="171"/>
      <point x="8" y="109" type="curve" smooth="yes"/>
      <point x="8" y="51"/>
      <point x="52" y="-12"/>
    </contour>
  </outline>
</glyph>
<glyph name="six" format="1">
  <advance width="550"/>
  <unicode hex="0036"/>
  <outline>
    <contour>
      <point x="211" y="-12" type="curve" smooth="yes" name="hr00"/>
      <point x="383" y="-12"/>
      <point x="512" y="116"/>
      <point x="512" y="308" type="curve" smooth="yes"/>
      <point x="512" y="399"/>
      <point x="463" y="450"/>
      <point x="380" y="450" type="curve" smooth="yes"/>
      <point x="299" y="450"/>
      <point x="246" y="402"/>
      <point x="223" y="352" type="curve"/>
      <point x="214" y="354" type="line"/>
      <point x="262" y="505"/>
      <point x="376" y="612"/>
      <point x="544" y="652" type="curve"/>
      <point x="541" y="710" type="line"/>
      <point x="191" y="676"/>
      <point x="24" y="387"/>
      <point x="24" y="178" type="curve" smooth="yes"/>
      <point x="24" y="47"/>
      <point x="102" y="-12"/>
    </contour>
    <contour>
      <point x="223" y="53" type="curve" smooth="yes"/>
      <point x="186" y="53"/>
      <point x="165" y="76"/>
      <point x="165" y="113" type="curve" smooth="yes"/>
      <point x="165" y="145"/>
      <point x="183" y="211"/>
      <point x="185" y="219" type="curve" smooth="yes"/>
      <point x="207" y="307"/>
      <point x="231" y="365"/>
      <point x="295" y="365" type="curve" smooth="yes"/>
      <point x="332" y="365"/>
      <point x="353" y="342"/>
      <point x="353" y="305" type="curve" smooth="yes"/>
      <point x="353" y="273"/>
      <point x="335" y="207"/>
      <point x="333" y="199" type="curve" smooth="yes"/>
      <point x="311" y="111"/>
      <point x="287" y="53"/>
    </contour>
  </outline>
</glyph>
<glyph name="seven" format="1">
  <advance width="550"/>
  <unicode hex="0037"/>
  <outline>
    <contour>
      <point x="76" y="0" type="line" name=""/>
      <point x="232" y="0" type="line"/>
      <point x="578" y="595" type="line"/>
      <point x="604" y="698" type="line"/>
      <point x="154" y="698" type="line"/>
      <point x="92" y="448" type="line"/>
      <point x="164" y="448" type="line"/>
      <point x="193" y="560" type="line"/>
      <point x="467" y="560" type="line"/>
    </contour>
  </outline>
</glyph>
<glyph name="eight" format="1">
  <advance width="550"/>
  <unicode hex="0038"/>
  <outline>
    <contour>
      <point x="211" y="-12" type="curve" smooth="yes" name="hr00"/>
      <point x="423" y="-12"/>
      <point x="500" y="127"/>
      <point x="500" y="225" type="curve" smooth="yes"/>
      <point x="500" y="307"/>
      <point x="444" y="349"/>
      <point x="375" y="360" type="curve"/>
      <point x="377" y="368" type="line"/>
      <point x="474" y="380"/>
      <point x="570" y="455"/>
      <point x="570" y="570" type="curve" smooth="yes"/>
      <point x="570" y="649"/>
      <point x="519" y="710"/>
      <point x="377" y="710" type="curve" smooth="yes"/>
      <point x="212" y="710"/>
      <point x="111" y="619"/>
      <point x="111" y="501" type="curve" smooth="yes"/>
      <point x="111" y="421"/>
      <point x="170" y="378"/>
      <point x="222" y="368" type="curve"/>
      <point x="220" y="360" type="line"/>
      <point x="96" y="346"/>
      <point x="6" y="264"/>
      <point x="6" y="143" type="curve" smooth="yes"/>
      <point x="6" y="50"/>
      <point x="73" y="-12"/>
    </contour>
    <contour>
      <point x="222" y="50" type="curve" smooth="yes"/>
      <point x="180" y="50"/>
      <point x="160" y="75"/>
      <point x="160" y="108" type="curve" smooth="yes"/>
      <point x="160" y="132"/>
      <point x="176" y="195"/>
      <point x="178" y="203" type="curve" smooth="yes"/>
      <point x="197" y="283"/>
      <point x="221" y="335"/>
      <point x="288" y="335" type="curve" smooth="yes"/>
      <point x="330" y="335"/>
      <point x="350" y="310"/>
      <point x="350" y="277" type="curve" smooth="yes"/>
      <point x="350" y="253"/>
      <point x="334" y="190"/>
      <point x="332" y="182" type="curve" smooth="yes"/>
      <point x="313" y="102"/>
      <point x="289" y="50"/>
    </contour>
    <contour>
      <point x="309" y="396" type="curve" smooth="yes"/>
      <point x="277" y="396"/>
      <point x="257" y="413"/>
      <point x="257" y="443" type="curve" smooth="yes"/>
      <point x="257" y="460"/>
      <point x="259" y="471"/>
      <point x="273" y="528" type="curve" smooth="yes"/>
      <point x="292" y="604"/>
      <point x="307" y="648"/>
      <point x="366" y="648" type="curve" smooth="yes"/>
      <point x="398" y="648"/>
      <point x="418" y="631"/>
      <point x="418" y="601" type="curve" smooth="yes"/>
      <point x="418" y="584"/>
      <point x="416" y="573"/>
      <point x="402" y="516" type="curve" smooth="yes"/>
      <point x="383" y="440"/>
      <point x="368" y="396"/>
    </contour>
  </outline>
</glyph>
<glyph name="nine" format="1">
  <advance width="550"/>
  <unicode hex="0039"/>
  <outline>
    <contour>
      <point x="49" y="-12" type="line" name="hr00"/>
      <point x="399" y="22"/>
      <point x="566" y="311"/>
      <point x="566" y="520" type="curve" smooth="yes"/>
      <point x="566" y="651"/>
      <point x="488" y="710"/>
      <point x="379" y="710" type="curve" smooth="yes"/>
      <point x="207" y="710"/>
      <point x="78" y="582"/>
      <point x="78" y="390" type="curve" smooth="yes"/>
      <point x="78" y="299"/>
      <point x="127" y="248"/>
      <point x="210" y="248" type="curve" smooth="yes"/>
      <point x="291" y="248"/>
      <point x="344" y="296"/>
      <point x="367" y="346" type="curve"/>
      <point x="376" y="344" type="line"/>
      <point x="328" y="193"/>
      <point x="214" y="86"/>
      <point x="46" y="46" type="curve"/>
    </contour>
    <contour>
      <point x="295" y="333" type="curve" smooth="yes"/>
      <point x="258" y="333"/>
      <point x="237" y="356"/>
      <point x="237" y="393" type="curve" smooth="yes"/>
      <point x="237" y="425"/>
      <point x="255" y="491"/>
      <point x="257" y="499" type="curve" smooth="yes"/>
      <point x="279" y="587"/>
      <point x="303" y="645"/>
      <point x="367" y="645" type="curve" smooth="yes"/>
      <point x="404" y="645"/>
      <point x="425" y="622"/>
      <point x="425" y="585" type="curve" smooth="yes"/>
      <point x="425" y="553"/>
      <point x="407" y="487"/>
      <point x="405" y="479" type="curve" smooth="yes"/>
      <point x="383" y="391"/>
      <point x="359" y="333"/>
    </contour>
  </outline>
</glyph>
<glyph name="less" format="1">
  <advance width="550"/>
  <unicode hex="003C"/>
  <outline>
    <contour>
      <point x="379" y="-11" type="line" name="hr00"/>
      <point x="401" y="74" type="line"/>
      <point x="199" y="257" type="line"/>
      <point x="201" y="268" type="line"/>
      <point x="493" y="448" type="line"/>
      <point x="517" y="546" type="line"/>
      <point x="105" y="310" type="line"/>
      <point x="85" y="230" type="line"/>
    </contour>
  </outline>
</glyph>
<glyph name="equal" format="1">
  <advance width="550"/>
  <unicode hex="003D"/>
  <outline>
    <contour>
      <point x="33" y="155" type="line" name="hr00"/>
      <point x="461" y="155" type="line"/>
      <point x="480" y="232" type="line"/>
      <point x="52" y="232" type="line"/>
    </contour>
    <contour>
      <point x="89" y="378" type="line"/>
      <point x="517" y="378" type="line"/>
      <point x="536" y="455" type="line"/>
      <point x="108" y="455" type="line"/>
    </contour>
  </outline>
</glyph>
<glyph name="greater" format="1">
  <advance width="550"/>
  <unicode hex="003E"/>
  <outline>
    <contour>
      <point x="37" y="-11" type="line" name="hr00"/>
      <point x="449" y="225" type="line"/>
      <point x="469" y="305" type="line"/>
      <point x="175" y="546" type="line"/>
      <point x="153" y="461" type="line"/>
      <point x="355" y="278" type="line"/>
      <point x="353" y="267" type="line"/>
      <point x="61" y="87" type="line"/>
    </contour>
  </outline>
</glyph>
<glyph name="question" format="1">
  <advance width="466"/>
  <unicode hex="003F"/>
  <outline>
    <contour>
      <point x="131" y="230" type="line" name="hr00"/>
      <point x="203" y="230" type="line"/>
      <point x="224" y="314" type="line"/>
      <point x="375" y="326"/>
      <point x="519" y="412"/>
      <point x="519" y="572" type="curve" smooth="yes"/>
      <point x="519" y="654"/>
      <point x="465" y="710"/>
      <point x="327" y="710" type="curve" smooth="yes"/>
      <point x="194" y="710"/>
      <point x="93" y="642"/>
      <point x="93" y="563" type="curve" smooth="yes"/>
      <point x="93" y="522"/>
      <point x="121" y="498"/>
      <point x="163" y="498" type="curve" smooth="yes"/>
      <point x="213" y="498"/>
      <point x="245" y="536"/>
      <point x="245" y="578" type="curve" smooth="yes"/>
      <point x="245" y="603"/>
      <point x="230" y="626"/>
      <point x="201" y="632" type="curve"/>
      <point x="204" y="640" type="line"/>
      <point x="224" y="649"/>
      <point x="255" y="653"/>
      <point x="279" y="653" type="curve" smooth="yes"/>
      <point x="325" y="653"/>
      <point x="357" y="626"/>
      <point x="357" y="581" type="curve" smooth="yes"/>
      <point x="357" y="560"/>
      <point x="351" y="537"/>
      <point x="347" y="521" type="curve" smooth="yes"/>
      <point x="323" y="428"/>
      <point x="264" y="388"/>
      <point x="169" y="383" type="curve"/>
    </contour>
    <contour>
      <point x="120" y="-12" type="curve" smooth="yes"/>
      <point x="171" y="-12"/>
      <point x="207" y="18"/>
      <point x="218" y="63" type="curve" smooth="yes"/>
      <point x="220" y="71"/>
      <point x="221" y="81"/>
      <point x="221" y="89" type="curve" smooth="yes"/>
      <point x="221" y="128"/>
      <point x="190" y="161"/>
      <point x="140" y="161" type="curve" smooth="yes"/>
      <point x="89" y="161"/>
      <point x="53" y="131"/>
      <point x="42" y="86" type="curve" smooth="yes"/>
      <point x="40" y="78"/>
      <point x="39" y="68"/>
      <point x="39" y="60" type="curve" smooth="yes"/>
      <point x="39" y="21"/>
      <point x="70" y="-12"/>
    </contour>
  </outline>
</glyph>
<glyph name="at" format="1">
  <advance width="839"/>
  <unicode hex="0040"/>
  <outline>
    <contour>
      <point x="348" y="-120" type="curve" smooth="yes" name="hr00"/>
      <point x="413" y="-120"/>
      <point x="467" y="-114"/>
      <point x="527" y="-108" type="curve"/>
      <point x="536" y="-71" type="line"/>
      <point x="359" y="-71" type="line" smooth="yes"/>
      <point x="226" y="-71"/>
      <point x="129" y="12"/>
      <point x="129" y="158" type="curve" smooth="yes"/>
      <point x="129" y="220"/>
      <point x="151" y="292"/>
      <point x="155" y="309" type="curve" smooth="yes"/>
      <point x="206" y="511"/>
      <point x="339" y="670"/>
      <point x="523" y="670" type="curve" smooth="yes"/>
      <point x="665" y="670"/>
      <point x="734" y="594"/>
      <point x="734" y="456" type="curve" smooth="yes"/>
      <point x="734" y="403"/>
      <point x="722" y="353"/>
      <point x="714" y="321" type="curve" smooth="yes"/>
      <point x="683" y="196"/>
      <point x="639" y="119"/>
      <point x="590" y="119" type="curve" smooth="yes"/>
      <point x="572" y="119"/>
      <point x="563" y="127"/>
      <point x="563" y="147" type="curve" smooth="yes"/>
      <point x="563" y="155"/>
      <point x="564" y="164"/>
      <point x="567" y="176" type="curve" smooth="yes"/>
      <point x="646" y="500" type="line"/>
      <point x="592" y="500" type="line"/>
      <point x="542" y="429" type="line"/>
      <point x="534" y="429" type="line"/>
      <point x="522" y="488"/>
      <point x="489" y="509"/>
      <point x="444" y="509" type="curve" smooth="yes"/>
      <point x="320" y="509"/>
      <point x="241" y="328"/>
      <point x="241" y="190" type="curve" smooth="yes"/>
      <point x="241" y="116"/>
      <point x="266" y="69"/>
      <point x="328" y="69" type="curve" smooth="yes"/>
      <point x="398" y="69"/>
      <point x="434" y="127"/>
      <point x="466" y="193" type="curve"/>
      <point x="474" y="191" type="line"/>
      <point x="472" y="179"/>
      <point x="471" y="169"/>
      <point x="471" y="160" type="curve" smooth="yes"/>
      <point x="471" y="106"/>
      <point x="498" y="69"/>
      <point x="571" y="69" type="curve" smooth="yes"/>
      <point x="696" y="69"/>
      <point x="809" y="244"/>
      <point x="809" y="454" type="curve" smooth="yes"/>
      <point x="809" y="620"/>
      <point x="697" y="710"/>
      <point x="525" y="710" type="curve" smooth="yes"/>
      <point x="225" y="710"/>
      <point x="55" y="416"/>
      <point x="55" y="163" type="curve" smooth="yes"/>
      <point x="55" y="-24"/>
      <point x="176" y="-120"/>
    </contour>
    <contour>
      <point x="374" y="145" type="curve" smooth="yes"/>
      <point x="355" y="145"/>
      <point x="349" y="161"/>
      <point x="349" y="186" type="curve" smooth="yes"/>
      <point x="349" y="220"/>
      <point x="359" y="280"/>
      <point x="371" y="323" type="curve" smooth="yes"/>
      <point x="395" y="407"/>
      <point x="432" y="440"/>
      <point x="471" y="440" type="curve" smooth="yes"/>
      <point x="510" y="440"/>
      <point x="515" y="412"/>
      <point x="505" y="367" type="curve" smooth="yes"/>
      <point x="499" y="342" type="line" smooth="yes"/>
      <point x="484" y="274"/>
      <point x="427" y="145"/>
    </contour>
  </outline>
</glyph>
<glyph name="A" format="1">
  <advance width="663"/>
  <unicode hex="0041"/>
  <outline>
    <contour>
      <point x="-53" y="0" type="line" name="hr00"/>
      <point x="149" y="0" type="line"/>
      <point x="164" y="60" type="line"/>
      <point x="94" y="60" type="line"/>
      <point x="180" y="218" type="line"/>
      <point x="397" y="218" type="line"/>
      <point x="405" y="60" type="line"/>
      <point x="335" y="60" type="line"/>
      <point x="321" y="0" type="line"/>
      <point x="587" y="0" type="line"/>
      <point x="602" y="60" type="line"/>
      <point x="555" y="60" type="line"/>
      <point x="504" y="698" type="line"/>
      <point x="373" y="698" type="line"/>
      <point x="9" y="60" type="line"/>
      <point x="-38" y="60" type="line"/>
    </contour>
    <contour>
      <point x="375" y="589" type="line"/>
      <point x="384" y="589" type="line"/>
      <point x="395" y="280" type="line"/>
      <point x="212" y="280" type="line"/>
    </contour>
    <contour>
      <point x="234.0" y="0.0" type="move" name="bottom"/>
    </contour>
    <contour>
      <point x="588.0" y="0.0" type="move" name="bottomright"/>
    </contour>
    <contour>
      <point x="438.0" y="698.0" type="move" name="top"/>
    </contour>
  </outline>
</glyph>
<glyph name="B" format="1">
  <advance width="647"/>
  <unicode hex="0042"/>
  <outline>
    <contour>
      <point x="-33" y="0" type="line" name="hr00"/>
      <point x="329" y="0" type="line" smooth="yes"/>
      <point x="511" y="0"/>
      <point x="597" y="112"/>
      <point x="597" y="222" type="curve" smooth="yes"/>
      <point x="597" y="304"/>
      <point x="535" y="347"/>
      <point x="468" y="362" type="curve"/>
      <point x="470" y="370" type="line"/>
      <point x="581" y="392"/>
      <point x="654" y="459"/>
      <point x="654" y="565" type="curve" smooth="yes"/>
      <point x="654" y="648"/>
      <point x="602" y="698"/>
      <point x="461" y="698" type="curve" smooth="yes"/>
      <point x="141" y="698" type="line"/>
      <point x="126" y="638" type="line"/>
      <point x="189" y="638" type="line"/>
      <point x="45" y="60" type="line"/>
      <point x="-18" y="60" type="line"/>
    </contour>
    <contour>
      <point x="265" y="327" type="line"/>
      <point x="368" y="327" type="line" smooth="yes"/>
      <point x="424" y="327"/>
      <point x="448" y="297"/>
      <point x="448" y="255" type="curve" smooth="yes"/>
      <point x="448" y="243"/>
      <point x="446" y="230"/>
      <point x="433" y="178" type="curve" smooth="yes"/>
      <point x="415" y="103"/>
      <point x="361" y="64"/>
      <point x="295" y="64" type="curve" smooth="yes"/>
      <point x="199" y="64" type="line"/>
    </contour>
    <contour>
      <point x="341" y="634" type="line"/>
      <point x="428" y="634" type="line" smooth="yes"/>
      <point x="480" y="634"/>
      <point x="502" y="611"/>
      <point x="502" y="575" type="curve" smooth="yes"/>
      <point x="502" y="564"/>
      <point x="499" y="550"/>
      <point x="487" y="502" type="curve" smooth="yes"/>
      <point x="468" y="431"/>
      <point x="421" y="391"/>
      <point x="357" y="391" type="curve" smooth="yes"/>
      <point x="281" y="391" type="line"/>
    </contour>
    <contour>
      <point x="230.0" y="0.0" type="move" name="bottom"/>
    </contour>
    <contour>
      <point x="406.0" y="698.0" type="move" name="top"/>
    </contour>
  </outline>
</glyph>
<glyph name="C" format="1">
  <advance width="604"/>
  <unicode hex="0043"/>
  <outline>
    <contour>
      <point x="271" y="-12" type="curve" smooth="yes" name="hr00"/>
      <point x="395" y="-12"/>
      <point x="492" y="76"/>
      <point x="550" y="171" type="curve"/>
      <point x="507" y="199" type="line"/>
      <point x="459" y="123"/>
      <point x="404" y="67"/>
      <point x="315" y="67" type="curve" smooth="yes"/>
      <point x="240" y="67"/>
      <point x="204" y="119"/>
      <point x="204" y="191" type="curve" smooth="yes"/>
      <point x="204" y="241"/>
      <point x="216" y="278"/>
      <point x="261" y="461" type="curve" smooth="yes"/>
      <point x="287" y="565"/>
      <point x="346" y="639"/>
      <point x="432" y="639" type="curve" smooth="yes"/>
      <point x="485" y="639"/>
      <point x="527" y="611"/>
      <point x="527" y="553" type="curve" smooth="yes"/>
      <point x="527" y="541"/>
      <point x="525" y="529"/>
      <point x="522" y="517" type="curve" smooth="yes"/>
      <point x="512" y="476" type="line"/>
      <point x="622" y="476" type="line"/>
      <point x="677" y="698" type="line"/>
      <point x="567" y="698" type="line"/>
      <point x="552" y="638" type="line"/>
      <point x="541" y="638" type="line"/>
      <point x="529" y="678"/>
      <point x="490" y="710"/>
      <point x="420" y="710" type="curve" smooth="yes"/>
      <point x="184" y="710"/>
      <point x="47" y="446"/>
      <point x="47" y="235" type="curve" smooth="yes"/>
      <point x="47" y="54"/>
      <point x="150" y="-12"/>
    </contour>
    <contour>
      <point x="278.0" y="0.0" type="move" name="bottom"/>
    </contour>
    <contour>
      <point x="420.0" y="698.0" type="move" name="top"/>
    </contour>
  </outline>
</glyph>
<glyph name="D" format="1">
  <advance width="691"/>
  <unicode hex="0044"/>
  <outline>
    <contour>
      <point x="-33" y="0" type="line" name="hr00"/>
      <point x="274" y="0" type="line" smooth="yes"/>
      <point x="544" y="0"/>
      <point x="681" y="248"/>
      <point x="681" y="453" type="curve" smooth="yes"/>
      <point x="681" y="586"/>
      <point x="606" y="698"/>
      <point x="433" y="698" type="curve" smooth="yes"/>
      <point x="141" y="698" type="line"/>
      <point x="126" y="638" type="line"/>
      <point x="189" y="638" type="line"/>
      <point x="45" y="60" type="line"/>
      <point x="-18" y="60" type="line"/>
    </contour>
    <contour>
      <point x="342" y="635" type="line"/>
      <point x="403" y="635" type="line" smooth="yes"/>
      <point x="486" y="635"/>
      <point x="532" y="606"/>
      <point x="532" y="529" type="curve" smooth="yes"/>
      <point x="532" y="495"/>
      <point x="528" y="472"/>
      <point x="480" y="278" type="curve" smooth="yes"/>
      <point x="443" y="130"/>
      <point x="377" y="64"/>
      <point x="252" y="64" type="curve" smooth="yes"/>
      <point x="199" y="64" type="line"/>
    </contour>
    <contour>
      <point x="228.0" y="0.0" type="move" name="bottom"/>
    </contour>
    <contour>
      <point x="402.0" y="698.0" type="move" name="top"/>
    </contour>
  </outline>
</glyph>
<glyph name="E" format="1">
  <advance width="604"/>
  <unicode hex="0045"/>
  <outline>
    <contour>
      <point x="-33" y="0" type="line" name="hr00"/>
      <point x="491" y="0" type="line"/>
      <point x="542" y="206" type="line"/>
      <point x="432" y="206" type="line"/>
      <point x="397" y="64" type="line"/>
      <point x="199" y="64" type="line"/>
      <point x="266" y="332" type="line"/>
      <point x="386" y="332" type="line"/>
      <point x="370" y="268" type="line"/>
      <point x="439" y="268" type="line"/>
      <point x="487" y="460" type="line"/>
      <point x="418" y="460" type="line"/>
      <point x="402" y="396" type="line"/>
      <point x="282" y="396" type="line"/>
      <point x="341" y="634" type="line"/>
      <point x="530" y="634" type="line"/>
      <point x="500" y="512" type="line"/>
      <point x="610" y="512" type="line"/>
      <point x="657" y="698" type="line"/>
      <point x="141" y="698" type="line"/>
      <point x="126" y="638" type="line"/>
      <point x="189" y="638" type="line"/>
      <point x="45" y="60" type="line"/>
      <point x="-18" y="60" type="line"/>
    </contour>
    <contour>
      <point x="232.0" y="0.0" type="move" name="bottom"/>
    </contour>
    <contour>
      <point x="491.0" y="0.0" type="move" name="bottomright"/>
    </contour>
    <contour>
      <point x="409.0" y="698.0" type="move" name="top"/>
    </contour>
  </outline>
</glyph>
<glyph name="F" format="1">
  <advance width="574"/>
  <unicode hex="0046"/>
  <outline>
    <contour>
      <point x="-33" y="0" type="line" name="hr00"/>
      <point x="273" y="0" type="line"/>
      <point x="288" y="60" type="line"/>
      <point x="198" y="60" type="line"/>
      <point x="262" y="317" type="line"/>
      <point x="383" y="317" type="line"/>
      <point x="366" y="253" type="line"/>
      <point x="435" y="253" type="line"/>
      <point x="484" y="445" type="line"/>
      <point x="415" y="445" type="line"/>
      <point x="399" y="381" type="line"/>
      <point x="278" y="381" type="line"/>
      <point x="341" y="634" type="line"/>
      <point x="530" y="634" type="line"/>
      <point x="500" y="512" type="line"/>
      <point x="610" y="512" type="line"/>
      <point x="657" y="698" type="line"/>
      <point x="141" y="698" type="line"/>
      <point x="126" y="638" type="line"/>
      <point x="189" y="638" type="line"/>
      <point x="45" y="60" type="line"/>
      <point x="-18" y="60" type="line"/>
    </contour>
    <contour>
      <point x="112.0" y="0.0" type="move" name="bottom"/>
    </contour>
    <contour>
      <point x="409.0" y="698.0" type="move" name="top"/>
    </contour>
  </outline>
</glyph>
<glyph name="G" format="1">
  <advance width="708"/>
  <unicode hex="0047"/>
  <outline>
    <contour>
      <point x="271" y="-12" type="curve" smooth="yes" name="hr00"/>
      <point x="367" y="-12"/>
      <point x="438" y="47"/>
      <point x="468" y="98" type="curve"/>
      <point x="478" y="98" type="line"/>
      <point x="506" y="0" type="line"/>
      <point x="558" y="0" type="line"/>
      <point x="629" y="288" type="line"/>
      <point x="676" y="288" type="line"/>
      <point x="691" y="348" type="line"/>
      <point x="399" y="348" type="line"/>
      <point x="384" y="288" type="line"/>
      <point x="476" y="288" type="line"/>
      <point x="452" y="191" type="line" smooth="yes"/>
      <point x="432" y="110"/>
      <point x="366" y="57"/>
      <point x="299" y="57" type="curve" smooth="yes"/>
      <point x="235" y="57"/>
      <point x="197" y="103"/>
      <point x="197" y="168" type="curve" smooth="yes"/>
      <point x="197" y="220"/>
      <point x="209" y="253"/>
      <point x="256" y="441" type="curve" smooth="yes"/>
      <point x="287" y="566"/>
      <point x="359" y="643"/>
      <point x="456" y="643" type="curve" smooth="yes"/>
      <point x="524" y="643"/>
      <point x="567" y="610"/>
      <point x="567" y="553" type="curve" smooth="yes"/>
      <point x="567" y="540"/>
      <point x="565" y="528"/>
      <point x="562" y="516" type="curve" smooth="yes"/>
      <point x="552" y="476" type="line"/>
      <point x="662" y="476" type="line"/>
      <point x="717" y="698" type="line"/>
      <point x="607" y="698" type="line"/>
      <point x="592" y="638" type="line"/>
      <point x="581" y="638" type="line"/>
      <point x="566" y="680"/>
      <point x="520" y="710"/>
      <point x="441" y="710" type="curve" smooth="yes"/>
      <point x="196" y="710"/>
      <point x="47" y="458"/>
      <point x="47" y="232" type="curve" smooth="yes"/>
      <point x="47" y="72"/>
      <point x="134" y="-12"/>
    </contour>
    <contour>
      <point x="279.0" y="0.0" type="move" name="bottom"/>
    </contour>
    <contour>
      <point x="438.0" y="698.0" type="move" name="top"/>
    </contour>
  </outline>
</glyph>
<glyph name="I" format="1">
  <advance width="352"/>
  <unicode hex="0049"/>
  <outline>
    <contour>
      <point x="-33" y="0" type="line" name="hr00"/>
      <point x="255" y="0" type="line"/>
      <point x="270" y="63" type="line"/>
      <point x="208" y="63" type="line"/>
      <point x="351" y="635" type="line"/>
      <point x="413" y="635" type="line"/>
      <point x="429" y="698" type="line"/>
      <point x="141" y="698" type="line"/>
      <point x="125" y="635" type="line"/>
      <point x="187" y="635" type="line"/>
      <point x="44" y="63" type="line"/>
      <point x="-18" y="63" type="line"/>
    </contour>
    <contour>
      <point x="111" y="0" type="move" name="bottom"/>
    </contour>
    <contour>
      <point x="255" y="0" type="move" name="bottomright"/>
    </contour>
    <contour>
      <point x="283" y="698" type="move" name="top"/>
    </contour>
  </outline>
</glyph>
<glyph name="J" format="1">
  <advance width="465"/>
  <unicode hex="004A"/>
  <outline>
    <contour>
      <point x="107" y="-12" type="curve" smooth="yes" name="hr00"/>
      <point x="257" y="-12"/>
      <point x="328" y="65"/>
      <point x="359" y="190" type="curve" smooth="yes"/>
      <point x="470" y="638" type="line"/>
      <point x="533" y="638" type="line"/>
      <point x="548" y="698" type="line"/>
      <point x="242" y="698" type="line"/>
      <point x="227" y="638" type="line"/>
      <point x="317" y="638" type="line"/>
      <point x="197" y="155" type="line" smooth="yes"/>
      <point x="180" y="84"/>
      <point x="146" y="45"/>
      <point x="95" y="45" type="curve" smooth="yes"/>
      <point x="82" y="45"/>
      <point x="68" y="47"/>
      <point x="59" y="51" type="curve"/>
      <point x="59" y="55" type="line"/>
      <point x="86" y="61"/>
      <point x="109" y="84"/>
      <point x="109" y="118" type="curve" smooth="yes"/>
      <point x="109" y="154"/>
      <point x="85" y="174"/>
      <point x="45" y="174" type="curve" smooth="yes"/>
      <point x="-6" y="174"/>
      <point x="-35" y="132"/>
      <point x="-35" y="91" type="curve" smooth="yes"/>
      <point x="-35" y="32"/>
      <point x="24" y="-12"/>
    </contour>
    <contour>
      <point x="153.0" y="0.0" type="move" name="bottom"/>
    </contour>
    <contour>
      <point x="391.0" y="698.0" type="move" name="top"/>
    </contour>
  </outline>
</glyph>
<glyph name="K" format="1">
  <advance width="708"/>
  <unicode hex="004B"/>
  <outline>
    <contour>
      <point x="-33" y="0" type="line" name="hr00"/>
      <point x="246" y="0" type="line"/>
      <point x="261" y="60" type="line"/>
      <point x="198" y="60" type="line"/>
      <point x="244" y="245" type="line"/>
      <point x="346" y="340" type="line"/>
      <point x="422" y="60" type="line"/>
      <point x="359" y="60" type="line"/>
      <point x="344" y="0" type="line"/>
      <point x="636" y="0" type="line"/>
      <point x="650" y="60" type="line"/>
      <point x="587" y="60" type="line"/>
      <point x="469" y="434" type="line"/>
      <point x="691" y="638" type="line"/>
      <point x="754" y="638" type="line"/>
      <point x="769" y="698" type="line"/>
      <point x="530" y="698" type="line"/>
      <point x="515" y="638" type="line"/>
      <point x="588" y="638" type="line"/>
      <point x="395" y="456" type="line"/>
      <point x="277" y="345" type="line"/>
      <point x="269" y="345" type="line"/>
      <point x="342" y="638" type="line"/>
      <point x="405" y="638" type="line"/>
      <point x="420" y="698" type="line"/>
      <point x="141" y="698" type="line"/>
      <point x="126" y="638" type="line"/>
      <point x="189" y="638" type="line"/>
      <point x="45" y="60" type="line"/>
      <point x="-18" y="60" type="line"/>
    </contour>
    <contour>
      <point x="295.0" y="0.0" type="move" name="bottom"/>
    </contour>
    <contour>
      <point x="473.0" y="698.0" type="move" name="top"/>
    </contour>
  </outline>
</glyph>
<glyph name="L" format="1">
  <advance width="553"/>
  <unicode hex="004C"/>
  <outline>
    <contour>
      <point x="-33" y="0" type="line" name="hr00"/>
      <point x="460" y="0" type="line"/>
      <point x="511" y="206" type="line"/>
      <point x="401" y="206" type="line"/>
      <point x="366" y="64" type="line"/>
      <point x="199" y="64" type="line"/>
      <point x="342" y="638" type="line"/>
      <point x="405" y="638" type="line"/>
      <point x="420" y="698" type="line"/>
      <point x="141" y="698" type="line"/>
      <point x="126" y="638" type="line"/>
      <point x="189" y="638" type="line"/>
      <point x="45" y="60" type="line"/>
      <point x="-18" y="60" type="line"/>
    </contour>
    <contour>
      <point x="222.0" y="0.0" type="move" name="bottom"/>
    </contour>
    <contour>
      <point x="279.0" y="698.0" type="move" name="top"/>
    </contour>
    <contour>
      <point x="436.0" y="740.0" type="move" name="topright"/>
    </contour>
  </outline>
</glyph>
<glyph name="M" format="1">
  <advance width="824"/>
  <unicode hex="004D"/>
  <outline>
    <contour>
      <point x="-33" y="0" type="line" name="hr00"/>
      <point x="166" y="0" type="line"/>
      <point x="181" y="60" type="line"/>
      <point x="118" y="60" type="line"/>
      <point x="248" y="581" type="line"/>
      <point x="258" y="581" type="line"/>
      <point x="277" y="451" type="line"/>
      <point x="339" y="116" type="line"/>
      <point x="559" y="449" type="line"/>
      <point x="647" y="583" type="line"/>
      <point x="657" y="583" type="line"/>
      <point x="526" y="60" type="line"/>
      <point x="463" y="60" type="line"/>
      <point x="448" y="0" type="line"/>
      <point x="727" y="0" type="line"/>
      <point x="742" y="60" type="line"/>
      <point x="679" y="60" type="line"/>
      <point x="823" y="638" type="line"/>
      <point x="886" y="638" type="line"/>
      <point x="901" y="698" type="line"/>
      <point x="651" y="698" type="line"/>
      <point x="440" y="372" type="line"/>
      <point x="431" y="372" type="line"/>
      <point x="381" y="698" type="line"/>
      <point x="141" y="698" type="line"/>
      <point x="126" y="638" type="line"/>
      <point x="189" y="638" type="line"/>
      <point x="45" y="60" type="line"/>
      <point x="-18" y="60" type="line"/>
    </contour>
    <contour>
      <point x="307.0" y="0.0" type="move" name="bottom"/>
    </contour>
    <contour>
      <point x="512.0" y="698.0" type="move" name="top"/>
    </contour>
  </outline>
</glyph>
<glyph name="N" format="1">
  <advance width="710"/>
  <unicode hex="004E"/>
  <outline>
    <contour>
      <point x="-33" y="0" type="line" name="hr00"/>
      <point x="165" y="0" type="line"/>
      <point x="180" y="60" type="line"/>
      <point x="117" y="60" type="line"/>
      <point x="248" y="586" type="line"/>
      <point x="258" y="586" type="line"/>
      <point x="416" y="0" type="line"/>
      <point x="550" y="0" type="line"/>
      <point x="709" y="638" type="line"/>
      <point x="772" y="638" type="line"/>
      <point x="787" y="698" type="line"/>
      <point x="588" y="698" type="line"/>
      <point x="573" y="638" type="line"/>
      <point x="636" y="638" type="line"/>
      <point x="523" y="186" type="line"/>
      <point x="513" y="186" type="line"/>
      <point x="385" y="698" type="line"/>
      <point x="141" y="698" type="line"/>
      <point x="126" y="638" type="line"/>
      <point x="189" y="638" type="line"/>
      <point x="44" y="60" type="line"/>
      <point x="-18" y="60" type="line"/>
    </contour>
    <contour>
      <point x="284.0" y="0.0" type="move" name="bottom"/>
    </contour>
    <contour>
      <point x="485.0" y="698.0" type="move" name="top"/>
    </contour>
  </outline>
</glyph>
<glyph name="O" format="1">
  <advance width="705"/>
  <unicode hex="004F"/>
  <outline>
    <contour>
      <point x="308" y="56" type="curve" name="hr00"/>
      <point x="243" y="56"/>
      <point x="206" y="101"/>
      <point x="206" y="160" type="curve" smooth="yes"/>
      <point x="206" y="213"/>
      <point x="218" y="248"/>
      <point x="281" y="500" type="curve" smooth="yes"/>
      <point x="302" y="584"/>
      <point x="356" y="642"/>
      <point x="433" y="642" type="curve" smooth="yes"/>
      <point x="498" y="642"/>
      <point x="535" y="597"/>
      <point x="535" y="538" type="curve" smooth="yes"/>
      <point x="535" y="484"/>
      <point x="523" y="450"/>
      <point x="460" y="198" type="curve" smooth="yes"/>
      <point x="439" y="114"/>
      <point x="385" y="56"/>
    </contour>
    <contour>
      <point x="294" y="-12" type="curve" smooth="yes"/>
      <point x="551" y="-12"/>
      <point x="694" y="243"/>
      <point x="694" y="450" type="curve" smooth="yes"/>
      <point x="694" y="609"/>
      <point x="608" y="710"/>
      <point x="447" y="710" type="curve" smooth="yes"/>
      <point x="190" y="710"/>
      <point x="47" y="455"/>
      <point x="47" y="248" type="curve" smooth="yes"/>
      <point x="47" y="89"/>
      <point x="133" y="-12"/>
    </contour>
    <contour>
      <point x="296" y="0" type="move" name="bottom"/>
    </contour>
    <contour>
      <point x="444" y="698" type="move" name="top"/>
    </contour>
  </outline>
</glyph>
<glyph name="P" format="1">
  <advance width="617"/>
  <unicode hex="0050"/>
  <outline>
    <contour>
      <point x="-33" y="0" type="line" name="hr00"/>
      <point x="273" y="0" type="line"/>
      <point x="288" y="60" type="line"/>
      <point x="198" y="60" type="line"/>
      <point x="261" y="312" type="line"/>
      <point x="405" y="312" type="line" smooth="yes"/>
      <point x="594" y="312"/>
      <point x="664" y="451"/>
      <point x="664" y="566" type="curve" smooth="yes"/>
      <point x="664" y="661"/>
      <point x="594" y="698"/>
      <point x="492" y="698" type="curve" smooth="yes"/>
      <point x="141" y="698" type="line"/>
      <point x="126" y="638" type="line"/>
      <point x="189" y="638" type="line"/>
      <point x="45" y="60" type="line"/>
      <point x="-18" y="60" type="line"/>
    </contour>
    <contour>
      <point x="341" y="634" type="line"/>
      <point x="431" y="634" type="line" smooth="yes"/>
      <point x="484" y="634"/>
      <point x="510" y="609"/>
      <point x="510" y="570" type="curve" smooth="yes"/>
      <point x="510" y="552"/>
      <point x="498" y="504"/>
      <point x="493" y="484" type="curve" smooth="yes"/>
      <point x="475" y="412"/>
      <point x="432" y="376"/>
      <point x="368" y="376" type="curve" smooth="yes"/>
      <point x="277" y="376" type="line"/>
    </contour>
    <contour>
      <point x="111.0" y="0.0" type="move" name="bottom"/>
    </contour>
    <contour>
      <point x="406.0" y="698.0" type="move" name="top"/>
    </contour>
  </outline>
</glyph>
<glyph name="Q" format="1">
  <advance width="700"/>
  <unicode hex="0051"/>
  <outline>
    <contour>
      <point x="370" y="-184" type="curve" smooth="yes" name="hr00"/>
      <point x="481" y="-184" type="line"/>
      <point x="496" y="-127" type="line"/>
      <point x="477" y="-127" type="line" smooth="yes"/>
      <point x="446" y="-127"/>
      <point x="417" y="-114"/>
      <point x="403" y="-86" type="curve" smooth="yes"/>
      <point x="364" y="-5" type="line"/>
      <point x="577" y="39"/>
      <point x="690" y="271"/>
      <point x="690" y="452" type="curve" smooth="yes"/>
      <point x="690" y="610"/>
      <point x="604" y="710"/>
      <point x="446" y="710" type="curve" smooth="yes"/>
      <point x="186" y="710"/>
      <point x="48" y="446"/>
      <point x="48" y="246" type="curve" smooth="yes"/>
      <point x="48" y="119"/>
      <point x="103" y="30"/>
      <point x="207" y="-1" type="curve"/>
      <point x="243" y="-93" type="line" smooth="yes"/>
      <point x="269" y="-158"/>
      <point x="302" y="-184"/>
    </contour>
    <contour>
      <point x="306" y="53" type="curve" smooth="yes"/>
      <point x="235" y="53"/>
      <point x="197" y="102"/>
      <point x="197" y="165" type="curve" smooth="yes"/>
      <point x="197" y="218"/>
      <point x="209" y="255"/>
      <point x="267" y="486" type="curve" smooth="yes"/>
      <point x="290" y="579"/>
      <point x="348" y="645"/>
      <point x="432" y="645" type="curve" smooth="yes"/>
      <point x="503" y="645"/>
      <point x="541" y="596"/>
      <point x="541" y="533" type="curve" smooth="yes"/>
      <point x="541" y="480"/>
      <point x="529" y="443"/>
      <point x="471" y="212" type="curve" smooth="yes"/>
      <point x="448" y="119"/>
      <point x="390" y="53"/>
    </contour>
    <contour>
      <point x="443.0" y="698.0" type="move" name="top"/>
    </contour>
  </outline>
</glyph>
<glyph name="R" format="1">
  <advance width="673"/>
  <unicode hex="0052"/>
  <outline>
    <contour>
      <point x="-33" y="0" type="line" name="hr00"/>
      <point x="246" y="0" type="line"/>
      <point x="261" y="60" type="line"/>
      <point x="198" y="60" type="line"/>
      <point x="262" y="316" type="line"/>
      <point x="330" y="316" type="line"/>
      <point x="375" y="97" type="line" smooth="yes"/>
      <point x="390" y="26"/>
      <point x="421" y="0"/>
      <point x="508" y="0" type="curve" smooth="yes"/>
      <point x="601" y="0" type="line"/>
      <point x="615" y="60" type="line"/>
      <point x="609" y="60" type="line" smooth="yes"/>
      <point x="569" y="60"/>
      <point x="543" y="77"/>
      <point x="531" y="121" type="curve" smooth="yes"/>
      <point x="471" y="327" type="line"/>
      <point x="590" y="352"/>
      <point x="664" y="443"/>
      <point x="664" y="566" type="curve" smooth="yes"/>
      <point x="664" y="661"/>
      <point x="594" y="698"/>
      <point x="492" y="698" type="curve" smooth="yes"/>
      <point x="141" y="698" type="line"/>
      <point x="126" y="638" type="line"/>
      <point x="189" y="638" type="line"/>
      <point x="45" y="60" type="line"/>
      <point x="-18" y="60" type="line"/>
    </contour>
    <contour>
      <point x="341" y="634" type="line"/>
      <point x="431" y="634" type="line" smooth="yes"/>
      <point x="484" y="634"/>
      <point x="510" y="609"/>
      <point x="510" y="570" type="curve" smooth="yes"/>
      <point x="510" y="552"/>
      <point x="498" y="505"/>
      <point x="493" y="484" type="curve" smooth="yes"/>
      <point x="475" y="412"/>
      <point x="432" y="376"/>
      <point x="367" y="376" type="curve" smooth="yes"/>
      <point x="277" y="376" type="line"/>
    </contour>
    <contour>
      <point x="314.0" y="0.0" type="move" name="bottom"/>
    </contour>
    <contour>
      <point x="406.0" y="698.0" type="move" name="top"/>
    </contour>
  </outline>
</glyph>
<glyph name="S" format="1">
  <advance width="575"/>
  <unicode hex="0053"/>
  <outline>
    <contour>
      <point x="243" y="-12" type="curve" smooth="yes" name="hr00"/>
      <point x="418" y="-12"/>
      <point x="524" y="101"/>
      <point x="524" y="246" type="curve" smooth="yes"/>
      <point x="524" y="331"/>
      <point x="479" y="386"/>
      <point x="366" y="418" type="curve" smooth="yes"/>
      <point x="328" y="429" type="line" smooth="yes"/>
      <point x="245" y="453"/>
      <point x="229" y="482"/>
      <point x="229" y="525" type="curve" smooth="yes"/>
      <point x="229" y="584"/>
      <point x="281" y="643"/>
      <point x="371" y="643" type="curve" smooth="yes"/>
      <point x="440" y="643"/>
      <point x="483" y="619"/>
      <point x="483" y="569" type="curve" smooth="yes"/>
      <point x="483" y="561"/>
      <point x="482" y="554"/>
      <point x="479" y="541" type="curve" smooth="yes"/>
      <point x="467" y="494" type="line"/>
      <point x="577" y="494" type="line"/>
      <point x="628" y="698" type="line"/>
      <point x="518" y="698" type="line"/>
      <point x="504" y="641" type="line"/>
      <point x="493" y="641" type="line"/>
      <point x="489" y="675"/>
      <point x="449" y="710"/>
      <point x="372" y="710" type="curve" smooth="yes"/>
      <point x="209" y="710"/>
      <point x="105" y="601"/>
      <point x="105" y="464" type="curve" smooth="yes"/>
      <point x="105" y="373"/>
      <point x="157" y="316"/>
      <point x="266" y="285" type="curve" smooth="yes"/>
      <point x="305" y="274" type="line" smooth="yes"/>
      <point x="373" y="255"/>
      <point x="394" y="230"/>
      <point x="394" y="188" type="curve" smooth="yes"/>
      <point x="394" y="118"/>
      <point x="337" y="55"/>
      <point x="236" y="55" type="curve" smooth="yes"/>
      <point x="165" y="55"/>
      <point x="122" y="81"/>
      <point x="122" y="129" type="curve" smooth="yes"/>
      <point x="122" y="137"/>
      <point x="123" y="144"/>
      <point x="126" y="157" type="curve" smooth="yes"/>
      <point x="138" y="204" type="line"/>
      <point x="28" y="204" type="line"/>
      <point x="-23" y="0" type="line"/>
      <point x="87" y="0" type="line"/>
      <point x="101" y="57" type="line"/>
      <point x="113" y="57" type="line"/>
      <point x="122" y="17"/>
      <point x="166" y="-12"/>
    </contour>
    <contour>
      <point x="244.0" y="0.0" type="move" name="bottom"/>
    </contour>
    <contour>
      <point x="365.0" y="698.0" type="move" name="top"/>
    </contour>
  </outline>
</glyph>
<glyph name="T" format="1">
  <advance width="673"/>
  <unicode hex="0054"/>
  <outline>
    <contour>
      <point x="105" y="0" type="line" name="hr00"/>
      <point x="439" y="0" type="line"/>
      <point x="453" y="60" type="line"/>
      <point x="363" y="60" type="line"/>
      <point x="506" y="634" type="line"/>
      <point x="633" y="634" type="line"/>
      <point x="603" y="512" type="line"/>
      <point x="713" y="512" type="line"/>
      <point x="760" y="698" type="line"/>
      <point x="131" y="698" type="line"/>
      <point x="85" y="512" type="line"/>
      <point x="195" y="512" type="line"/>
      <point x="226" y="634" type="line"/>
      <point x="353" y="634" type="line"/>
      <point x="210" y="60" type="line"/>
      <point x="120" y="60" type="line"/>
    </contour>
    <contour>
      <point x="271.0" y="0.0" type="move" name="bottom"/>
    </contour>
    <contour>
      <point x="445.0" y="698.0" type="move" name="top"/>
    </contour>
  </outline>
</glyph>
<glyph name="U" format="1">
  <advance width="701"/>
  <unicode hex="0055"/>
  <outline>
    <contour>
      <point x="315" y="-12" type="curve" smooth="yes" name="hr00"/>
      <point x="476" y="-12"/>
      <point x="565" y="80"/>
      <point x="609" y="258" type="curve" smooth="yes"/>
      <point x="704" y="638" type="line"/>
      <point x="768" y="638" type="line"/>
      <point x="783" y="698" type="line"/>
      <point x="583" y="698" type="line"/>
      <point x="568" y="638" type="line"/>
      <point x="631" y="638" type="line"/>
      <point x="538" y="269" type="line" smooth="yes"/>
      <point x="501" y="123"/>
      <point x="444" y="60"/>
      <point x="341" y="60" type="curve" smooth="yes"/>
      <point x="265" y="60"/>
      <point x="230" y="94"/>
      <point x="230" y="157" type="curve" smooth="yes"/>
      <point x="230" y="184"/>
      <point x="235" y="215"/>
      <point x="244" y="249" type="curve" smooth="yes"/>
      <point x="341" y="638" type="line"/>
      <point x="404" y="638" type="line"/>
      <point x="419" y="698" type="line"/>
      <point x="140" y="698" type="line"/>
      <point x="125" y="638" type="line"/>
      <point x="188" y="638" type="line"/>
      <point x="101" y="288" type="line" smooth="yes"/>
      <point x="89" y="239"/>
      <point x="81" y="194"/>
      <point x="81" y="166" type="curve" smooth="yes"/>
      <point x="81" y="38"/>
      <point x="166" y="-12"/>
    </contour>
    <contour>
      <point x="316.0" y="0.0" type="move" name="bottom"/>
    </contour>
    <contour>
      <point x="407.0" y="0.0" type="move" name="bottomright"/>
    </contour>
    <contour>
      <point x="498.0" y="698.0" type="move" name="top"/>
    </contour>
  </outline>
</glyph>
<glyph name="V" format="1">
  <advance width="636"/>
  <unicode hex="0056"/>
  <outline>
    <contour>
      <point x="184" y="0" type="line" name="hr00"/>
      <point x="324" y="0" type="line"/>
      <point x="671" y="638" type="line"/>
      <point x="718" y="638" type="line"/>
      <point x="733" y="698" type="line"/>
      <point x="531" y="698" type="line"/>
      <point x="516" y="638" type="line"/>
      <point x="585" y="638" type="line"/>
      <point x="439" y="356" type="line"/>
      <point x="315" y="108" type="line"/>
      <point x="307" y="108" type="line"/>
      <point x="307" y="356" type="line"/>
      <point x="303" y="638" type="line"/>
      <point x="372" y="638" type="line"/>
      <point x="387" y="698" type="line"/>
      <point x="119" y="698" type="line"/>
      <point x="104" y="638" type="line"/>
      <point x="151" y="638" type="line"/>
    </contour>
    <contour>
      <point x="253.0" y="0.0" type="move" name="bottom"/>
    </contour>
    <contour>
      <point x="459.0" y="698.0" type="move" name="top"/>
    </contour>
  </outline>
</glyph>
<glyph name="W" format="1">
  <advance width="961"/>
  <unicode hex="0057"/>
  <outline>
    <contour>
      <point x="139" y="0" type="line" name="hr00"/>
      <point x="291" y="0" type="line"/>
      <point x="542" y="519" type="line"/>
      <point x="550" y="519" type="line"/>
      <point x="548" y="0" type="line"/>
      <point x="690" y="0" type="line"/>
      <point x="996" y="638" type="line"/>
      <point x="1043" y="638" type="line"/>
      <point x="1058" y="698" type="line"/>
      <point x="856" y="698" type="line"/>
      <point x="841" y="638" type="line"/>
      <point x="910" y="638" type="line"/>
      <point x="694" y="157" type="line"/>
      <point x="686" y="157" type="line"/>
      <point x="687" y="698" type="line"/>
      <point x="558" y="698" type="line"/>
      <point x="298" y="157" type="line"/>
      <point x="290" y="157" type="line"/>
      <point x="306" y="638" type="line"/>
      <point x="375" y="638" type="line"/>
      <point x="390" y="698" type="line"/>
      <point x="122" y="698" type="line"/>
      <point x="107" y="638" type="line"/>
      <point x="154" y="638" type="line"/>
    </contour>
    <contour>
      <point x="424.0" y="0.0" type="move" name="bottom"/>
    </contour>
    <contour>
      <point x="622.0" y="698.0" type="move" name="top"/>
    </contour>
  </outline>
</glyph>
<glyph name="X" format="1">
  <advance width="669"/>
  <unicode hex="0058"/>
  <outline>
    <contour>
      <point x="-38" y="0" type="line" name="hr00"/>
      <point x="165" y="0" type="line"/>
      <point x="180" y="60" type="line"/>
      <point x="123" y="60" type="line"/>
      <point x="300" y="274" type="line"/>
      <point x="310" y="274" type="line"/>
      <point x="380" y="60" type="line"/>
      <point x="323" y="60" type="line"/>
      <point x="308" y="0" type="line"/>
      <point x="575" y="0" type="line"/>
      <point x="590" y="60" type="line"/>
      <point x="537" y="60" type="line"/>
      <point x="428" y="374" type="line"/>
      <point x="667" y="638" type="line"/>
      <point x="720" y="638" type="line"/>
      <point x="735" y="698" type="line"/>
      <point x="531" y="698" type="line"/>
      <point x="516" y="638" type="line"/>
      <point x="573" y="638" type="line"/>
      <point x="412" y="440" type="line"/>
      <point x="402" y="440" type="line"/>
      <point x="339" y="638" type="line"/>
      <point x="396" y="638" type="line"/>
      <point x="411" y="698" type="line"/>
      <point x="144" y="698" type="line"/>
      <point x="129" y="638" type="line"/>
      <point x="182" y="638" type="line"/>
      <point x="283" y="339" type="line"/>
      <point x="30" y="60" type="line"/>
      <point x="-23" y="60" type="line"/>
    </contour>
    <contour>
      <point x="239.0" y="0.0" type="move" name="bottom"/>
    </contour>
    <contour>
      <point x="469.0" y="698.0" type="move" name="top"/>
    </contour>
  </outline>
</glyph>
<glyph name="Y" format="1">
  <advance width="645"/>
  <unicode hex="0059"/>
  <outline>
    <contour>
      <point x="100" y="0" type="line" name="hr00"/>
      <point x="413" y="0" type="line"/>
      <point x="428" y="60" type="line"/>
      <point x="348" y="60" type="line"/>
      <point x="409" y="303" type="line"/>
      <point x="673" y="638" type="line"/>
      <point x="720" y="638" type="line"/>
      <point x="735" y="698" type="line"/>
      <point x="528" y="698" type="line"/>
      <point x="513" y="638" type="line"/>
      <point x="582" y="638" type="line"/>
      <point x="386" y="371" type="line"/>
      <point x="377" y="371" type="line"/>
      <point x="312" y="638" type="line"/>
      <point x="381" y="638" type="line"/>
      <point x="396" y="698" type="line"/>
      <point x="123" y="698" type="line"/>
      <point x="108" y="638" type="line"/>
      <point x="155" y="638" type="line"/>
      <point x="250" y="280" type="line"/>
      <point x="195" y="60" type="line"/>
      <point x="115" y="60" type="line"/>
    </contour>
    <contour>
      <point x="259.0" y="0.0" type="move" name="bottom"/>
    </contour>
    <contour>
      <point x="461.0" y="698.0" type="move" name="top"/>
    </contour>
  </outline>
</glyph>
<glyph name="Z" format="1">
  <advance width="584"/>
  <unicode hex="005A"/>
  <outline>
    <contour>
      <point x="-34" y="0" type="line" name="hr00"/>
      <point x="489" y="0" type="line"/>
      <point x="540" y="206" type="line"/>
      <point x="430" y="206" type="line"/>
      <point x="395" y="64" type="line"/>
      <point x="160" y="64" type="line"/>
      <point x="637" y="634" type="line"/>
      <point x="653" y="698" type="line"/>
      <point x="153" y="698" type="line"/>
      <point x="107" y="512" type="line"/>
      <point x="217" y="512" type="line"/>
      <point x="248" y="634" type="line"/>
      <point x="462" y="634" type="line"/>
      <point x="-19" y="64" type="line"/>
    </contour>
    <contour>
      <point x="237.0" y="0.0" type="move" name="bottom"/>
    </contour>
    <contour>
      <point x="396.0" y="698.0" type="move" name="top"/>
    </contour>
  </outline>
</glyph>
<glyph name="bracketleft" format="1">
  <advance width="330"/>
  <unicode hex="005B"/>
  <outline>
    <contour>
      <point x="-35" y="-138" type="line" name="hr00"/>
      <point x="201" y="-138" type="line"/>
      <point x="217" y="-79" type="line"/>
      <point x="113" y="-79" type="line"/>
      <point x="308" y="701" type="line"/>
      <point x="412" y="701" type="line"/>
      <point x="427" y="760" type="line"/>
      <point x="191" y="760" type="line"/>
    </contour>
  </outline>
</glyph>
<glyph name="backslash" format="1">
  <advance width="409"/>
  <unicode hex="005C"/>
  <outline>
    <contour>
      <point x="205" y="-143" type="line" name="hr00"/>
      <point x="295" y="-143" type="line"/>
      <point x="246" y="748" type="line"/>
      <point x="156" y="748" type="line"/>
    </contour>
  </outline>
</glyph>
<glyph name="bracketright" format="1">
  <advance width="330"/>
  <unicode hex="005D"/>
  <outline>
    <contour>
      <point x="-72" y="-138" type="line" name="hr00"/>
      <point x="164" y="-138" type="line"/>
      <point x="390" y="760" type="line"/>
      <point x="154" y="760" type="line"/>
      <point x="138" y="701" type="line"/>
      <point x="242" y="701" type="line"/>
      <point x="47" y="-79" type="line"/>
      <point x="-57" y="-79" type="line"/>
    </contour>
  </outline>
</glyph>
<glyph name="asciicircum" format="1">
  <advance width="550"/>
  <unicode hex="005E"/>
  <outline>
    <contour>
      <point x="146" y="307" type="line" name="hr00"/>
      <point x="360" y="605" type="line"/>
      <point x="368" y="605" type="line"/>
      <point x="437" y="307" type="line"/>
      <point x="516" y="340" type="line"/>
      <point x="431" y="698" type="line"/>
      <point x="332" y="698" type="line"/>
      <point x="79" y="346" type="line"/>
    </contour>
  </outline>
</glyph>
<glyph name="underscore" format="1">
  <advance width="521"/>
  <unicode hex="005F"/>
  <outline>
    <contour>
      <point x="-71" y="-168" type="line" name="hr00"/>
      <point x="377" y="-168" type="line"/>
      <point x="396" y="-90" type="line"/>
      <point x="-52" y="-90" type="line"/>
    </contour>
  </outline>
</glyph>
<glyph name="grave" format="1">
  <advance width="600"/>
  <unicode hex="0060"/>
  <outline>
    <contour>
      <point x="304" y="582" type="line" name="hr00"/>
      <point x="342" y="594" type="line"/>
      <point x="326" y="802" type="line"/>
      <point x="203" y="754" type="line"/>
    </contour>
    <contour>
      <point x="300.0" y="540.0" type="move" name="_top"/>
    </contour>
  </outline>
</glyph>
<glyph name="a" format="1">
  <advance width="592"/>
  <unicode hex="0061"/>
  <outline>
    <contour>
      <point x="143" y="-12" type="curve" smooth="yes" name="hr00"/>
      <point x="234" y="-12"/>
      <point x="286" y="61"/>
      <point x="324" y="144" type="curve"/>
      <point x="336" y="142" type="line"/>
      <point x="332" y="126" type="line" smooth="yes"/>
      <point x="328" y="111"/>
      <point x="323" y="87"/>
      <point x="323" y="67" type="curve" smooth="yes"/>
      <point x="323" y="29"/>
      <point x="342" y="-12"/>
      <point x="408" y="-12" type="curve" smooth="yes"/>
      <point x="450" y="-12"/>
      <point x="491" y="14"/>
      <point x="532" y="76" type="curve" smooth="yes"/>
      <point x="588" y="161" type="line"/>
      <point x="552" y="182" type="line"/>
      <point x="462" y="68" type="line"/>
      <point x="444" y="76" type="line"/>
      <point x="556" y="524" type="line"/>
      <point x="485" y="524" type="line"/>
      <point x="420" y="432" type="line"/>
      <point x="408" y="432" type="line"/>
      <point x="395" y="508"/>
      <point x="349" y="536"/>
      <point x="291" y="536" type="curve" smooth="yes"/>
      <point x="128" y="536"/>
      <point x="27" y="314"/>
      <point x="27" y="145" type="curve" smooth="yes"/>
      <point x="27" y="48"/>
      <point x="60" y="-12"/>
    </contour>
    <contour>
      <point x="206" y="80" type="curve" smooth="yes"/>
      <point x="183" y="80"/>
      <point x="176" y="100"/>
      <point x="176" y="131" type="curve" smooth="yes"/>
      <point x="176" y="173"/>
      <point x="189" y="244"/>
      <point x="203" y="294" type="curve" smooth="yes"/>
      <point x="236" y="412"/>
      <point x="285" y="461"/>
      <point x="332" y="461" type="curve" smooth="yes"/>
      <point x="378" y="461"/>
      <point x="387" y="421"/>
      <point x="372" y="357" type="curve" smooth="yes"/>
      <point x="365" y="328" type="line" smooth="yes"/>
      <point x="345" y="238"/>
      <point x="271" y="80"/>
    </contour>
    <contour>
      <point x="228.0" y="0.0" type="move" name="bottom"/>
    </contour>
    <contour>
      <point x="455.0" y="0.0" type="move" name="bottomright"/>
    </contour>
    <contour>
      <point x="325.0" y="540.0" type="move" name="top"/>
    </contour>
  </outline>
</glyph>
<glyph name="b" format="1">
  <advance width="567"/>
  <unicode hex="0062"/>
  <outline>
    <contour>
      <point x="275" y="-12" type="curve" smooth="yes" name="hr00"/>
      <point x="438" y="-12"/>
      <point x="539" y="209"/>
      <point x="539" y="379" type="curve" smooth="yes"/>
      <point x="539" y="476"/>
      <point x="506" y="536"/>
      <point x="423" y="536" type="curve" smooth="yes"/>
      <point x="331" y="536"/>
      <point x="280" y="462"/>
      <point x="242" y="379" type="curve"/>
      <point x="230" y="383" type="line"/>
      <point x="344" y="760" type="line"/>
      <point x="107" y="715" type="line"/>
      <point x="92" y="656" type="line"/>
      <point x="173" y="656" type="line"/>
      <point x="9" y="0" type="line"/>
      <point x="80" y="0" type="line"/>
      <point x="146" y="92" type="line"/>
      <point x="158" y="92" type="line"/>
      <point x="171" y="16"/>
      <point x="217" y="-12"/>
    </contour>
    <contour>
      <point x="234" y="63" type="curve" smooth="yes"/>
      <point x="188" y="63"/>
      <point x="179" y="103"/>
      <point x="194" y="167" type="curve" smooth="yes"/>
      <point x="201" y="196" type="line" smooth="yes"/>
      <point x="221" y="286"/>
      <point x="295" y="444"/>
      <point x="360" y="444" type="curve" smooth="yes"/>
      <point x="383" y="444"/>
      <point x="390" y="424"/>
      <point x="390" y="393" type="curve" smooth="yes"/>
      <point x="390" y="351"/>
      <point x="377" y="280"/>
      <point x="363" y="230" type="curve" smooth="yes"/>
      <point x="330" y="112"/>
      <point x="281" y="63"/>
    </contour>
    <contour>
      <point x="260.0" y="0.0" type="move" name="bottom"/>
    </contour>
  </outline>
</glyph>
<glyph name="c" format="1">
  <advance width="458"/>
  <unicode hex="0063"/>
  <outline>
    <contour>
      <point x="186" y="-12" type="curve" smooth="yes" name="hr00"/>
      <point x="309" y="-12"/>
      <point x="370" y="63"/>
      <point x="431" y="193" type="curve"/>
      <point x="392" y="210" type="line"/>
      <point x="345" y="119"/>
      <point x="300" y="67"/>
      <point x="240" y="67" type="curve" smooth="yes"/>
      <point x="201" y="67"/>
      <point x="179" y="89"/>
      <point x="179" y="146" type="curve" smooth="yes"/>
      <point x="179" y="184"/>
      <point x="188" y="243"/>
      <point x="208" y="316" type="curve" smooth="yes"/>
      <point x="246" y="457"/>
      <point x="281" y="488"/>
      <point x="332" y="488" type="curve" smooth="yes"/>
      <point x="355" y="488"/>
      <point x="378" y="482"/>
      <point x="394" y="470" type="curve"/>
      <point x="394" y="460" type="line"/>
      <point x="339" y="455"/>
      <point x="311" y="415"/>
      <point x="311" y="380" type="curve" smooth="yes"/>
      <point x="311" y="348"/>
      <point x="332" y="315"/>
      <point x="372" y="315" type="curve" smooth="yes"/>
      <point x="428" y="315"/>
      <point x="461" y="364"/>
      <point x="461" y="419" type="curve" smooth="yes"/>
      <point x="461" y="486"/>
      <point x="406" y="536"/>
      <point x="308" y="536" type="curve" smooth="yes"/>
      <point x="120" y="536"/>
      <point x="29" y="322"/>
      <point x="29" y="162" type="curve" smooth="yes"/>
      <point x="29" y="54"/>
      <point x="79" y="-12"/>
    </contour>
    <contour>
      <point x="194.0" y="0.0" type="move" name="bottom"/>
    </contour>
    <contour>
      <point x="310.0" y="540.0" type="move" name="top"/>
    </contour>
  </outline>
</glyph>
<glyph name="d" format="1">
  <advance width="589"/>
  <unicode hex="0064"/>
  <outline>
    <contour>
      <point x="143" y="-12" type="curve" smooth="yes" name="hr00"/>
      <point x="234" y="-12"/>
      <point x="286" y="61"/>
      <point x="324" y="144" type="curve"/>
      <point x="336" y="142" type="line"/>
      <point x="332" y="126" type="line" smooth="yes"/>
      <point x="328" y="111"/>
      <point x="323" y="87"/>
      <point x="323" y="67" type="curve" smooth="yes"/>
      <point x="323" y="29"/>
      <point x="343" y="-12"/>
      <point x="408" y="-12" type="curve" smooth="yes"/>
      <point x="450" y="-12"/>
      <point x="491" y="14"/>
      <point x="532" y="76" type="curve" smooth="yes"/>
      <point x="588" y="161" type="line"/>
      <point x="552" y="182" type="line"/>
      <point x="462" y="68" type="line"/>
      <point x="444" y="76" type="line"/>
      <point x="615" y="760" type="line"/>
      <point x="378" y="715" type="line"/>
      <point x="363" y="656" type="line"/>
      <point x="444" y="656" type="line"/>
      <point x="402" y="458" type="line"/>
      <point x="390" y="458" type="line"/>
      <point x="378" y="508"/>
      <point x="345" y="536"/>
      <point x="288" y="536" type="curve" smooth="yes"/>
      <point x="130" y="536"/>
      <point x="27" y="314"/>
      <point x="27" y="145" type="curve" smooth="yes"/>
      <point x="27" y="48"/>
      <point x="60" y="-12"/>
    </contour>
    <contour>
      <point x="206" y="80" type="curve" smooth="yes"/>
      <point x="183" y="80"/>
      <point x="176" y="100"/>
      <point x="176" y="131" type="curve" smooth="yes"/>
      <point x="176" y="173"/>
      <point x="189" y="244"/>
      <point x="203" y="294" type="curve" smooth="yes"/>
      <point x="236" y="412"/>
      <point x="285" y="461"/>
      <point x="332" y="461" type="curve" smooth="yes"/>
      <point x="378" y="461"/>
      <point x="387" y="421"/>
      <point x="372" y="357" type="curve" smooth="yes"/>
      <point x="365" y="328" type="line" smooth="yes"/>
      <point x="345" y="239"/>
      <point x="271" y="80"/>
    </contour>
    <contour>
      <point x="228.0" y="0.0" type="move" name="bottom"/>
    </contour>
    <contour>
      <point x="625.0" y="758.0" type="move" name="topright"/>
    </contour>
  </outline>
</glyph>
<glyph name="e" format="1">
  <advance width="479"/>
  <unicode hex="0065"/>
  <outline>
    <contour>
      <point x="186" y="-12" type="curve" smooth="yes" name="hr00"/>
      <point x="310" y="-12"/>
      <point x="375" y="65"/>
      <point x="435" y="193" type="curve"/>
      <point x="396" y="210" type="line"/>
      <point x="351" y="120"/>
      <point x="301" y="67"/>
      <point x="240" y="67" type="curve" smooth="yes"/>
      <point x="201" y="67"/>
      <point x="179" y="89"/>
      <point x="179" y="146" type="curve" smooth="yes"/>
      <point x="179" y="174"/>
      <point x="183" y="212"/>
      <point x="193" y="258" type="curve"/>
      <point x="430" y="272"/>
      <point x="482" y="365"/>
      <point x="482" y="427" type="curve" smooth="yes"/>
      <point x="482" y="504"/>
      <point x="415" y="536"/>
      <point x="327" y="536" type="curve" smooth="yes"/>
      <point x="119" y="536"/>
      <point x="29" y="322"/>
      <point x="29" y="164" type="curve" smooth="yes"/>
      <point x="29" y="54"/>
      <point x="79" y="-12"/>
    </contour>
    <contour>
      <point x="203" y="299" type="curve"/>
      <point x="241" y="437"/>
      <point x="265" y="483"/>
      <point x="320" y="483" type="curve" smooth="yes"/>
      <point x="348" y="483"/>
      <point x="362" y="466"/>
      <point x="362" y="438" type="curve" smooth="yes"/>
      <point x="362" y="375"/>
      <point x="328" y="317"/>
    </contour>
    <contour>
      <point x="201.0" y="0.0" type="move" name="bottom"/>
    </contour>
    <contour>
      <point x="263.0" y="0.0" type="move" name="bottomright"/>
    </contour>
    <contour>
      <point x="329.0" y="540.0" type="move" name="top"/>
    </contour>
  </outline>
</glyph>
<glyph name="f" format="1">
  <advance width="361"/>
  <unicode hex="0066"/>
  <outline>
    <contour>
      <point x="-62" y="-212" type="curve" smooth="yes" name="hr00"/>
      <point x="41" y="-212"/>
      <point x="135" y="-156"/>
      <point x="169" y="-22" type="curve" smooth="yes"/>
      <point x="291" y="461" type="line"/>
      <point x="397" y="461" type="line"/>
      <point x="413" y="524" type="line"/>
      <point x="306" y="524" type="line"/>
      <point x="336" y="643" type="line" smooth="yes"/>
      <point x="351" y="705"/>
      <point x="381" y="726"/>
      <point x="425" y="726" type="curve"/>
      <point x="434" y="717" type="line"/>
      <point x="413" y="707"/>
      <point x="393" y="686"/>
      <point x="393" y="656" type="curve" smooth="yes"/>
      <point x="393" y="623"/>
      <point x="417" y="602"/>
      <point x="453" y="602" type="curve" smooth="yes"/>
      <point x="499" y="602"/>
      <point x="526" y="637"/>
      <point x="526" y="675" type="curve" smooth="yes"/>
      <point x="526" y="723"/>
      <point x="484" y="760"/>
      <point x="406" y="760" type="curve" smooth="yes"/>
      <point x="302" y="760"/>
      <point x="206" y="705"/>
      <point x="174" y="570" type="curve" smooth="yes"/>
      <point x="163" y="524" type="line"/>
      <point x="78" y="524" type="line"/>
      <point x="62" y="461" type="line"/>
      <point x="146" y="461" type="line"/>
      <point x="7" y="-95" type="line" smooth="yes"/>
      <point x="-9" y="-157"/>
      <point x="-38" y="-178"/>
      <point x="-82" y="-178" type="curve"/>
      <point x="-90" y="-169" type="line"/>
      <point x="-69" y="-158"/>
      <point x="-50" y="-141"/>
      <point x="-50" y="-114" type="curve" smooth="yes"/>
      <point x="-50" y="-82"/>
      <point x="-74" y="-58"/>
      <point x="-110" y="-58" type="curve" smooth="yes"/>
      <point x="-152" y="-58"/>
      <point x="-180" y="-92"/>
      <point x="-180" y="-127" type="curve" smooth="yes"/>
      <point x="-180" y="-176"/>
      <point x="-139" y="-212"/>
    </contour>
  </outline>
</glyph>
<glyph name="h" format="1">
  <advance width="608"/>
  <unicode hex="0068"/>
  <outline>
    <contour>
      <point x="407" y="-12" type="curve" smooth="yes"/>
      <point x="460" y="-12"/>
      <point x="505" y="13"/>
      <point x="547" y="79" type="curve" smooth="yes"/>
      <point x="601" y="164" type="line"/>
      <point x="563" y="186" type="line"/>
      <point x="477" y="72" type="line"/>
      <point x="459" y="80" type="line"/>
      <point x="535" y="344" type="line" smooth="yes"/>
      <point x="544" y="375"/>
      <point x="549" y="404"/>
      <point x="549" y="429" type="curve" smooth="yes" name="hr01"/>
      <point x="549" y="494"/>
      <point x="517" y="537"/>
      <point x="444" y="537" type="curve" smooth="yes"/>
      <point x="352" y="537"/>
      <point x="304" y="469"/>
      <point x="255" y="379" type="curve"/>
      <point x="243" y="383" type="line"/>
      <point x="356" y="770" type="line"/>
      <point x="110" y="724" type="line"/>
      <point x="94" y="661" type="line"/>
      <point x="174" y="661" type="line"/>
      <point x="9" y="0" type="line"/>
      <point x="163" y="0" type="line"/>
      <point x="194" y="124" type="line" smooth="yes"/>
      <point x="242" y="317"/>
      <point x="318" y="441"/>
      <point x="372" y="441" type="curve" smooth="yes"/>
      <point x="387" y="441"/>
      <point x="394" y="431"/>
      <point x="394" y="416" type="curve" smooth="yes"/>
      <point x="394" y="410"/>
      <point x="393" y="403"/>
      <point x="391" y="395" type="curve" smooth="yes"/>
      <point x="317" y="130" type="line" smooth="yes"/>
      <point x="313" y="114"/>
      <point x="308" y="90"/>
      <point x="308" y="73" type="curve" smooth="yes" name="hr02"/>
      <point x="308" y="33"/>
      <point x="331" y="-12"/>
    </contour>
    <contour>
      <point x="240" y="0" type="move" name="bottom"/>
    </contour>
    <contour>
      <point x="241" y="718" type="move" name="top"/>
    </contour>
  </outline>
</glyph>
<glyph name="i" format="1">
  <advance width="330"/>
  <unicode hex="0069"/>
  <outline>
    <contour>
      <point x="138" y="-12" type="curve" smooth="yes" name="hr00"/>
      <point x="177" y="-12"/>
      <point x="225" y="5"/>
      <point x="272" y="76" type="curve" smooth="yes"/>
      <point x="328" y="161" type="line"/>
      <point x="292" y="182" type="line"/>
      <point x="202" y="68" type="line"/>
      <point x="184" y="76" type="line"/>
      <point x="299" y="536" type="line"/>
      <point x="62" y="491" type="line"/>
      <point x="47" y="431" type="line"/>
      <point x="128" y="431" type="line"/>
      <point x="52" y="126" type="line" smooth="yes"/>
      <point x="48" y="111"/>
      <point x="43" y="86"/>
      <point x="43" y="70" type="curve" smooth="yes"/>
      <point x="43" y="31"/>
      <point x="66" y="-12"/>
    </contour>
    <contour>
      <point x="271" y="766" type="curve" smooth="yes"/>
      <point x="225" y="766"/>
      <point x="188" y="740"/>
      <point x="178" y="698" type="curve" smooth="yes"/>
      <point x="176" y="690"/>
      <point x="175" y="680"/>
      <point x="175" y="672" type="curve" smooth="yes"/>
      <point x="175" y="637"/>
      <point x="202" y="608"/>
      <point x="251" y="608" type="curve" smooth="yes"/>
      <point x="297" y="608"/>
      <point x="334" y="634"/>
      <point x="344" y="676" type="curve" smooth="yes"/>
      <point x="346" y="684"/>
      <point x="347" y="694"/>
      <point x="347" y="702" type="curve" smooth="yes"/>
      <point x="347" y="737"/>
      <point x="320" y="766"/>
    </contour>
    <contour>
      <point x="130.0" y="0.0" type="move" name="bottom"/>
    </contour>
    <contour>
      <point x="190.0" y="0.0" type="move" name="bottomright"/>
    </contour>
  </outline>
</glyph>
<glyph name="j" format="1">
  <advance width="303"/>
  <unicode hex="006A"/>
  <outline>
    <contour>
      <point x="-64" y="-212" type="curve" smooth="yes" name="hr00"/>
      <point x="38" y="-212"/>
      <point x="122" y="-156"/>
      <point x="153" y="-33" type="curve" smooth="yes"/>
      <point x="297" y="536" type="line"/>
      <point x="60" y="491" type="line"/>
      <point x="45" y="431" type="line"/>
      <point x="126" y="431" type="line"/>
      <point x="-3" y="-82" type="line" smooth="yes"/>
      <point x="-20" y="-146"/>
      <point x="-40" y="-179"/>
      <point x="-80" y="-183" type="curve"/>
      <point x="-89" y="-173" type="line"/>
      <point x="-65" y="-160"/>
      <point x="-52" y="-138"/>
      <point x="-52" y="-117" type="curve" smooth="yes"/>
      <point x="-52" y="-84"/>
      <point x="-76" y="-63"/>
      <point x="-110" y="-63" type="curve" smooth="yes"/>
      <point x="-157" y="-63"/>
      <point x="-181" y="-100"/>
      <point x="-181" y="-138" type="curve" smooth="yes"/>
      <point x="-181" y="-184"/>
      <point x="-143" y="-212"/>
    </contour>
    <contour>
      <point x="249" y="608" type="curve" smooth="yes"/>
      <point x="295" y="608"/>
      <point x="332" y="634"/>
      <point x="342" y="676" type="curve" smooth="yes"/>
      <point x="344" y="684"/>
      <point x="345" y="694"/>
      <point x="345" y="702" type="curve" smooth="yes"/>
      <point x="345" y="737"/>
      <point x="318" y="766"/>
      <point x="269" y="766" type="curve" smooth="yes"/>
      <point x="223" y="766"/>
      <point x="186" y="740"/>
      <point x="176" y="698" type="curve" smooth="yes"/>
      <point x="174" y="690"/>
      <point x="173" y="680"/>
      <point x="173" y="672" type="curve" smooth="yes"/>
      <point x="173" y="637"/>
      <point x="200" y="608"/>
    </contour>
  </outline>
</glyph>
<glyph name="k" format="1">
  <advance width="588"/>
  <unicode hex="006B"/>
  <outline>
    <contour>
      <point x="401" y="-12" type="curve" smooth="yes" name="hr00"/>
      <point x="448" y="-12"/>
      <point x="481" y="4"/>
      <point x="528" y="76" type="curve" smooth="yes"/>
      <point x="584" y="161" type="line"/>
      <point x="548" y="182" type="line"/>
      <point x="462" y="73" type="line"/>
      <point x="444" y="73" type="line"/>
      <point x="388" y="249" type="line"/>
      <point x="467" y="289"/>
      <point x="539" y="353"/>
      <point x="539" y="437" type="curve" smooth="yes"/>
      <point x="539" y="492"/>
      <point x="509" y="536"/>
      <point x="438" y="536" type="curve" smooth="yes"/>
      <point x="346" y="536"/>
      <point x="295" y="464"/>
      <point x="245" y="371" type="curve"/>
      <point x="233" y="375" type="line"/>
      <point x="344" y="760" type="line"/>
      <point x="107" y="715" type="line"/>
      <point x="92" y="656" type="line"/>
      <point x="173" y="656" type="line"/>
      <point x="9" y="0" type="line"/>
      <point x="153" y="0" type="line"/>
      <point x="185" y="128" type="line" smooth="yes"/>
      <point x="232" y="314"/>
      <point x="308" y="444"/>
      <point x="368" y="444" type="curve" smooth="yes"/>
      <point x="388" y="444"/>
      <point x="398" y="432"/>
      <point x="398" y="410" type="curve" smooth="yes"/>
      <point x="398" y="367"/>
      <point x="363" y="286"/>
      <point x="248" y="218" type="curve"/>
      <point x="298" y="57" type="line" smooth="yes"/>
      <point x="316" y="3"/>
      <point x="352" y="-12"/>
    </contour>
    <contour>
      <point x="234.0" y="0.0" type="move" name="bottom"/>
    </contour>
  </outline>
</glyph>
<glyph name="l" format="1">
  <advance width="315"/>
  <unicode hex="006C"/>
  <outline>
    <contour>
      <point x="125" y="-12" type="curve" smooth="yes" name="hr00"/>
      <point x="164" y="-12"/>
      <point x="211" y="5"/>
      <point x="258" y="76" type="curve" smooth="yes"/>
      <point x="314" y="161" type="line"/>
      <point x="278" y="182" type="line"/>
      <point x="188" y="68" type="line"/>
      <point x="170" y="76" type="line"/>
      <point x="341" y="760" type="line"/>
      <point x="105" y="715" type="line"/>
      <point x="90" y="656" type="line"/>
      <point x="171" y="656" type="line"/>
      <point x="38" y="126" type="line" smooth="yes"/>
      <point x="34" y="111"/>
      <point x="29" y="86"/>
      <point x="29" y="70" type="curve" smooth="yes"/>
      <point x="29" y="30"/>
      <point x="53" y="-12"/>
    </contour>
    <contour>
      <point x="114.0" y="0.0" type="move" name="bottom"/>
    </contour>
    <contour>
      <point x="251.0" y="740.0" type="move" name="top"/>
    </contour>
    <contour>
      <point x="351.0" y="758.0" type="move" name="topright"/>
    </contour>
  </outline>
</glyph>
<glyph name="m" format="1">
  <advance width="887"/>
  <unicode hex="006D"/>
  <outline>
    <contour>
      <point x="689" y="-12" type="curve" smooth="yes" name="hr00"/>
      <point x="738" y="-12"/>
      <point x="781" y="12"/>
      <point x="824" y="76" type="curve" smooth="yes"/>
      <point x="880" y="161" type="line"/>
      <point x="844" y="182" type="line"/>
      <point x="754" y="68" type="line"/>
      <point x="736" y="76" type="line"/>
      <point x="814" y="351" type="line" smooth="yes"/>
      <point x="822" y="380"/>
      <point x="827" y="406"/>
      <point x="827" y="430" type="curve" smooth="yes"/>
      <point x="827" y="493"/>
      <point x="797" y="536"/>
      <point x="726" y="536" type="curve" smooth="yes"/>
      <point x="633" y="536"/>
      <point x="583" y="463"/>
      <point x="532" y="371" type="curve"/>
      <point x="520" y="375" type="line"/>
      <point x="523" y="391" type="line" smooth="yes"/>
      <point x="526" y="407"/>
      <point x="527" y="422"/>
      <point x="527" y="435" type="curve" smooth="yes"/>
      <point x="527" y="500"/>
      <point x="501" y="536"/>
      <point x="443" y="536" type="curve" smooth="yes"/>
      <point x="354" y="536"/>
      <point x="305" y="463"/>
      <point x="255" y="371" type="curve"/>
      <point x="243" y="375" type="line"/>
      <point x="283" y="536" type="line"/>
      <point x="61" y="491" type="line"/>
      <point x="46" y="431" type="line"/>
      <point x="127" y="431" type="line"/>
      <point x="19" y="0" type="line"/>
      <point x="163" y="0" type="line"/>
      <point x="195" y="128" type="line" smooth="yes"/>
      <point x="241" y="313"/>
      <point x="321" y="444"/>
      <point x="378" y="444" type="curve" smooth="yes"/>
      <point x="393" y="444"/>
      <point x="400" y="435"/>
      <point x="400" y="418" type="curve" smooth="yes"/>
      <point x="400" y="412"/>
      <point x="399" y="406"/>
      <point x="397" y="397" type="curve" smooth="yes"/>
      <point x="298" y="0" type="line"/>
      <point x="442" y="0" type="line"/>
      <point x="474" y="128" type="line" smooth="yes"/>
      <point x="521" y="316"/>
      <point x="603" y="444"/>
      <point x="660" y="444" type="curve" smooth="yes"/>
      <point x="675" y="444"/>
      <point x="682" y="434"/>
      <point x="682" y="418" type="curve" smooth="yes"/>
      <point x="682" y="412"/>
      <point x="681" y="405"/>
      <point x="679" y="397" type="curve" smooth="yes"/>
      <point x="603" y="125" type="line" smooth="yes"/>
      <point x="599" y="109"/>
      <point x="594" y="86"/>
      <point x="594" y="69" type="curve" smooth="yes"/>
      <point x="594" y="31"/>
      <point x="617" y="-12"/>
    </contour>
    <contour>
      <point x="370.0" y="0.0" type="move" name="bottom"/>
    </contour>
    <contour>
      <point x="493.0" y="540.0" type="move" name="top"/>
    </contour>
  </outline>
</glyph>
<glyph name="n" format="1">
  <advance width="609"/>
  <unicode hex="006E"/>
  <outline>
    <contour>
      <point x="410" y="-12" type="curve" smooth="yes" name="hr00"/>
      <point x="460" y="-12"/>
      <point x="504" y="12"/>
      <point x="546" y="76" type="curve" smooth="yes"/>
      <point x="602" y="161" type="line"/>
      <point x="566" y="182" type="line"/>
      <point x="476" y="68" type="line"/>
      <point x="458" y="76" type="line"/>
      <point x="536" y="351" type="line" smooth="yes"/>
      <point x="544" y="380"/>
      <point x="549" y="407"/>
      <point x="549" y="431" type="curve" smooth="yes"/>
      <point x="549" y="494"/>
      <point x="518" y="536"/>
      <point x="447" y="536" type="curve" smooth="yes"/>
      <point x="354" y="536"/>
      <point x="305" y="463"/>
      <point x="255" y="371" type="curve"/>
      <point x="243" y="375" type="line"/>
      <point x="283" y="536" type="line"/>
      <point x="61" y="491" type="line"/>
      <point x="46" y="431" type="line"/>
      <point x="127" y="431" type="line"/>
      <point x="19" y="0" type="line"/>
      <point x="163" y="0" type="line"/>
      <point x="195" y="128" type="line" smooth="yes"/>
      <point x="242" y="315"/>
      <point x="325" y="444"/>
      <point x="381" y="444" type="curve" smooth="yes"/>
      <point x="397" y="444"/>
      <point x="404" y="434"/>
      <point x="404" y="418" type="curve" smooth="yes"/>
      <point x="404" y="412"/>
      <point x="403" y="405"/>
      <point x="401" y="397" type="curve" smooth="yes"/>
      <point x="325" y="125" type="line" smooth="yes"/>
      <point x="321" y="109"/>
      <point x="316" y="86"/>
      <point x="316" y="69" type="curve" smooth="yes"/>
      <point x="316" y="31"/>
      <point x="339" y="-12"/>
    </contour>
    <contour>
      <point x="241.0" y="0.0" type="move" name="bottom"/>
    </contour>
    <contour>
      <point x="343.0" y="540.0" type="move" name="top"/>
    </contour>
  </outline>
</glyph>
<glyph name="o" format="1">
  <advance width="549"/>
  <unicode hex="006F"/>
  <outline>
    <contour>
      <point x="223" y="44" type="curve" smooth="yes" name="hr00"/>
      <point x="182" y="44"/>
      <point x="165" y="73"/>
      <point x="165" y="107" type="curve" smooth="yes"/>
      <point x="165" y="132"/>
      <point x="176" y="177"/>
      <point x="225" y="364" type="curve" smooth="yes"/>
      <point x="242" y="433"/>
      <point x="274" y="480"/>
      <point x="326" y="480" type="curve" smooth="yes"/>
      <point x="367" y="480"/>
      <point x="384" y="451"/>
      <point x="384" y="417" type="curve" smooth="yes"/>
      <point x="384" y="392"/>
      <point x="373" y="347"/>
      <point x="324" y="160" type="curve" smooth="yes"/>
      <point x="307" y="91"/>
      <point x="275" y="44"/>
    </contour>
    <contour>
      <point x="216" y="-12" type="curve" smooth="yes"/>
      <point x="407" y="-12"/>
      <point x="517" y="184"/>
      <point x="517" y="340" type="curve" smooth="yes"/>
      <point x="517" y="460"/>
      <point x="453" y="536"/>
      <point x="333" y="536" type="curve" smooth="yes"/>
      <point x="142" y="536"/>
      <point x="32" y="340"/>
      <point x="32" y="184" type="curve" smooth="yes"/>
      <point x="32" y="64"/>
      <point x="96" y="-12"/>
    </contour>
    <contour>
      <point x="213.0" y="0.0" type="move" name="bottom"/>
    </contour>
    <contour>
      <point x="337.0" y="540.0" type="move" name="top"/>
    </contour>
  </outline>
</glyph>
<glyph name="p" format="1">
  <advance width="577"/>
  <unicode hex="0070"/>
  <outline>
    <contour>
      <point x="-92" y="-200" type="line" name="hr00"/>
      <point x="202" y="-200" type="line"/>
      <point x="216" y="-141" type="line"/>
      <point x="128" y="-141" type="line"/>
      <point x="172" y="66" type="line"/>
      <point x="184" y="66" type="line"/>
      <point x="196" y="14"/>
      <point x="231" y="-12"/>
      <point x="286" y="-12" type="curve" smooth="yes"/>
      <point x="447" y="-12"/>
      <point x="549" y="209"/>
      <point x="549" y="379" type="curve" smooth="yes"/>
      <point x="549" y="476"/>
      <point x="516" y="536"/>
      <point x="432" y="536" type="curve" smooth="yes"/>
      <point x="340" y="536"/>
      <point x="290" y="461"/>
      <point x="252" y="379" type="curve"/>
      <point x="240" y="383" type="line"/>
      <point x="277" y="536" type="line"/>
      <point x="61" y="491" type="line"/>
      <point x="46" y="431" type="line"/>
      <point x="127" y="431" type="line"/>
      <point x="-16" y="-141" type="line"/>
      <point x="-78" y="-141" type="line"/>
    </contour>
    <contour>
      <point x="244" y="63" type="curve" smooth="yes"/>
      <point x="198" y="63"/>
      <point x="189" y="103"/>
      <point x="204" y="167" type="curve" smooth="yes"/>
      <point x="211" y="196" type="line" smooth="yes"/>
      <point x="231" y="286"/>
      <point x="305" y="444"/>
      <point x="370" y="444" type="curve" smooth="yes"/>
      <point x="393" y="444"/>
      <point x="400" y="424"/>
      <point x="400" y="393" type="curve" smooth="yes"/>
      <point x="400" y="351"/>
      <point x="387" y="280"/>
      <point x="373" y="230" type="curve" smooth="yes"/>
      <point x="340" y="112"/>
      <point x="291" y="63"/>
    </contour>
    <contour>
      <point x="349.0" y="540.0" type="move" name="top"/>
    </contour>
  </outline>
</glyph>
<glyph name="q" format="1">
  <advance width="568"/>
  <unicode hex="0071"/>
  <outline>
    <contour>
      <point x="146" y="-200" type="line" name="hr00"/>
      <point x="439" y="-200" type="line"/>
      <point x="453" y="-141" type="line"/>
      <point x="391" y="-141" type="line"/>
      <point x="557" y="524" type="line"/>
      <point x="486" y="524" type="line"/>
      <point x="420" y="432" type="line"/>
      <point x="408" y="432" type="line"/>
      <point x="395" y="508"/>
      <point x="349" y="536"/>
      <point x="291" y="536" type="curve" smooth="yes"/>
      <point x="128" y="536"/>
      <point x="27" y="315"/>
      <point x="27" y="145" type="curve" smooth="yes"/>
      <point x="27" y="48"/>
      <point x="60" y="-12"/>
      <point x="143" y="-12" type="curve" smooth="yes"/>
      <point x="235" y="-12"/>
      <point x="286" y="62"/>
      <point x="324" y="145" type="curve"/>
      <point x="336" y="141" type="line"/>
      <point x="248" y="-141" type="line"/>
      <point x="160" y="-141" type="line"/>
    </contour>
    <contour>
      <point x="206" y="80" type="curve" smooth="yes"/>
      <point x="183" y="80"/>
      <point x="176" y="100"/>
      <point x="176" y="131" type="curve" smooth="yes"/>
      <point x="176" y="173"/>
      <point x="189" y="244"/>
      <point x="203" y="294" type="curve" smooth="yes"/>
      <point x="236" y="412"/>
      <point x="285" y="461"/>
      <point x="332" y="461" type="curve" smooth="yes"/>
      <point x="378" y="461"/>
      <point x="387" y="421"/>
      <point x="372" y="357" type="curve" smooth="yes"/>
      <point x="365" y="328" type="line" smooth="yes"/>
      <point x="345" y="238"/>
      <point x="271" y="80"/>
    </contour>
    <contour>
      <point x="326.0" y="540.0" type="move" name="top"/>
    </contour>
  </outline>
</glyph>
<glyph name="r" format="1">
  <advance width="480"/>
  <unicode hex="0072"/>
  <outline>
    <contour>
      <point x="19" y="0" type="line" name="hr00"/>
      <point x="163" y="0" type="line"/>
      <point x="187" y="98" type="line" smooth="yes"/>
      <point x="210" y="191"/>
      <point x="237" y="275"/>
      <point x="272" y="345" type="curve" smooth="yes"/>
      <point x="311" y="424"/>
      <point x="346" y="476"/>
      <point x="371" y="482" type="curve"/>
      <point x="378" y="475" type="line"/>
      <point x="365" y="462"/>
      <point x="355" y="438"/>
      <point x="355" y="418" type="curve" smooth="yes"/>
      <point x="355" y="384"/>
      <point x="384" y="361"/>
      <point x="421" y="361" type="curve" smooth="yes"/>
      <point x="473" y="361"/>
      <point x="504" y="405"/>
      <point x="504" y="452" type="curve" smooth="yes"/>
      <point x="504" y="503"/>
      <point x="471" y="536"/>
      <point x="412" y="536" type="curve" smooth="yes"/>
      <point x="336" y="536"/>
      <point x="293" y="482"/>
      <point x="248" y="367" type="curve"/>
      <point x="236" y="371" type="line"/>
      <point x="277" y="536" type="line"/>
      <point x="61" y="491" type="line"/>
      <point x="46" y="431" type="line"/>
      <point x="127" y="431" type="line"/>
    </contour>
    <contour>
      <point x="92.0" y="0.0" type="move" name="bottom"/>
    </contour>
    <contour>
      <point x="295.0" y="540.0" type="move" name="top"/>
    </contour>
  </outline>
</glyph>
<glyph name="s" format="1">
  <advance width="422"/>
  <unicode hex="0073"/>
  <outline>
    <contour>
      <point x="110" y="-12" type="curve" smooth="yes" name="hr00"/>
      <point x="231" y="-12"/>
      <point x="351" y="46"/>
      <point x="351" y="168" type="curve" smooth="yes"/>
      <point x="351" y="219"/>
      <point x="325" y="251"/>
      <point x="303" y="276" type="curve" smooth="yes"/>
      <point x="263" y="322"/>
      <point x="213" y="352"/>
      <point x="213" y="406" type="curve" smooth="yes"/>
      <point x="213" y="455"/>
      <point x="252" y="495"/>
      <point x="312" y="508" type="curve"/>
      <point x="321" y="497" type="line"/>
      <point x="306" y="485"/>
      <point x="298" y="460"/>
      <point x="298" y="440" type="curve" smooth="yes"/>
      <point x="298" y="407"/>
      <point x="322" y="383"/>
      <point x="357" y="383" type="curve" smooth="yes"/>
      <point x="405" y="383"/>
      <point x="430" y="421"/>
      <point x="430" y="458" type="curve" smooth="yes"/>
      <point x="430" y="506"/>
      <point x="395" y="536"/>
      <point x="302" y="536" type="curve" smooth="yes"/>
      <point x="185" y="536"/>
      <point x="72" y="478"/>
      <point x="72" y="355" type="curve" smooth="yes"/>
      <point x="72" y="307"/>
      <point x="98" y="276"/>
      <point x="123" y="247" type="curve" smooth="yes"/>
      <point x="161" y="204"/>
      <point x="210" y="171"/>
      <point x="210" y="118" type="curve" smooth="yes"/>
      <point x="210" y="64"/>
      <point x="162" y="28"/>
      <point x="98" y="16" type="curve"/>
      <point x="89" y="27" type="line"/>
      <point x="104" y="39"/>
      <point x="112" y="64"/>
      <point x="112" y="84" type="curve" smooth="yes"/>
      <point x="112" y="117"/>
      <point x="88" y="141"/>
      <point x="53" y="141" type="curve" smooth="yes"/>
      <point x="5" y="141"/>
      <point x="-20" y="103"/>
      <point x="-20" y="66" type="curve" smooth="yes"/>
      <point x="-20" y="18"/>
      <point x="15" y="-12"/>
    </contour>
    <contour>
      <point x="128.0" y="0.0" type="move" name="bottom"/>
    </contour>
    <contour>
      <point x="290.0" y="540.0" type="move" name="top"/>
    </contour>
  </outline>
</glyph>
<glyph name="t" format="1">
  <advance width="391"/>
  <unicode hex="0074"/>
  <outline>
    <contour>
      <point x="152" y="-12" type="curve" smooth="yes" name="hr00"/>
      <point x="195" y="-12"/>
      <point x="233" y="1"/>
      <point x="291" y="67" type="curve" smooth="yes"/>
      <point x="372" y="159" type="line"/>
      <point x="338" y="186" type="line"/>
      <point x="227" y="76" type="line"/>
      <point x="207" y="88" type="line"/>
      <point x="299" y="459" type="line"/>
      <point x="410" y="459" type="line"/>
      <point x="426" y="525" type="line"/>
      <point x="315" y="525" type="line"/>
      <point x="352" y="670" type="line"/>
      <point x="275" y="670" type="line"/>
      <point x="210" y="577" type="line" smooth="yes"/>
      <point x="183" y="539"/>
      <point x="162" y="525"/>
      <point x="112" y="525" type="curve" smooth="yes"/>
      <point x="77" y="525" type="line"/>
      <point x="61" y="459" type="line"/>
      <point x="145" y="459" type="line"/>
      <point x="64" y="131" type="line" smooth="yes"/>
      <point x="60" y="116"/>
      <point x="55" y="91"/>
      <point x="55" y="72" type="curve" smooth="yes"/>
      <point x="55" y="33"/>
      <point x="75" y="-12"/>
    </contour>
    <contour>
      <point x="155" y="0" type="move" name="bottom"/>
    </contour>
    <contour>
      <point x="382" y="778" type="move" name="topright"/>
    </contour>
  </outline>
</glyph>
<glyph name="u" format="1">
  <advance width="607"/>
  <unicode hex="0075"/>
  <outline>
    <contour>
      <point x="143" y="-12" type="curve" smooth="yes" name="hr00"/>
      <point x="236" y="-12"/>
      <point x="285" y="61"/>
      <point x="335" y="153" type="curve"/>
      <point x="347" y="149" type="line"/>
      <point x="341" y="126" type="line" smooth="yes"/>
      <point x="337" y="111"/>
      <point x="332" y="87"/>
      <point x="332" y="67" type="curve" smooth="yes"/>
      <point x="332" y="30"/>
      <point x="351" y="-12"/>
      <point x="417" y="-12" type="curve" smooth="yes"/>
      <point x="454" y="-12"/>
      <point x="498" y="1"/>
      <point x="547" y="76" type="curve" smooth="yes"/>
      <point x="603" y="161" type="line"/>
      <point x="567" y="182" type="line"/>
      <point x="477" y="68" type="line"/>
      <point x="459" y="76" type="line"/>
      <point x="571" y="524" type="line"/>
      <point x="427" y="524" type="line"/>
      <point x="395" y="396" type="line" smooth="yes"/>
      <point x="348" y="208"/>
      <point x="265" y="80"/>
      <point x="209" y="80" type="curve" smooth="yes"/>
      <point x="193" y="80"/>
      <point x="186" y="90"/>
      <point x="186" y="105" type="curve" smooth="yes"/>
      <point x="186" y="111"/>
      <point x="187" y="118"/>
      <point x="189" y="126" type="curve" smooth="yes"/>
      <point x="303" y="536" type="line"/>
      <point x="61" y="491" type="line"/>
      <point x="46" y="431" type="line"/>
      <point x="128" y="431" type="line"/>
      <point x="54" y="173" type="line" smooth="yes"/>
      <point x="46" y="145"/>
      <point x="41" y="118"/>
      <point x="41" y="93" type="curve" smooth="yes"/>
      <point x="41" y="30"/>
      <point x="72" y="-12"/>
    </contour>
    <contour>
      <point x="231.0" y="0.0" type="move" name="bottom"/>
    </contour>
    <contour>
      <point x="468.0" y="0.0" type="move" name="bottomright"/>
    </contour>
    <contour>
      <point x="362.0" y="540.0" type="move" name="top"/>
    </contour>
  </outline>
</glyph>
<glyph name="v" format="1">
  <advance width="511"/>
  <unicode hex="0076"/>
  <outline>
    <contour>
      <point x="132" y="0" type="line" name="hr00"/>
      <point x="245" y="0" type="line"/>
      <point x="516" y="465" type="line"/>
      <point x="551" y="465" type="line"/>
      <point x="566" y="524" type="line"/>
      <point x="406" y="524" type="line"/>
      <point x="391" y="465" type="line"/>
      <point x="439" y="465" type="line"/>
      <point x="268" y="139" type="line"/>
      <point x="257" y="139" type="line"/>
      <point x="248" y="465" type="line"/>
      <point x="301" y="465" type="line"/>
      <point x="315" y="524" type="line"/>
      <point x="73" y="524" type="line"/>
      <point x="59" y="465" type="line"/>
      <point x="96" y="465" type="line"/>
    </contour>
    <contour>
      <point x="188.0" y="0.0" type="move" name="bottom"/>
    </contour>
    <contour>
      <point x="362.0" y="540.0" type="move" name="top"/>
    </contour>
  </outline>
</glyph>
<glyph name="w" format="1">
  <advance width="787"/>
  <unicode hex="0077"/>
  <outline>
    <contour>
      <point x="108" y="0" type="line" name="hr00"/>
      <point x="227" y="0" type="line"/>
      <point x="411" y="340" type="line"/>
      <point x="421" y="340" type="line"/>
      <point x="419" y="0" type="line"/>
      <point x="532" y="0" type="line"/>
      <point x="793" y="465" type="line"/>
      <point x="828" y="465" type="line"/>
      <point x="842" y="524" type="line"/>
      <point x="675" y="524" type="line"/>
      <point x="661" y="465" type="line"/>
      <point x="716" y="465" type="line"/>
      <point x="555" y="139" type="line"/>
      <point x="544" y="139" type="line"/>
      <point x="549" y="524" type="line"/>
      <point x="443" y="524" type="line"/>
      <point x="245" y="139" type="line"/>
      <point x="234" y="139" type="line"/>
      <point x="245" y="465" type="line"/>
      <point x="300" y="465" type="line"/>
      <point x="314" y="524" type="line"/>
      <point x="73" y="524" type="line"/>
      <point x="59" y="465" type="line"/>
      <point x="94" y="465" type="line"/>
    </contour>
    <contour>
      <point x="325.0" y="0.0" type="move" name="bottom"/>
    </contour>
    <contour>
      <point x="497.0" y="540.0" type="move" name="top"/>
    </contour>
  </outline>
</glyph>
<glyph name="x" format="1">
  <advance width="618"/>
  <unicode hex="0078"/>
  <outline>
    <contour>
      <point x="77" y="-12" type="curve" smooth="yes" name="hr00"/>
      <point x="110" y="-12"/>
      <point x="164" y="0"/>
      <point x="201" y="57" type="curve" smooth="yes"/>
      <point x="221" y="88"/>
      <point x="239" y="128"/>
      <point x="257" y="192" type="curve"/>
      <point x="263" y="192" type="line"/>
      <point x="278" y="82" type="line" smooth="yes"/>
      <point x="286" y="20"/>
      <point x="309" y="-12"/>
      <point x="367" y="-12" type="curve" smooth="yes"/>
      <point x="408" y="-12"/>
      <point x="457" y="1"/>
      <point x="510" y="77" type="curve" smooth="yes"/>
      <point x="554" y="139" type="line"/>
      <point x="521" y="163" type="line"/>
      <point x="444" y="75" type="line"/>
      <point x="428" y="75" type="line"/>
      <point x="376" y="273" type="line"/>
      <point x="417" y="385"/>
      <point x="467" y="476"/>
      <point x="500" y="485" type="curve"/>
      <point x="508" y="479" type="line"/>
      <point x="495" y="466"/>
      <point x="485" y="442"/>
      <point x="485" y="422" type="curve" smooth="yes"/>
      <point x="485" y="388"/>
      <point x="514" y="365"/>
      <point x="551" y="365" type="curve" smooth="yes"/>
      <point x="603" y="365"/>
      <point x="634" y="409"/>
      <point x="634" y="458" type="curve" smooth="yes"/>
      <point x="634" y="505"/>
      <point x="601" y="536"/>
      <point x="541" y="536" type="curve" smooth="yes"/>
      <point x="508" y="536"/>
      <point x="454" y="524"/>
      <point x="417" y="467" type="curve" smooth="yes"/>
      <point x="397" y="436"/>
      <point x="379" y="396"/>
      <point x="361" y="332" type="curve"/>
      <point x="355" y="332" type="line"/>
      <point x="340" y="442" type="line" smooth="yes"/>
      <point x="332" y="504"/>
      <point x="309" y="536"/>
      <point x="251" y="536" type="curve" smooth="yes"/>
      <point x="210" y="536"/>
      <point x="161" y="523"/>
      <point x="108" y="447" type="curve" smooth="yes"/>
      <point x="64" y="385" type="line"/>
      <point x="97" y="361" type="line"/>
      <point x="174" y="449" type="line"/>
      <point x="190" y="449" type="line"/>
      <point x="242" y="251" type="line"/>
      <point x="201" y="139"/>
      <point x="151" y="48"/>
      <point x="118" y="39" type="curve"/>
      <point x="110" y="45" type="line"/>
      <point x="123" y="58"/>
      <point x="133" y="82"/>
      <point x="133" y="102" type="curve" smooth="yes"/>
      <point x="133" y="136"/>
      <point x="104" y="159"/>
      <point x="67" y="159" type="curve" smooth="yes"/>
      <point x="15" y="159"/>
      <point x="-16" y="115"/>
      <point x="-16" y="66" type="curve" smooth="yes"/>
      <point x="-16" y="19"/>
      <point x="17" y="-12"/>
    </contour>
    <contour>
      <point x="228.0" y="0.0" type="move" name="bottom"/>
    </contour>
    <contour>
      <point x="396.0" y="540.0" type="move" name="top"/>
    </contour>
  </outline>
</glyph>
<glyph name="y" format="1">
  <advance width="512"/>
  <unicode hex="0079"/>
  <outline>
    <contour>
      <point x="20" y="-212" type="curve" smooth="yes" name="hr00"/>
      <point x="76" y="-212"/>
      <point x="137" y="-174"/>
      <point x="207" y="-60" type="curve" smooth="yes"/>
      <point x="524" y="465" type="line"/>
      <point x="559" y="465" type="line"/>
      <point x="574" y="524" type="line"/>
      <point x="416" y="524" type="line"/>
      <point x="402" y="465" type="line"/>
      <point x="448" y="465" type="line"/>
      <point x="270" y="146" type="line"/>
      <point x="259" y="146" type="line"/>
      <point x="240" y="465" type="line"/>
      <point x="291" y="465" type="line"/>
      <point x="305" y="524" type="line"/>
      <point x="65" y="524" type="line"/>
      <point x="51" y="465" type="line"/>
      <point x="90" y="465" type="line"/>
      <point x="153" y="-40" type="line"/>
      <point x="113" y="-119"/>
      <point x="78" y="-157"/>
      <point x="35" y="-172" type="curve"/>
      <point x="28" y="-166" type="line"/>
      <point x="41" y="-156"/>
      <point x="50" y="-133"/>
      <point x="50" y="-113" type="curve" smooth="yes"/>
      <point x="50" y="-80"/>
      <point x="26" y="-59"/>
      <point x="-9" y="-59" type="curve" smooth="yes"/>
      <point x="-57" y="-59"/>
      <point x="-83" y="-96"/>
      <point x="-83" y="-134" type="curve" smooth="yes"/>
      <point x="-83" y="-182"/>
      <point x="-41" y="-212"/>
    </contour>
    <contour>
      <point x="362.0" y="0.0" type="move" name="bottom"/>
    </contour>
    <contour>
      <point x="364.0" y="540.0" type="move" name="top"/>
    </contour>
  </outline>
</glyph>
<glyph name="z" format="1">
  <advance width="486"/>
  <unicode hex="007A"/>
  <outline>
    <contour>
      <point x="329" y="-12" type="curve" smooth="yes" name="hr00"/>
      <point x="379" y="-12"/>
      <point x="406" y="3"/>
      <point x="419" y="58" type="curve" smooth="yes"/>
      <point x="455" y="206" type="line"/>
      <point x="414" y="212" type="line"/>
      <point x="384" y="131" type="line"/>
      <point x="364" y="118" type="line"/>
      <point x="160" y="145" type="line"/>
      <point x="436" y="420" type="line" smooth="yes"/>
      <point x="462" y="446"/>
      <point x="469" y="458"/>
      <point x="477" y="489" type="curve" smooth="yes"/>
      <point x="486" y="524" type="line"/>
      <point x="420" y="524" type="line"/>
      <point x="408" y="476" type="line"/>
      <point x="278" y="519"/>
      <point x="233" y="536"/>
      <point x="172" y="536" type="curve" smooth="yes"/>
      <point x="123" y="536"/>
      <point x="97" y="521"/>
      <point x="83" y="466" type="curve" smooth="yes"/>
      <point x="47" y="318" type="line"/>
      <point x="88" y="312" type="line"/>
      <point x="118" y="393" type="line"/>
      <point x="138" y="406" type="line"/>
      <point x="312" y="379" type="line"/>
      <point x="35" y="103" type="line" smooth="yes"/>
      <point x="9" y="77"/>
      <point x="2" y="65"/>
      <point x="-6" y="34" type="curve" smooth="yes"/>
      <point x="-15" y="0" type="line"/>
      <point x="51" y="0" type="line"/>
      <point x="63" y="48" type="line"/>
      <point x="206" y="6"/>
      <point x="268" y="-12"/>
    </contour>
    <contour>
      <point x="201.0" y="0.0" type="move" name="bottom"/>
    </contour>
    <contour>
      <point x="289.0" y="540.0" type="move" name="top"/>
    </contour>
  </outline>
</glyph>
<glyph name="braceleft" format="1">
  <advance width="356"/>
  <unicode hex="007B"/>
  <outline>
    <contour>
      <point x="103" y="-138" type="curve" smooth="yes" name="hr00"/>
      <point x="229" y="-138" type="line"/>
      <point x="244" y="-79" type="line"/>
      <point x="159" y="-79" type="line"/>
      <point x="219" y="159" type="line" smooth="yes"/>
      <point x="223" y="174"/>
      <point x="224" y="190"/>
      <point x="224" y="203" type="curve" smooth="yes"/>
      <point x="224" y="259"/>
      <point x="193" y="295"/>
      <point x="155" y="304" type="curve"/>
      <point x="158" y="318" type="line"/>
      <point x="221" y="328"/>
      <point x="273" y="378"/>
      <point x="288" y="438" type="curve" smooth="yes"/>
      <point x="354" y="701" type="line"/>
      <point x="439" y="701" type="line"/>
      <point x="454" y="760" type="line"/>
      <point x="356" y="760" type="line" smooth="yes"/>
      <point x="266" y="760"/>
      <point x="225" y="722"/>
      <point x="209" y="659" type="curve" smooth="yes"/>
      <point x="153" y="432" type="line" smooth="yes"/>
      <point x="139" y="375"/>
      <point x="94" y="344"/>
      <point x="42" y="344" type="curve"/>
      <point x="26" y="277" type="line"/>
      <point x="69" y="277"/>
      <point x="96" y="257"/>
      <point x="96" y="217" type="curve" smooth="yes"/>
      <point x="96" y="209"/>
      <point x="95" y="202"/>
      <point x="92" y="190" type="curve" smooth="yes"/>
      <point x="35" y="-39" type="line" smooth="yes"/>
      <point x="32" y="-50"/>
      <point x="31" y="-59"/>
      <point x="31" y="-68" type="curve" smooth="yes"/>
      <point x="31" y="-109"/>
      <point x="59" y="-138"/>
    </contour>
  </outline>
</glyph>
<glyph name="bar" format="1">
  <advance width="350"/>
  <unicode hex="007C"/>
  <outline>
    <contour>
      <point x="30" y="-138" type="line" name="hr00"/>
      <point x="120" y="-138" type="line"/>
      <point x="345" y="760" type="line"/>
      <point x="255" y="760" type="line"/>
    </contour>
  </outline>
</glyph>
<glyph name="braceright" format="1">
  <advance width="356"/>
  <unicode hex="007D"/>
  <outline>
    <contour>
      <point x="-74" y="-138" type="line" name="hr00"/>
      <point x="24" y="-138" type="line" smooth="yes"/>
      <point x="114" y="-138"/>
      <point x="155" y="-100"/>
      <point x="171" y="-37" type="curve" smooth="yes"/>
      <point x="227" y="190" type="line" smooth="yes"/>
      <point x="241" y="247"/>
      <point x="286" y="278"/>
      <point x="338" y="278" type="curve"/>
      <point x="354" y="345" type="line"/>
      <point x="311" y="345"/>
      <point x="284" y="365"/>
      <point x="284" y="405" type="curve" smooth="yes"/>
      <point x="284" y="413"/>
      <point x="285" y="420"/>
      <point x="288" y="432" type="curve" smooth="yes"/>
      <point x="345" y="661" type="line" smooth="yes"/>
      <point x="348" y="672"/>
      <point x="349" y="681"/>
      <point x="349" y="690" type="curve" smooth="yes"/>
      <point x="349" y="731"/>
      <point x="321" y="760"/>
      <point x="277" y="760" type="curve" smooth="yes"/>
      <point x="151" y="760" type="line"/>
      <point x="136" y="701" type="line"/>
      <point x="221" y="701" type="line"/>
      <point x="161" y="463" type="line" smooth="yes"/>
      <point x="157" y="448"/>
      <point x="156" y="432"/>
      <point x="156" y="419" type="curve" smooth="yes"/>
      <point x="156" y="363"/>
      <point x="187" y="327"/>
      <point x="225" y="318" type="curve"/>
      <point x="222" y="304" type="line"/>
      <point x="159" y="294"/>
      <point x="107" y="244"/>
      <point x="92" y="184" type="curve" smooth="yes"/>
      <point x="26" y="-79" type="line"/>
      <point x="-59" y="-79" type="line"/>
    </contour>
  </outline>
</glyph>
<glyph name="asciitilde" format="1">
  <advance width="550"/>
  <unicode hex="007E"/>
  <outline>
    <contour>
      <point x="368" y="236" type="curve" smooth="yes" name="hr00"/>
      <point x="423" y="236"/>
      <point x="461" y="259"/>
      <point x="490" y="292" type="curve"/>
      <point x="466" y="347" type="line"/>
      <point x="436" y="326"/>
      <point x="417" y="318"/>
      <point x="391" y="318" type="curve" smooth="yes"/>
      <point x="356" y="318"/>
      <point x="332" y="333"/>
      <point x="304" y="351" type="curve" smooth="yes"/>
      <point x="271" y="373"/>
      <point x="243" y="387"/>
      <point x="200" y="387" type="curve" smooth="yes"/>
      <point x="145" y="387"/>
      <point x="107" y="364"/>
      <point x="78" y="331" type="curve"/>
      <point x="102" y="276" type="line"/>
      <point x="132" y="297"/>
      <point x="151" y="305"/>
      <point x="177" y="305" type="curve" smooth="yes"/>
      <point x="212" y="305"/>
      <point x="236" y="290"/>
      <point x="264" y="272" type="curve" smooth="yes"/>
      <point x="297" y="250"/>
      <point x="325" y="236"/>
    </contour>
  </outline>
</glyph>
<glyph name="exclamdown" format="1">
  <advance width="287"/>
  <unicode hex="00A1"/>
  <outline>
    <contour>
      <point x="179" y="363" type="curve" smooth="yes" name="hr00"/>
      <point x="230" y="363"/>
      <point x="266" y="393"/>
      <point x="277" y="438" type="curve" smooth="yes"/>
      <point x="279" y="446"/>
      <point x="280" y="456"/>
      <point x="280" y="464" type="curve" smooth="yes"/>
      <point x="280" y="503"/>
      <point x="249" y="536"/>
      <point x="199" y="536" type="curve" smooth="yes"/>
      <point x="148" y="536"/>
      <point x="112" y="506"/>
      <point x="101" y="461" type="curve" smooth="yes"/>
      <point x="99" y="453"/>
      <point x="98" y="443"/>
      <point x="98" y="435" type="curve" smooth="yes"/>
      <point x="98" y="396"/>
      <point x="129" y="363"/>
    </contour>
    <contour>
      <point x="-45" y="-174" type="line"/>
      <point x="114" y="-174" type="line"/>
      <point x="153" y="-20" type="line"/>
      <point x="186" y="307" type="line"/>
      <point x="121" y="307" type="line"/>
      <point x="-6" y="-20" type="line"/>
    </contour>
  </outline>
</glyph>
<glyph name="cent" format="1">
  <advance width="492"/>
  <unicode hex="00A2"/>
  <outline>
    <contour>
      <point x="146" y="-114" type="line" name="hr00"/>
      <point x="203" y="-114" type="line"/>
      <point x="229" y="-9" type="line"/>
      <point x="337" y="4"/>
      <point x="396" y="76"/>
      <point x="451" y="193" type="curve"/>
      <point x="412" y="210" type="line"/>
      <point x="367" y="124"/>
      <point x="319" y="71"/>
      <point x="247" y="67" type="curve"/>
      <point x="352" y="487" type="line"/>
      <point x="384" y="485"/>
      <point x="412" y="477"/>
      <point x="426" y="470" type="curve"/>
      <point x="426" y="461" type="line"/>
      <point x="377" y="456"/>
      <point x="353" y="419"/>
      <point x="353" y="387" type="curve" smooth="yes"/>
      <point x="353" y="359"/>
      <point x="372" y="332"/>
      <point x="409" y="332" type="curve" smooth="yes"/>
      <point x="457" y="332"/>
      <point x="485" y="376"/>
      <point x="485" y="424" type="curve" smooth="yes"/>
      <point x="485" y="478"/>
      <point x="451" y="523"/>
      <point x="365" y="533" type="curve"/>
      <point x="389" y="630" type="line"/>
      <point x="332" y="630" type="line"/>
      <point x="308" y="535" type="line"/>
      <point x="113" y="524"/>
      <point x="29" y="317"/>
      <point x="29" y="162" type="curve" smooth="yes"/>
      <point x="29" y="52"/>
      <point x="79" y="-5"/>
      <point x="172" y="-11" type="curve"/>
    </contour>
    <contour>
      <point x="194" y="73" type="line"/>
      <point x="173" y="84"/>
      <point x="166" y="107"/>
      <point x="166" y="146" type="curve" smooth="yes"/>
      <point x="166" y="184"/>
      <point x="176" y="243"/>
      <point x="195" y="316" type="curve" smooth="yes"/>
      <point x="226" y="427"/>
      <point x="251" y="470"/>
      <point x="296" y="483" type="curve"/>
    </contour>
  </outline>
</glyph>
<glyph name="sterling" format="1">
  <advance width="538"/>
  <unicode hex="00A3"/>
  <outline>
    <contour>
      <point x="-46" y="0" type="line" name="hr00"/>
      <point x="427" y="0" type="line"/>
      <point x="481" y="219" type="line"/>
      <point x="409" y="219" type="line"/>
      <point x="382" y="109" type="line"/>
      <point x="84" y="109" type="line"/>
      <point x="86" y="119" type="line"/>
      <point x="171" y="139"/>
      <point x="249" y="202"/>
      <point x="254" y="319" type="curve"/>
      <point x="379" y="319" type="line"/>
      <point x="394" y="380" type="line"/>
      <point x="254" y="380" type="line"/>
      <point x="254" y="406"/>
      <point x="253" y="430"/>
      <point x="253" y="453" type="curve" smooth="yes"/>
      <point x="253" y="536"/>
      <point x="291" y="649"/>
      <point x="404" y="649" type="curve" smooth="yes"/>
      <point x="433" y="649"/>
      <point x="453" y="644"/>
      <point x="478" y="637" type="curve"/>
      <point x="478" y="628" type="line"/>
      <point x="430" y="620"/>
      <point x="406" y="587"/>
      <point x="406" y="550" type="curve" smooth="yes"/>
      <point x="406" y="518"/>
      <point x="429" y="487"/>
      <point x="470" y="487" type="curve" smooth="yes"/>
      <point x="521" y="487"/>
      <point x="552" y="535"/>
      <point x="552" y="582" type="curve" smooth="yes"/>
      <point x="552" y="674"/>
      <point x="461" y="710"/>
      <point x="365" y="710" type="curve" smooth="yes"/>
      <point x="231" y="710"/>
      <point x="103" y="623"/>
      <point x="103" y="452" type="curve" smooth="yes"/>
      <point x="103" y="421"/>
      <point x="106" y="398"/>
      <point x="110" y="380" type="curve"/>
      <point x="50" y="380" type="line"/>
      <point x="35" y="319" type="line"/>
      <point x="119" y="319" type="line"/>
      <point x="121" y="215"/>
      <point x="30" y="130"/>
      <point x="-20" y="104" type="curve"/>
    </contour>
  </outline>
</glyph>
<glyph name="currency" format="1">
  <advance width="609"/>
  <unicode hex="00A4"/>
  <outline>
    <contour>
      <point x="278" y="109" type="curve" smooth="yes" name="hr00"/>
      <point x="327" y="109"/>
      <point x="368" y="121"/>
      <point x="406" y="142" type="curve"/>
      <point x="468" y="48" type="line"/>
      <point x="547" y="114" type="line"/>
      <point x="485" y="209" type="line"/>
      <point x="534" y="270"/>
      <point x="559" y="347"/>
      <point x="559" y="418" type="curve" smooth="yes"/>
      <point x="559" y="440"/>
      <point x="556" y="460"/>
      <point x="550" y="478" type="curve"/>
      <point x="657" y="569" type="line"/>
      <point x="604" y="647" type="line"/>
      <point x="496" y="554" type="line"/>
      <point x="467" y="576"/>
      <point x="429" y="589"/>
      <point x="381" y="589" type="curve" smooth="yes"/>
      <point x="332" y="589"/>
      <point x="291" y="577"/>
      <point x="253" y="556" type="curve"/>
      <point x="191" y="650" type="line"/>
      <point x="112" y="584" type="line"/>
      <point x="174" y="489" type="line"/>
      <point x="125" y="428"/>
      <point x="100" y="351"/>
      <point x="100" y="280" type="curve" smooth="yes"/>
      <point x="100" y="258"/>
      <point x="103" y="238"/>
      <point x="109" y="220" type="curve"/>
      <point x="2" y="129" type="line"/>
      <point x="55" y="51" type="line"/>
      <point x="163" y="144" type="line"/>
      <point x="192" y="122"/>
      <point x="230" y="109"/>
    </contour>
    <contour>
      <point x="290" y="164" type="curve" smooth="yes"/>
      <point x="247" y="164"/>
      <point x="220" y="193"/>
      <point x="220" y="234" type="curve" smooth="yes"/>
      <point x="220" y="271"/>
      <point x="226" y="285"/>
      <point x="263" y="433" type="curve" smooth="yes"/>
      <point x="278" y="492"/>
      <point x="314" y="534"/>
      <point x="369" y="534" type="curve" smooth="yes"/>
      <point x="412" y="534"/>
      <point x="439" y="505"/>
      <point x="439" y="464" type="curve" smooth="yes"/>
      <point x="439" y="427"/>
      <point x="433" y="413"/>
      <point x="396" y="265" type="curve" smooth="yes"/>
      <point x="381" y="206"/>
      <point x="345" y="164"/>
    </contour>
  </outline>
</glyph>
<glyph name="yen" format="1">
  <advance width="639"/>
  <unicode hex="00A5"/>
  <outline>
    <contour>
      <point x="109" y="0" type="line" name="hr00"/>
      <point x="397" y="0" type="line"/>
      <point x="412" y="60" type="line"/>
      <point x="340" y="60" type="line"/>
      <point x="362" y="148" type="line"/>
      <point x="509" y="148" type="line"/>
      <point x="524" y="208" type="line"/>
      <point x="377" y="208" type="line"/>
      <point x="398" y="294" type="line"/>
      <point x="546" y="294" type="line"/>
      <point x="561" y="354" type="line"/>
      <point x="430" y="354" type="line"/>
      <point x="650" y="638" type="line"/>
      <point x="697" y="638" type="line"/>
      <point x="712" y="698" type="line"/>
      <point x="505" y="698" type="line"/>
      <point x="490" y="638" type="line"/>
      <point x="559" y="638" type="line"/>
      <point x="380" y="386" type="line"/>
      <point x="373" y="386" type="line"/>
      <point x="325" y="638" type="line"/>
      <point x="394" y="638" type="line"/>
      <point x="409" y="698" type="line"/>
      <point x="140" y="698" type="line"/>
      <point x="125" y="638" type="line"/>
      <point x="172" y="638" type="line"/>
      <point x="241" y="354" type="line"/>
      <point x="122" y="354" type="line"/>
      <point x="107" y="294" type="line"/>
      <point x="254" y="294" type="line"/>
      <point x="233" y="208" type="line"/>
      <point x="86" y="208" type="line"/>
      <point x="71" y="148" type="line"/>
      <point x="218" y="148" type="line"/>
      <point x="196" y="60" type="line"/>
      <point x="124" y="60" type="line"/>
    </contour>
  </outline>
</glyph>
<glyph name="brokenbar" format="1">
  <advance width="350"/>
  <unicode hex="00A6"/>
  <outline>
    <contour>
      <point x="30" y="-138" type="line" name="hr00"/>
      <point x="120" y="-138" type="line"/>
      <point x="210" y="220" type="line"/>
      <point x="120" y="220" type="line"/>
    </contour>
    <contour>
      <point x="165" y="402" type="line"/>
      <point x="255" y="402" type="line"/>
      <point x="345" y="760" type="line"/>
      <point x="255" y="760" type="line"/>
    </contour>
  </outline>
</glyph>
<glyph name="section" format="1">
  <advance width="513"/>
  <unicode hex="00A7"/>
  <outline>
    <contour>
      <point x="152" y="-161" type="curve" smooth="yes" name="hr00"/>
      <point x="282" y="-161"/>
      <point x="375" y="-72"/>
      <point x="375" y="23" type="curve" smooth="yes"/>
      <point x="375" y="63"/>
      <point x="364" y="91"/>
      <point x="345" y="116" type="curve"/>
      <point x="348" y="128" type="line"/>
      <point x="438" y="138"/>
      <point x="504" y="200"/>
      <point x="504" y="274" type="curve" smooth="yes"/>
      <point x="504" y="350"/>
      <point x="456" y="393"/>
      <point x="394" y="438" type="curve" smooth="yes"/>
      <point x="332" y="484" type="line" smooth="yes"/>
      <point x="288" y="517"/>
      <point x="259" y="540"/>
      <point x="259" y="581" type="curve" smooth="yes"/>
      <point x="259" y="629"/>
      <point x="306" y="663"/>
      <point x="378" y="663" type="curve" smooth="yes"/>
      <point x="409" y="663"/>
      <point x="434" y="658"/>
      <point x="456" y="649" type="curve"/>
      <point x="456" y="641" type="line"/>
      <point x="410" y="635"/>
      <point x="385" y="600"/>
      <point x="385" y="567" type="curve" smooth="yes"/>
      <point x="385" y="538"/>
      <point x="405" y="511"/>
      <point x="441" y="511" type="curve" smooth="yes"/>
      <point x="489" y="511"/>
      <point x="518" y="555"/>
      <point x="518" y="603" type="curve" smooth="yes"/>
      <point x="518" y="665"/>
      <point x="454" y="710"/>
      <point x="361" y="710" type="curve" smooth="yes"/>
      <point x="231" y="710"/>
      <point x="138" y="621"/>
      <point x="138" y="526" type="curve" smooth="yes"/>
      <point x="138" y="486"/>
      <point x="149" y="458"/>
      <point x="168" y="433" type="curve"/>
      <point x="165" y="421" type="line"/>
      <point x="75" y="411"/>
      <point x="9" y="349"/>
      <point x="9" y="275" type="curve" smooth="yes"/>
      <point x="9" y="199"/>
      <point x="57" y="156"/>
      <point x="119" y="111" type="curve" smooth="yes"/>
      <point x="181" y="65" type="line" smooth="yes"/>
      <point x="225" y="32"/>
      <point x="254" y="9"/>
      <point x="254" y="-32" type="curve" smooth="yes"/>
      <point x="254" y="-80"/>
      <point x="207" y="-114"/>
      <point x="135" y="-114" type="curve" smooth="yes"/>
      <point x="104" y="-114"/>
      <point x="79" y="-109"/>
      <point x="57" y="-100" type="curve"/>
      <point x="57" y="-92" type="line"/>
      <point x="103" y="-86"/>
      <point x="128" y="-51"/>
      <point x="128" y="-18" type="curve" smooth="yes"/>
      <point x="128" y="11"/>
      <point x="108" y="38"/>
      <point x="72" y="38" type="curve" smooth="yes"/>
      <point x="24" y="38"/>
      <point x="-5" y="-6"/>
      <point x="-5" y="-54" type="curve" smooth="yes"/>
      <point x="-5" y="-116"/>
      <point x="59" y="-161"/>
    </contour>
    <contour>
      <point x="131" y="329" type="curve" smooth="yes"/>
      <point x="131" y="363"/>
      <point x="152" y="393"/>
      <point x="195" y="405" type="curve"/>
      <point x="210" y="393"/>
      <point x="226" y="380"/>
      <point x="244" y="367" type="curve" smooth="yes"/>
      <point x="306" y="322" type="line" smooth="yes"/>
      <point x="352" y="287"/>
      <point x="382" y="265"/>
      <point x="382" y="220" type="curve" smooth="yes"/>
      <point x="382" y="186"/>
      <point x="361" y="156"/>
      <point x="318" y="144" type="curve"/>
      <point x="303" y="156"/>
      <point x="287" y="169"/>
      <point x="269" y="182" type="curve" smooth="yes"/>
      <point x="207" y="227" type="line" smooth="yes"/>
      <point x="161" y="262"/>
      <point x="131" y="284"/>
    </contour>
  </outline>
</glyph>
<glyph name="dieresis" format="1">
  <advance width="600"/>
  <unicode hex="00A8"/>
  <outline>
    <contour>
      <point x="219" y="604" type="curve" smooth="yes" name="hr00"/>
      <point x="259" y="604"/>
      <point x="289" y="630"/>
      <point x="297" y="661" type="curve" smooth="yes"/>
      <point x="299" y="669"/>
      <point x="300" y="676"/>
      <point x="300" y="683" type="curve" smooth="yes"/>
      <point x="300" y="715"/>
      <point x="275" y="743"/>
      <point x="235" y="743" type="curve" smooth="yes"/>
      <point x="195" y="743"/>
      <point x="165" y="717"/>
      <point x="157" y="686" type="curve" smooth="yes"/>
      <point x="155" y="678"/>
      <point x="154" y="671"/>
      <point x="154" y="664" type="curve" smooth="yes"/>
      <point x="154" y="632"/>
      <point x="179" y="604"/>
    </contour>
    <contour>
      <point x="429" y="604" type="curve" smooth="yes"/>
      <point x="469" y="604"/>
      <point x="499" y="630"/>
      <point x="507" y="661" type="curve" smooth="yes"/>
      <point x="509" y="669"/>
      <point x="510" y="676"/>
      <point x="510" y="683" type="curve" smooth="yes"/>
      <point x="510" y="715"/>
      <point x="485" y="743"/>
      <point x="445" y="743" type="curve" smooth="yes"/>
      <point x="405" y="743"/>
      <point x="375" y="717"/>
      <point x="367" y="686" type="curve" smooth="yes"/>
      <point x="365" y="678"/>
      <point x="364" y="671"/>
      <point x="364" y="664" type="curve" smooth="yes"/>
      <point x="364" y="632"/>
      <point x="389" y="604"/>
    </contour>
    <contour>
      <point x="300.0" y="540.0" type="move" name="_top"/>
    </contour>
  </outline>
</glyph>
<glyph name="copyright" format="1">
  <advance width="758"/>
  <unicode hex="00A9"/>
  <outline>
    <contour>
      <point x="338" y="137" type="curve" smooth="yes" name="hr00"/>
      <point x="432" y="137"/>
      <point x="480" y="195"/>
      <point x="527" y="296" type="curve"/>
      <point x="496" y="309" type="line"/>
      <point x="460" y="239"/>
      <point x="425" y="199"/>
      <point x="380" y="199" type="curve" smooth="yes"/>
      <point x="349" y="199"/>
      <point x="331" y="216"/>
      <point x="331" y="260" type="curve" smooth="yes"/>
      <point x="331" y="289"/>
      <point x="339" y="333"/>
      <point x="354" y="390" type="curve" smooth="yes"/>
      <point x="383" y="500"/>
      <point x="409" y="524"/>
      <point x="451" y="524" type="curve" smooth="yes"/>
      <point x="470" y="524"/>
      <point x="488" y="518"/>
      <point x="500" y="510" type="curve"/>
      <point x="500" y="502" type="line"/>
      <point x="460" y="498"/>
      <point x="438" y="467"/>
      <point x="438" y="440" type="curve" smooth="yes"/>
      <point x="438" y="417"/>
      <point x="455" y="393"/>
      <point x="486" y="393" type="curve" smooth="yes"/>
      <point x="525" y="393"/>
      <point x="550" y="430"/>
      <point x="550" y="470" type="curve" smooth="yes"/>
      <point x="550" y="522"/>
      <point x="509" y="561"/>
      <point x="437" y="561" type="curve" smooth="yes"/>
      <point x="289" y="561"/>
      <point x="217" y="395"/>
      <point x="217" y="271" type="curve" smooth="yes"/>
      <point x="217" y="181"/>
      <point x="256" y="137"/>
    </contour>
    <contour>
      <point x="341" y="34" type="curve" smooth="yes"/>
      <point x="206" y="34"/>
      <point x="117" y="126"/>
      <point x="117" y="270" type="curve" smooth="yes"/>
      <point x="117" y="294"/>
      <point x="130" y="360"/>
      <point x="141" y="411" type="curve" smooth="yes"/>
      <point x="173" y="557"/>
      <point x="295" y="664"/>
      <point x="447" y="664" type="curve" smooth="yes"/>
      <point x="582" y="664"/>
      <point x="671" y="572"/>
      <point x="671" y="428" type="curve" smooth="yes"/>
      <point x="671" y="404"/>
      <point x="658" y="338"/>
      <point x="647" y="287" type="curve" smooth="yes"/>
      <point x="615" y="141"/>
      <point x="493" y="34"/>
    </contour>
    <contour>
      <point x="338" y="-12" type="curve" smooth="yes"/>
      <point x="600" y="-12"/>
      <point x="737" y="229"/>
      <point x="737" y="419" type="curve" smooth="yes"/>
      <point x="737" y="591"/>
      <point x="625" y="710"/>
      <point x="450" y="710" type="curve" smooth="yes"/>
      <point x="188" y="710"/>
      <point x="51" y="469"/>
      <point x="51" y="279" type="curve" smooth="yes"/>
      <point x="51" y="107"/>
      <point x="163" y="-12"/>
    </contour>
  </outline>
</glyph>
<glyph name="ordfeminine" format="1">
  <advance width="418"/>
  <unicode hex="00AA"/>
  <outline>
    <contour>
      <point x="168" y="325" type="curve" smooth="yes" name="hr00"/>
      <point x="225" y="325"/>
      <point x="264" y="368"/>
      <point x="281" y="409" type="curve"/>
      <point x="290" y="407" type="line"/>
      <point x="287" y="394"/>
      <point x="286" y="386"/>
      <point x="286" y="379" type="curve" smooth="yes"/>
      <point x="286" y="349"/>
      <point x="304" y="325"/>
      <point x="345" y="325" type="curve" smooth="yes"/>
      <point x="373" y="325"/>
      <point x="401" y="344"/>
      <point x="429" y="385" type="curve" smooth="yes"/>
      <point x="468" y="443" type="line"/>
      <point x="443" y="457" type="line"/>
      <point x="385" y="384" type="line"/>
      <point x="371" y="390" type="line"/>
      <point x="408" y="542" type="line" smooth="yes"/>
      <point x="413" y="562"/>
      <point x="418" y="591"/>
      <point x="418" y="607" type="curve" smooth="yes"/>
      <point x="418" y="673"/>
      <point x="369" y="705"/>
      <point x="299" y="705" type="curve" smooth="yes"/>
      <point x="214" y="705"/>
      <point x="151" y="658"/>
      <point x="151" y="614" type="curve" smooth="yes"/>
      <point x="151" y="586"/>
      <point x="166" y="573"/>
      <point x="191" y="573" type="curve" smooth="yes"/>
      <point x="226" y="573"/>
      <point x="244" y="601"/>
      <point x="244" y="626" type="curve" smooth="yes"/>
      <point x="244" y="641"/>
      <point x="240" y="649"/>
      <point x="234" y="653" type="curve"/>
      <point x="235" y="660" type="line"/>
      <point x="245" y="663"/>
      <point x="262" y="665"/>
      <point x="274" y="665" type="curve" smooth="yes"/>
      <point x="303" y="665"/>
      <point x="322" y="650"/>
      <point x="322" y="620" type="curve" smooth="yes"/>
      <point x="322" y="599"/>
      <point x="312" y="555"/>
      <point x="308" y="532" type="curve"/>
      <point x="166" y="526"/>
      <point x="89" y="479"/>
      <point x="89" y="395" type="curve" smooth="yes"/>
      <point x="89" y="352"/>
      <point x="124" y="325"/>
    </contour>
    <contour>
      <point x="214" y="378" type="curve" smooth="yes"/>
      <point x="200" y="378"/>
      <point x="187" y="387"/>
      <point x="187" y="407" type="curve" smooth="yes"/>
      <point x="187" y="418"/>
      <point x="191" y="435"/>
      <point x="194" y="442" type="curve" smooth="yes"/>
      <point x="209" y="477"/>
      <point x="233" y="496"/>
      <point x="300" y="500" type="curve"/>
      <point x="291" y="467" type="line" smooth="yes"/>
      <point x="281" y="426"/>
      <point x="245" y="378"/>
    </contour>
  </outline>
</glyph>
<glyph name="logicalnot" format="1">
  <advance width="550"/>
  <unicode hex="00AC"/>
  <outline>
    <contour>
      <point x="344" y="80" type="line" name="hr00"/>
      <point x="431" y="80" type="line"/>
      <point x="497" y="344" type="line"/>
      <point x="81" y="344" type="line"/>
      <point x="62" y="267" type="line"/>
      <point x="390" y="267" type="line"/>
    </contour>
  </outline>
</glyph>
<glyph name="registered" format="1">
  <advance width="429"/>
  <unicode hex="00AE"/>
  <outline>
    <contour>
      <point x="163" y="398" type="line" name="hr00"/>
      <point x="246" y="398" type="line"/>
      <point x="252" y="422" type="line"/>
      <point x="239" y="422" type="line"/>
      <point x="256" y="489" type="line"/>
      <point x="269" y="489" type="line"/>
      <point x="284" y="427" type="line" smooth="yes"/>
      <point x="289" y="405"/>
      <point x="297" y="398"/>
      <point x="323" y="398" type="curve" smooth="yes"/>
      <point x="352" y="398" type="line"/>
      <point x="358" y="422" type="line"/>
      <point x="355" y="422" type="line" smooth="yes"/>
      <point x="345" y="422"/>
      <point x="338" y="425"/>
      <point x="335" y="436" type="curve" smooth="yes"/>
      <point x="317" y="494" type="line"/>
      <point x="346" y="501"/>
      <point x="374" y="527"/>
      <point x="374" y="568" type="curve" smooth="yes"/>
      <point x="374" y="597"/>
      <point x="354" y="610"/>
      <point x="322" y="610" type="curve" smooth="yes"/>
      <point x="216" y="610" type="line"/>
      <point x="210" y="586" type="line"/>
      <point x="225" y="586" type="line"/>
      <point x="185" y="422" type="line"/>
      <point x="169" y="422" type="line"/>
    </contour>
    <contour>
      <point x="258" y="331" type="curve" smooth="yes"/>
      <point x="176" y="331"/>
      <point x="123" y="392"/>
      <point x="123" y="475" type="curve" smooth="yes"/>
      <point x="123" y="483"/>
      <point x="126" y="512"/>
      <point x="129" y="527" type="curve" smooth="yes"/>
      <point x="147" y="613"/>
      <point x="206" y="677"/>
      <point x="295" y="677" type="curve" smooth="yes"/>
      <point x="377" y="677"/>
      <point x="430" y="616"/>
      <point x="430" y="533" type="curve" smooth="yes"/>
      <point x="430" y="525"/>
      <point x="427" y="496"/>
      <point x="424" y="481" type="curve" smooth="yes"/>
      <point x="406" y="395"/>
      <point x="347" y="331"/>
    </contour>
    <contour>
      <point x="255" y="298" type="curve" smooth="yes"/>
      <point x="381" y="298"/>
      <point x="474" y="399"/>
      <point x="474" y="535" type="curve" smooth="yes"/>
      <point x="474" y="633"/>
      <point x="399" y="710"/>
      <point x="298" y="710" type="curve" smooth="yes"/>
      <point x="172" y="710"/>
      <point x="79" y="609"/>
      <point x="79" y="473" type="curve" smooth="yes"/>
      <point x="79" y="375"/>
      <point x="154" y="298"/>
    </contour>
    <contour>
      <point x="279" y="583" type="line"/>
      <point x="301" y="583" type="line" smooth="yes"/>
      <point x="315" y="583"/>
      <point x="321" y="575"/>
      <point x="321" y="565" type="curve" smooth="yes"/>
      <point x="321" y="560"/>
      <point x="318" y="549"/>
      <point x="316" y="541" type="curve" smooth="yes"/>
      <point x="312" y="524"/>
      <point x="300" y="513"/>
      <point x="284" y="513" type="curve" smooth="yes"/>
      <point x="262" y="513" type="line"/>
    </contour>
  </outline>
</glyph>
<glyph name="macron" format="1">
  <advance width="600"/>
  <unicode hex="00AF"/>
  <outline>
    <contour>
      <point x="179" y="634" type="line" name="hr00"/>
      <point x="467" y="634" type="line"/>
      <point x="487" y="714" type="line"/>
      <point x="199" y="714" type="line"/>
    </contour>
    <contour>
      <point x="300.0" y="540.0" type="move" name="_top"/>
    </contour>
  </outline>
</glyph>
<glyph name="degree" format="1">
  <advance width="434"/>
  <unicode hex="00B0"/>
  <outline>
    <contour>
      <point x="262" y="338" type="curve" smooth="yes" name="hr00"/>
      <point x="372" y="338"/>
      <point x="459" y="425"/>
      <point x="459" y="543" type="curve" smooth="yes"/>
      <point x="459" y="640"/>
      <point x="391" y="710"/>
      <point x="301" y="710" type="curve" smooth="yes"/>
      <point x="191" y="710"/>
      <point x="104" y="623"/>
      <point x="104" y="505" type="curve" smooth="yes"/>
      <point x="104" y="408"/>
      <point x="172" y="338"/>
    </contour>
    <contour>
      <point x="270" y="407" type="curve" smooth="yes"/>
      <point x="217" y="407"/>
      <point x="183" y="451"/>
      <point x="183" y="504" type="curve" smooth="yes"/>
      <point x="183" y="580"/>
      <point x="227" y="641"/>
      <point x="293" y="641" type="curve" smooth="yes"/>
      <point x="346" y="641"/>
      <point x="380" y="597"/>
      <point x="380" y="544" type="curve" smooth="yes"/>
      <point x="380" y="468"/>
      <point x="336" y="407"/>
    </contour>
  </outline>
</glyph>
<glyph name="plusminus" format="1">
  <advance width="550"/>
  <unicode hex="00B1"/>
  <outline>
    <contour>
      <point x="211" y="182" type="line" name="hr00"/>
      <point x="298" y="182" type="line"/>
      <point x="343" y="360" type="line"/>
      <point x="513" y="360" type="line"/>
      <point x="532" y="437" type="line"/>
      <point x="362" y="437" type="line"/>
      <point x="407" y="615" type="line"/>
      <point x="319" y="615" type="line"/>
      <point x="275" y="437" type="line"/>
      <point x="104" y="437" type="line"/>
      <point x="85" y="360" type="line"/>
      <point x="256" y="360" type="line"/>
    </contour>
    <contour>
      <point x="-5" y="0" type="line"/>
      <point x="423" y="0" type="line"/>
      <point x="442" y="77" type="line"/>
      <point x="14" y="77" type="line"/>
    </contour>
  </outline>
</glyph>
<glyph name="twosuperior" format="1">
  <advance width="329"/>
  <unicode hex="00B2"/>
  <outline>
    <contour>
      <point x="44" y="329" type="line" name="hr00"/>
      <point x="309" y="329" type="line"/>
      <point x="338" y="446" type="line"/>
      <point x="281" y="446" type="line"/>
      <point x="271" y="405" type="line"/>
      <point x="134" y="405" type="line"/>
      <point x="136" y="413" type="line"/>
      <point x="234" y="471" type="line" smooth="yes"/>
      <point x="291" y="505"/>
      <point x="369" y="547"/>
      <point x="369" y="623" type="curve" smooth="yes"/>
      <point x="369" y="674"/>
      <point x="335" y="704"/>
      <point x="250" y="704" type="curve" smooth="yes"/>
      <point x="181" y="704"/>
      <point x="116" y="668"/>
      <point x="116" y="618" type="curve" smooth="yes"/>
      <point x="116" y="596"/>
      <point x="130" y="580"/>
      <point x="156" y="580" type="curve" smooth="yes"/>
      <point x="186" y="580"/>
      <point x="209" y="605"/>
      <point x="209" y="629" type="curve" smooth="yes"/>
      <point x="209" y="643"/>
      <point x="202" y="651"/>
      <point x="191" y="653" type="curve"/>
      <point x="193" y="658" type="line"/>
      <point x="202" y="661"/>
      <point x="216" y="662"/>
      <point x="225" y="662" type="curve" smooth="yes"/>
      <point x="251" y="662"/>
      <point x="263" y="647"/>
      <point x="263" y="630" type="curve" smooth="yes"/>
      <point x="263" y="623"/>
      <point x="260" y="614"/>
      <point x="258" y="606" type="curve" smooth="yes"/>
      <point x="248" y="566"/>
      <point x="217" y="541"/>
      <point x="175" y="504" type="curve" smooth="yes"/>
      <point x="64" y="406" type="line"/>
    </contour>
  </outline>
</glyph>
<glyph name="threesuperior" format="1">
  <advance width="318"/>
  <unicode hex="00B3"/>
  <outline>
    <contour>
      <point x="148" y="324" type="curve" smooth="yes" name="hr00"/>
      <point x="259" y="324"/>
      <point x="326" y="376"/>
      <point x="326" y="452" type="curve" smooth="yes"/>
      <point x="326" y="488"/>
      <point x="302" y="512"/>
      <point x="258" y="521" type="curve"/>
      <point x="260" y="528" type="line"/>
      <point x="309" y="533"/>
      <point x="365" y="566"/>
      <point x="365" y="628" type="curve" smooth="yes"/>
      <point x="365" y="677"/>
      <point x="329" y="704"/>
      <point x="248" y="704" type="curve" smooth="yes"/>
      <point x="170" y="704"/>
      <point x="112" y="666"/>
      <point x="112" y="619" type="curve" smooth="yes"/>
      <point x="112" y="595"/>
      <point x="128" y="581"/>
      <point x="152" y="581" type="curve" smooth="yes"/>
      <point x="188" y="581"/>
      <point x="203" y="610"/>
      <point x="203" y="628" type="curve" smooth="yes"/>
      <point x="203" y="641"/>
      <point x="198" y="649"/>
      <point x="186" y="653" type="curve"/>
      <point x="188" y="658" type="line"/>
      <point x="198" y="661"/>
      <point x="209" y="663"/>
      <point x="216" y="663" type="curve" smooth="yes"/>
      <point x="243" y="663"/>
      <point x="257" y="651"/>
      <point x="257" y="630" type="curve" smooth="yes"/>
      <point x="257" y="624"/>
      <point x="254" y="611"/>
      <point x="253" y="607" type="curve" smooth="yes"/>
      <point x="243" y="570"/>
      <point x="223" y="544"/>
      <point x="176" y="544" type="curve" smooth="yes"/>
      <point x="156" y="544" type="line"/>
      <point x="144" y="498" type="line"/>
      <point x="170" y="498" type="line" smooth="yes"/>
      <point x="204" y="498"/>
      <point x="218" y="485"/>
      <point x="218" y="461" type="curve" smooth="yes"/>
      <point x="218" y="455"/>
      <point x="217" y="448"/>
      <point x="212" y="428" type="curve" smooth="yes"/>
      <point x="201" y="382"/>
      <point x="179" y="364"/>
      <point x="137" y="364" type="curve" smooth="yes"/>
      <point x="128" y="364"/>
      <point x="117" y="366"/>
      <point x="108" y="370" type="curve"/>
      <point x="110" y="375" type="line"/>
      <point x="125" y="378"/>
      <point x="141" y="393"/>
      <point x="141" y="412" type="curve" smooth="yes"/>
      <point x="141" y="436"/>
      <point x="124" y="448"/>
      <point x="100" y="448" type="curve" smooth="yes"/>
      <point x="73" y="448"/>
      <point x="48" y="425"/>
      <point x="48" y="389" type="curve" smooth="yes"/>
      <point x="48" y="350"/>
      <point x="85" y="324"/>
    </contour>
  </outline>
</glyph>
<glyph name="acute" format="1">
  <advance width="600"/>
  <unicode hex="00B4"/>
  <outline>
    <contour>
      <point x="310" y="582" type="line" name="hr00"/>
      <point x="485" y="744" type="line"/>
      <point x="374" y="802" type="line"/>
      <point x="274" y="602" type="line"/>
    </contour>
    <contour>
      <point x="300.0" y="540.0" type="move" name="_top"/>
    </contour>
  </outline>
</glyph>
<glyph name="mu" format="1">
  <advance width="608"/>
  <unicode hex="00B5"/>
  <outline>
    <contour>
      <point x="-34" y="-200" type="line" name="hr00"/>
      <point x="99" y="-200" type="line"/>
      <point x="114" y="-140" type="line"/>
      <point x="118" y="36" type="line"/>
      <point x="130" y="36" type="line"/>
      <point x="137" y="2"/>
      <point x="158" y="-12"/>
      <point x="184" y="-12" type="curve" smooth="yes"/>
      <point x="253" y="-12"/>
      <point x="291" y="58"/>
      <point x="336" y="153" type="curve"/>
      <point x="348" y="149" type="line"/>
      <point x="342" y="126" type="line" smooth="yes"/>
      <point x="338" y="111"/>
      <point x="333" y="87"/>
      <point x="333" y="67" type="curve" smooth="yes"/>
      <point x="333" y="30"/>
      <point x="352" y="-12"/>
      <point x="418" y="-12" type="curve" smooth="yes"/>
      <point x="455" y="-12"/>
      <point x="499" y="1"/>
      <point x="548" y="76" type="curve" smooth="yes"/>
      <point x="604" y="161" type="line"/>
      <point x="568" y="182" type="line"/>
      <point x="478" y="68" type="line"/>
      <point x="460" y="76" type="line"/>
      <point x="572" y="524" type="line"/>
      <point x="428" y="524" type="line"/>
      <point x="396" y="396" type="line" smooth="yes"/>
      <point x="346" y="197"/>
      <point x="262" y="80"/>
      <point x="210" y="80" type="curve" smooth="yes"/>
      <point x="195" y="80"/>
      <point x="187" y="88"/>
      <point x="187" y="106" type="curve" smooth="yes"/>
      <point x="187" y="114"/>
      <point x="189" y="124"/>
      <point x="193" y="139" type="curve" smooth="yes"/>
      <point x="304" y="536" type="line"/>
      <point x="62" y="491" type="line"/>
      <point x="47" y="431" type="line"/>
      <point x="128" y="431" type="line"/>
    </contour>
  </outline>
</glyph>
<glyph name="paragraph" format="1">
  <advance width="561"/>
  <unicode hex="00B6"/>
  <outline>
    <contour>
      <point x="144" y="-158" type="curve" smooth="yes" name="hr00"/>
      <point x="270" y="-158"/>
      <point x="373" y="-66"/>
      <point x="411" y="89" type="curve" smooth="yes"/>
      <point x="549" y="638" type="line"/>
      <point x="612" y="638" type="line"/>
      <point x="627" y="698" type="line"/>
      <point x="365" y="698" type="line" smooth="yes"/>
      <point x="216" y="698"/>
      <point x="82" y="614"/>
      <point x="82" y="460" type="curve" smooth="yes"/>
      <point x="82" y="358"/>
      <point x="152" y="286"/>
      <point x="255" y="286" type="curve"/>
      <point x="156" y="-106" type="line"/>
      <point x="148" y="-107"/>
      <point x="142" y="-107"/>
      <point x="136" y="-107" type="curve" smooth="yes"/>
      <point x="113" y="-107"/>
      <point x="82" y="-106"/>
      <point x="53" y="-95" type="curve"/>
      <point x="54" y="-87" type="line"/>
      <point x="99" y="-81"/>
      <point x="122" y="-54"/>
      <point x="122" y="-18" type="curve" smooth="yes"/>
      <point x="122" y="13"/>
      <point x="102" y="41"/>
      <point x="64" y="41" type="curve" smooth="yes"/>
      <point x="18" y="41"/>
      <point x="-13" y="-3"/>
      <point x="-13" y="-49" type="curve" smooth="yes"/>
      <point x="-13" y="-108"/>
      <point x="40" y="-158"/>
    </contour>
    <contour>
      <point x="407" y="638" type="line"/>
      <point x="486" y="638" type="line"/>
      <point x="350" y="96" type="line" smooth="yes"/>
      <point x="328" y="6"/>
      <point x="284" y="-55"/>
      <point x="224" y="-86" type="curve"/>
    </contour>
  </outline>
</glyph>
<glyph name="periodcentered" format="1">
  <advance width="327"/>
  <unicode hex="00B7"/>
  <outline>
    <contour>
      <point x="163" y="219" type="curve" smooth="yes" name="hr00"/>
      <point x="214" y="219"/>
      <point x="250" y="249"/>
      <point x="261" y="294" type="curve" smooth="yes"/>
      <point x="263" y="302"/>
      <point x="264" y="312"/>
      <point x="264" y="320" type="curve" smooth="yes"/>
      <point x="264" y="359"/>
      <point x="233" y="392"/>
      <point x="183" y="392" type="curve" smooth="yes"/>
      <point x="132" y="392"/>
      <point x="96" y="362"/>
      <point x="85" y="317" type="curve" smooth="yes"/>
      <point x="83" y="309"/>
      <point x="82" y="299"/>
      <point x="82" y="291" type="curve" smooth="yes"/>
      <point x="82" y="252"/>
      <point x="113" y="219"/>
    </contour>
  </outline>
</glyph>
<glyph name="cedilla" format="1">
  <advance width="600"/>
  <unicode hex="00B8"/>
  <outline>
    <contour>
      <point x="273" y="-212" type="curve" smooth="yes" name="hr00"/>
      <point x="343" y="-212"/>
      <point x="406" y="-171"/>
      <point x="406" y="-108" type="curve" smooth="yes"/>
      <point x="406" y="-73"/>
      <point x="379" y="-55"/>
      <point x="342" y="-55" type="curve" smooth="yes"/>
      <point x="332" y="-55"/>
      <point x="318" y="-57"/>
      <point x="303" y="-62" type="curve"/>
      <point x="300" y="-58" type="line"/>
      <point x="332" y="14" type="line"/>
      <point x="279" y="14" type="line"/>
      <point x="239" y="-76" type="line"/>
      <point x="262" y="-79" type="line" smooth="yes"/>
      <point x="303" y="-84"/>
      <point x="311" y="-98"/>
      <point x="311" y="-114" type="curve" smooth="yes"/>
      <point x="311" y="-141"/>
      <point x="294" y="-161"/>
      <point x="260" y="-161" type="curve" smooth="yes"/>
      <point x="232" y="-161"/>
      <point x="209" y="-150"/>
      <point x="196" y="-133" type="curve"/>
      <point x="166" y="-166" type="line"/>
      <point x="179" y="-185"/>
      <point x="214" y="-212"/>
    </contour>
    <contour>
      <point x="300.0" y="0.0" type="move" name="_bottom"/>
    </contour>
  </outline>
</glyph>
<glyph name="onesuperior" format="1">
  <advance width="325"/>
  <unicode hex="00B9"/>
  <outline>
    <contour>
      <point x="58" y="329" type="line" name="hr00"/>
      <point x="309" y="329" type="line"/>
      <point x="320" y="373" type="line"/>
      <point x="250" y="373" type="line"/>
      <point x="331" y="698" type="line"/>
      <point x="265" y="698" type="line"/>
      <point x="118" y="629" type="line"/>
      <point x="125" y="593" type="line"/>
      <point x="212" y="626" type="line"/>
      <point x="149" y="373" type="line"/>
      <point x="69" y="373" type="line"/>
    </contour>
  </outline>
</glyph>
<glyph name="ordmasculine" format="1">
  <advance width="398"/>
  <unicode hex="00BA"/>
  <outline>
    <contour>
      <point x="230" y="369" type="curve" smooth="yes" name="hr00"/>
      <point x="203" y="369"/>
      <point x="185" y="387"/>
      <point x="185" y="417" type="curve" smooth="yes"/>
      <point x="185" y="435"/>
      <point x="190" y="459"/>
      <point x="219" y="574" type="curve" smooth="yes"/>
      <point x="232" y="628"/>
      <point x="258" y="661"/>
      <point x="296" y="661" type="curve" smooth="yes"/>
      <point x="322" y="661"/>
      <point x="340" y="643"/>
      <point x="340" y="613" type="curve" smooth="yes"/>
      <point x="340" y="595"/>
      <point x="335" y="572"/>
      <point x="306" y="456" type="curve" smooth="yes"/>
      <point x="293" y="402"/>
      <point x="267" y="369"/>
    </contour>
    <contour>
      <point x="223" y="325" type="curve" smooth="yes"/>
      <point x="361" y="325"/>
      <point x="432" y="464"/>
      <point x="432" y="575" type="curve" smooth="yes"/>
      <point x="432" y="662"/>
      <point x="379" y="705"/>
      <point x="302" y="705" type="curve" smooth="yes"/>
      <point x="164" y="705"/>
      <point x="93" y="565"/>
      <point x="93" y="455" type="curve" smooth="yes"/>
      <point x="93" y="368"/>
      <point x="146" y="325"/>
    </contour>
  </outline>
</glyph>
<glyph name="questiondown" format="1">
  <advance width="473"/>
  <unicode hex="00BF"/>
  <outline>
    <contour>
      <point x="146" y="-186" type="curve" smooth="yes" name="hr00"/>
      <point x="279" y="-186"/>
      <point x="380" y="-118"/>
      <point x="380" y="-39" type="curve" smooth="yes"/>
      <point x="380" y="2"/>
      <point x="352" y="26"/>
      <point x="310" y="26" type="curve" smooth="yes"/>
      <point x="260" y="26"/>
      <point x="228" y="-12"/>
      <point x="228" y="-54" type="curve" smooth="yes"/>
      <point x="228" y="-79"/>
      <point x="243" y="-102"/>
      <point x="272" y="-108" type="curve"/>
      <point x="269" y="-116" type="line"/>
      <point x="249" y="-125"/>
      <point x="218" y="-129"/>
      <point x="194" y="-129" type="curve" smooth="yes"/>
      <point x="148" y="-129"/>
      <point x="116" y="-102"/>
      <point x="116" y="-57" type="curve" smooth="yes"/>
      <point x="116" y="-36"/>
      <point x="122" y="-13"/>
      <point x="126" y="3" type="curve" smooth="yes"/>
      <point x="150" y="96"/>
      <point x="209" y="136"/>
      <point x="304" y="141" type="curve"/>
      <point x="342" y="294" type="line"/>
      <point x="270" y="294" type="line"/>
      <point x="249" y="210" type="line"/>
      <point x="98" y="198"/>
      <point x="-46" y="112"/>
      <point x="-46" y="-48" type="curve" smooth="yes"/>
      <point x="-46" y="-130"/>
      <point x="8" y="-186"/>
    </contour>
    <contour>
      <point x="333" y="363" type="curve" smooth="yes"/>
      <point x="384" y="363"/>
      <point x="420" y="393"/>
      <point x="431" y="438" type="curve" smooth="yes"/>
      <point x="433" y="446"/>
      <point x="434" y="456"/>
      <point x="434" y="464" type="curve" smooth="yes"/>
      <point x="434" y="503"/>
      <point x="403" y="536"/>
      <point x="353" y="536" type="curve" smooth="yes"/>
      <point x="302" y="536"/>
      <point x="266" y="506"/>
      <point x="255" y="461" type="curve" smooth="yes"/>
      <point x="253" y="453"/>
      <point x="252" y="443"/>
      <point x="252" y="435" type="curve" smooth="yes"/>
      <point x="252" y="396"/>
      <point x="283" y="363"/>
    </contour>
  </outline>
</glyph>
<glyph name="AE" format="1">
  <advance width="945"/>
  <unicode hex="00C6"/>
  <outline>
    <contour>
      <point x="-52" y="0" type="line" name="hr00"/>
      <point x="151" y="0" type="line"/>
      <point x="166" y="60" type="line"/>
      <point x="102" y="60" type="line"/>
      <point x="216" y="218" type="line"/>
      <point x="425" y="218" type="line"/>
      <point x="386" y="60" type="line"/>
      <point x="323" y="60" type="line"/>
      <point x="308" y="0" type="line"/>
      <point x="832" y="0" type="line"/>
      <point x="883" y="206" type="line"/>
      <point x="773" y="206" type="line"/>
      <point x="738" y="64" type="line"/>
      <point x="540" y="64" type="line"/>
      <point x="607" y="332" type="line"/>
      <point x="727" y="332" type="line"/>
      <point x="711" y="268" type="line"/>
      <point x="780" y="268" type="line"/>
      <point x="828" y="460" type="line"/>
      <point x="759" y="460" type="line"/>
      <point x="743" y="396" type="line"/>
      <point x="623" y="396" type="line"/>
      <point x="682" y="634" type="line"/>
      <point x="871" y="634" type="line"/>
      <point x="841" y="512" type="line"/>
      <point x="951" y="512" type="line"/>
      <point x="998" y="698" type="line"/>
      <point x="388" y="698" type="line"/>
      <point x="373" y="638" type="line"/>
      <point x="437" y="638" type="line"/>
      <point x="19" y="60" type="line"/>
      <point x="-37" y="60" type="line"/>
    </contour>
    <contour>
      <point x="520" y="638" type="line"/>
      <point x="530" y="638" type="line"/>
      <point x="441" y="280" type="line"/>
      <point x="260" y="280" type="line"/>
    </contour>
    <contour>
      <point x="660.0" y="698.0" type="move" name="top"/>
    </contour>
  </outline>
</glyph>
<glyph name="Ccedilla" format="1">
  <advance width="604"/>
  <unicode hex="00C7"/>
  <outline>
    <contour>
      <point x="249" y="-212" type="curve" smooth="yes" name="hr00"/>
      <point x="319" y="-212"/>
      <point x="382" y="-171"/>
      <point x="382" y="-108" type="curve" smooth="yes"/>
      <point x="382" y="-73"/>
      <point x="355" y="-55"/>
      <point x="318" y="-55" type="curve" smooth="yes"/>
      <point x="308" y="-55"/>
      <point x="294" y="-57"/>
      <point x="279" y="-62" type="curve"/>
      <point x="276" y="-58" type="line"/>
      <point x="297" y="-11" type="line"/>
      <point x="409" y="1"/>
      <point x="496" y="83"/>
      <point x="550" y="171" type="curve"/>
      <point x="507" y="199" type="line"/>
      <point x="459" y="123"/>
      <point x="404" y="67"/>
      <point x="315" y="67" type="curve" smooth="yes"/>
      <point x="240" y="67"/>
      <point x="204" y="119"/>
      <point x="204" y="191" type="curve" smooth="yes"/>
      <point x="204" y="241"/>
      <point x="216" y="278"/>
      <point x="261" y="461" type="curve" smooth="yes"/>
      <point x="287" y="565"/>
      <point x="346" y="639"/>
      <point x="432" y="639" type="curve" smooth="yes"/>
      <point x="485" y="639"/>
      <point x="527" y="611"/>
      <point x="527" y="553" type="curve" smooth="yes"/>
      <point x="527" y="541"/>
      <point x="525" y="529"/>
      <point x="522" y="517" type="curve" smooth="yes"/>
      <point x="512" y="476" type="line"/>
      <point x="622" y="476" type="line"/>
      <point x="677" y="698" type="line"/>
      <point x="567" y="698" type="line"/>
      <point x="552" y="638" type="line"/>
      <point x="541" y="638" type="line"/>
      <point x="529" y="678"/>
      <point x="490" y="710"/>
      <point x="420" y="710" type="curve" smooth="yes"/>
      <point x="184" y="710"/>
      <point x="47" y="446"/>
      <point x="47" y="235" type="curve" smooth="yes"/>
      <point x="47" y="68"/>
      <point x="135" y="-1"/>
      <point x="244" y="-11" type="curve"/>
      <point x="215" y="-76" type="line"/>
      <point x="238" y="-79" type="line" smooth="yes"/>
      <point x="279" y="-84"/>
      <point x="287" y="-98"/>
      <point x="287" y="-114" type="curve" smooth="yes"/>
      <point x="287" y="-141"/>
      <point x="270" y="-161"/>
      <point x="236" y="-161" type="curve" smooth="yes"/>
      <point x="208" y="-161"/>
      <point x="185" y="-150"/>
      <point x="172" y="-133" type="curve"/>
      <point x="142" y="-166" type="line"/>
      <point x="155" y="-185"/>
      <point x="190" y="-212"/>
    </contour>
  </outline>
</glyph>
<glyph name="multiply" format="1">
  <advance width="550"/>
  <unicode hex="00D7"/>
  <outline>
    <contour>
      <point x="93" y="86" type="line" name="hr00"/>
      <point x="272" y="240" type="line"/>
      <point x="375" y="86" type="line"/>
      <point x="442" y="142" type="line"/>
      <point x="339" y="297" type="line"/>
      <point x="520" y="452" type="line"/>
      <point x="475" y="516" type="line"/>
      <point x="296" y="362" type="line"/>
      <point x="193" y="516" type="line"/>
      <point x="126" y="460" type="line"/>
      <point x="229" y="305" type="line"/>
      <point x="48" y="150" type="line"/>
    </contour>
  </outline>
</glyph>
<glyph name="Oslash" format="1">
  <advance width="701"/>
  <unicode hex="00D8"/>
  <outline>
    <contour>
      <point x="61" y="-45" type="line" name="hr00"/>
      <point x="134" y="36" type="line"/>
      <point x="174" y="5"/>
      <point x="227" y="-12"/>
      <point x="292" y="-12" type="curve" smooth="yes"/>
      <point x="552" y="-12"/>
      <point x="690" y="252"/>
      <point x="690" y="452" type="curve" smooth="yes"/>
      <point x="690" y="517"/>
      <point x="676" y="572"/>
      <point x="648" y="614" type="curve"/>
      <point x="725" y="701" type="line"/>
      <point x="677" y="743" type="line"/>
      <point x="604" y="662" type="line"/>
      <point x="564" y="693"/>
      <point x="511" y="710"/>
      <point x="446" y="710" type="curve" smooth="yes"/>
      <point x="186" y="710"/>
      <point x="48" y="446"/>
      <point x="48" y="246" type="curve" smooth="yes"/>
      <point x="48" y="181"/>
      <point x="62" y="126"/>
      <point x="90" y="84" type="curve"/>
      <point x="13" y="-3" type="line"/>
    </contour>
    <contour>
      <point x="432" y="645" type="curve" smooth="yes"/>
      <point x="483" y="645"/>
      <point x="519" y="620"/>
      <point x="536" y="583" type="curve"/>
      <point x="194" y="197" type="line"/>
      <point x="199" y="241"/>
      <point x="216" y="302"/>
      <point x="262" y="486" type="curve" smooth="yes"/>
      <point x="285" y="579"/>
      <point x="348" y="645"/>
    </contour>
    <contour>
      <point x="306" y="53" type="curve" smooth="yes"/>
      <point x="255" y="53"/>
      <point x="219" y="78"/>
      <point x="202" y="115" type="curve"/>
      <point x="544" y="501" type="line"/>
      <point x="539" y="457"/>
      <point x="522" y="396"/>
      <point x="476" y="212" type="curve" smooth="yes"/>
      <point x="453" y="119"/>
      <point x="390" y="53"/>
    </contour>
    <contour>
      <point x="444.0" y="698.0" type="move" name="top"/>
    </contour>
  </outline>
</glyph>
<glyph name="Thorn" format="1">
  <advance width="610"/>
  <unicode hex="00DE"/>
  <outline>
    <contour>
      <point x="-33" y="0" type="line" name="hr00"/>
      <point x="246" y="0" type="line"/>
      <point x="261" y="60" type="line"/>
      <point x="198" y="60" type="line"/>
      <point x="222" y="156" type="line"/>
      <point x="366" y="156" type="line" smooth="yes"/>
      <point x="555" y="156"/>
      <point x="625" y="297"/>
      <point x="625" y="410" type="curve" smooth="yes"/>
      <point x="625" y="506"/>
      <point x="555" y="542"/>
      <point x="453" y="542" type="curve" smooth="yes"/>
      <point x="318" y="542" type="line"/>
      <point x="342" y="638" type="line"/>
      <point x="405" y="638" type="line"/>
      <point x="420" y="698" type="line"/>
      <point x="141" y="698" type="line"/>
      <point x="126" y="638" type="line"/>
      <point x="189" y="638" type="line"/>
      <point x="45" y="60" type="line"/>
      <point x="-18" y="60" type="line"/>
    </contour>
    <contour>
      <point x="302" y="478" type="line"/>
      <point x="392" y="478" type="line" smooth="yes"/>
      <point x="445" y="478"/>
      <point x="471" y="454"/>
      <point x="471" y="414" type="curve" smooth="yes"/>
      <point x="471" y="396"/>
      <point x="459" y="347"/>
      <point x="454" y="327" type="curve" smooth="yes"/>
      <point x="434" y="254"/>
      <point x="393" y="220"/>
      <point x="329" y="220" type="curve" smooth="yes"/>
      <point x="238" y="220" type="line"/>
    </contour>
  </outline>
</glyph>
<glyph name="germandbls" format="1">
  <advance width="646"/>
  <unicode hex="00DF"/>
  <outline>
    <contour>
      <point x="-62" y="-212" type="curve" smooth="yes" name="hr00"/>
      <point x="41" y="-212"/>
      <point x="136" y="-156"/>
      <point x="169" y="-22" type="curve" smooth="yes"/>
      <point x="315" y="558" type="line" smooth="yes"/>
      <point x="340" y="660"/>
      <point x="377" y="708"/>
      <point x="441" y="708" type="curve" smooth="yes"/>
      <point x="480" y="708"/>
      <point x="506" y="685"/>
      <point x="506" y="643" type="curve" smooth="yes"/>
      <point x="506" y="626"/>
      <point x="503" y="606"/>
      <point x="497" y="581" type="curve" smooth="yes"/>
      <point x="479" y="507" type="line"/>
      <point x="413" y="496"/>
      <point x="334" y="441"/>
      <point x="334" y="353" type="curve" smooth="yes"/>
      <point x="334" y="296"/>
      <point x="363" y="260"/>
      <point x="392" y="228" type="curve" smooth="yes"/>
      <point x="422" y="193"/>
      <point x="451" y="165"/>
      <point x="451" y="121" type="curve" smooth="yes"/>
      <point x="451" y="70"/>
      <point x="410" y="28"/>
      <point x="347" y="16" type="curve"/>
      <point x="338" y="27" type="line"/>
      <point x="353" y="39"/>
      <point x="361" y="64"/>
      <point x="361" y="83" type="curve" smooth="yes"/>
      <point x="361" y="117"/>
      <point x="338" y="141"/>
      <point x="302" y="141" type="curve" smooth="yes"/>
      <point x="254" y="141"/>
      <point x="229" y="102"/>
      <point x="229" y="66" type="curve" smooth="yes"/>
      <point x="229" y="18"/>
      <point x="264" y="-12"/>
      <point x="359" y="-12" type="curve" smooth="yes"/>
      <point x="480" y="-12"/>
      <point x="592" y="54"/>
      <point x="592" y="176" type="curve" smooth="yes"/>
      <point x="592" y="235"/>
      <point x="561" y="272"/>
      <point x="531" y="305" type="curve" smooth="yes"/>
      <point x="502" y="339"/>
      <point x="475" y="367"/>
      <point x="475" y="408" type="curve" smooth="yes"/>
      <point x="475" y="468"/>
      <point x="516" y="500"/>
      <point x="587" y="500" type="curve" smooth="yes"/>
      <point x="615" y="500" type="line"/>
      <point x="626" y="539" type="line" smooth="yes"/>
      <point x="633" y="564"/>
      <point x="636" y="589"/>
      <point x="636" y="612" type="curve" smooth="yes"/>
      <point x="636" y="700"/>
      <point x="580" y="760"/>
      <point x="449" y="760" type="curve" smooth="yes"/>
      <point x="289" y="760"/>
      <point x="201" y="679"/>
      <point x="169" y="551" type="curve" smooth="yes"/>
      <point x="163" y="524" type="line"/>
      <point x="78" y="524" type="line"/>
      <point x="62" y="460" type="line"/>
      <point x="146" y="460" type="line"/>
      <point x="7" y="-95" type="line" smooth="yes"/>
      <point x="-9" y="-157"/>
      <point x="-38" y="-178"/>
      <point x="-82" y="-178" type="curve"/>
      <point x="-90" y="-169" type="line"/>
      <point x="-69" y="-158"/>
      <point x="-50" y="-141"/>
      <point x="-50" y="-114" type="curve" smooth="yes"/>
      <point x="-50" y="-82"/>
      <point x="-74" y="-58"/>
      <point x="-110" y="-58" type="curve" smooth="yes"/>
      <point x="-152" y="-58"/>
      <point x="-180" y="-92"/>
      <point x="-180" y="-127" type="curve" smooth="yes"/>
      <point x="-180" y="-176"/>
      <point x="-139" y="-212"/>
    </contour>
  </outline>
</glyph>
<glyph name="ae" format="1">
  <advance width="719"/>
  <unicode hex="00E6"/>
  <outline>
    <contour>
      <point x="97" y="-12" type="curve" smooth="yes" name="hr00"/>
      <point x="189" y="-12"/>
      <point x="245" y="60"/>
      <point x="270" y="120" type="curve"/>
      <point x="283" y="120" type="line"/>
      <point x="289" y="39"/>
      <point x="338" y="-12"/>
      <point x="430" y="-12" type="curve" smooth="yes"/>
      <point x="545" y="-12"/>
      <point x="615" y="63"/>
      <point x="675" y="193" type="curve"/>
      <point x="636" y="210" type="line"/>
      <point x="590" y="119"/>
      <point x="541" y="67"/>
      <point x="481" y="67" type="curve" smooth="yes"/>
      <point x="443" y="67"/>
      <point x="419" y="87"/>
      <point x="419" y="146" type="curve" smooth="yes"/>
      <point x="419" y="174"/>
      <point x="423" y="212"/>
      <point x="433" y="258" type="curve"/>
      <point x="670" y="272"/>
      <point x="722" y="365"/>
      <point x="722" y="427" type="curve" smooth="yes"/>
      <point x="722" y="504"/>
      <point x="655" y="536"/>
      <point x="568" y="536" type="curve" smooth="yes"/>
      <point x="505" y="536"/>
      <point x="450" y="509"/>
      <point x="419" y="469" type="curve"/>
      <point x="407" y="469" type="line"/>
      <point x="391" y="513"/>
      <point x="345" y="536"/>
      <point x="288" y="536" type="curve" smooth="yes"/>
      <point x="166" y="536"/>
      <point x="76" y="466"/>
      <point x="76" y="399" type="curve" smooth="yes"/>
      <point x="76" y="359"/>
      <point x="98" y="340"/>
      <point x="134" y="340" type="curve" smooth="yes"/>
      <point x="186" y="340"/>
      <point x="212" y="381"/>
      <point x="212" y="419" type="curve" smooth="yes"/>
      <point x="212" y="440"/>
      <point x="200" y="453"/>
      <point x="187" y="463" type="curve"/>
      <point x="190" y="472" type="line"/>
      <point x="204" y="476"/>
      <point x="225" y="478"/>
      <point x="242" y="478" type="curve" smooth="yes"/>
      <point x="289" y="478"/>
      <point x="320" y="454"/>
      <point x="320" y="409" type="curve" smooth="yes"/>
      <point x="320" y="379"/>
      <point x="303" y="313"/>
      <point x="296" y="284" type="curve"/>
      <point x="95" y="274"/>
      <point x="-8" y="205"/>
      <point x="-8" y="92" type="curve" smooth="yes"/>
      <point x="-8" y="29"/>
      <point x="34" y="-12"/>
    </contour>
    <contour>
      <point x="163" y="66" type="curve" smooth="yes"/>
      <point x="141" y="66"/>
      <point x="123" y="80"/>
      <point x="123" y="108" type="curve" smooth="yes"/>
      <point x="123" y="123"/>
      <point x="129" y="141"/>
      <point x="131" y="150" type="curve" smooth="yes"/>
      <point x="146" y="206"/>
      <point x="193" y="234"/>
      <point x="287" y="249" type="curve"/>
      <point x="274" y="196" type="line" smooth="yes"/>
      <point x="259" y="135"/>
      <point x="209" y="66"/>
    </contour>
    <contour>
      <point x="443" y="299" type="curve"/>
      <point x="481" y="437"/>
      <point x="505" y="483"/>
      <point x="560" y="483" type="curve" smooth="yes"/>
      <point x="588" y="483"/>
      <point x="602" y="466"/>
      <point x="602" y="438" type="curve" smooth="yes"/>
      <point x="602" y="375"/>
      <point x="568" y="317"/>
    </contour>
    <contour>
      <point x="433.0" y="540.0" type="move" name="top"/>
    </contour>
  </outline>
</glyph>
<glyph name="ccedilla" format="1">
  <advance width="458"/>
  <unicode hex="00E7"/>
  <outline>
    <contour>
      <point x="165" y="-212" type="curve" smooth="yes" name="hr00"/>
      <point x="235" y="-212"/>
      <point x="298" y="-171"/>
      <point x="298" y="-108" type="curve" smooth="yes"/>
      <point x="298" y="-73"/>
      <point x="271" y="-55"/>
      <point x="234" y="-55" type="curve" smooth="yes"/>
      <point x="224" y="-55"/>
      <point x="210" y="-57"/>
      <point x="195" y="-62" type="curve"/>
      <point x="192" y="-58" type="line"/>
      <point x="213" y="-11" type="line"/>
      <point x="318" y="0"/>
      <point x="375" y="73"/>
      <point x="431" y="193" type="curve"/>
      <point x="392" y="210" type="line"/>
      <point x="345" y="119"/>
      <point x="300" y="67"/>
      <point x="240" y="67" type="curve" smooth="yes"/>
      <point x="201" y="67"/>
      <point x="179" y="89"/>
      <point x="179" y="146" type="curve" smooth="yes"/>
      <point x="179" y="184"/>
      <point x="188" y="243"/>
      <point x="208" y="316" type="curve" smooth="yes"/>
      <point x="246" y="457"/>
      <point x="281" y="488"/>
      <point x="332" y="488" type="curve" smooth="yes"/>
      <point x="355" y="488"/>
      <point x="378" y="482"/>
      <point x="394" y="470" type="curve"/>
      <point x="394" y="460" type="line"/>
      <point x="339" y="455"/>
      <point x="311" y="415"/>
      <point x="311" y="380" type="curve" smooth="yes"/>
      <point x="311" y="348"/>
      <point x="332" y="315"/>
      <point x="372" y="315" type="curve" smooth="yes"/>
      <point x="428" y="315"/>
      <point x="461" y="364"/>
      <point x="461" y="419" type="curve" smooth="yes"/>
      <point x="461" y="486"/>
      <point x="406" y="536"/>
      <point x="308" y="536" type="curve" smooth="yes"/>
      <point x="120" y="536"/>
      <point x="29" y="322"/>
      <point x="29" y="162" type="curve" smooth="yes"/>
      <point x="29" y="63"/>
      <point x="71" y="0"/>
      <point x="160" y="-11" type="curve"/>
      <point x="131" y="-76" type="line"/>
      <point x="154" y="-79" type="line" smooth="yes"/>
      <point x="195" y="-84"/>
      <point x="203" y="-98"/>
      <point x="203" y="-114" type="curve" smooth="yes"/>
      <point x="203" y="-141"/>
      <point x="186" y="-161"/>
      <point x="152" y="-161" type="curve" smooth="yes"/>
      <point x="124" y="-161"/>
      <point x="101" y="-150"/>
      <point x="88" y="-133" type="curve"/>
      <point x="58" y="-166" type="line"/>
      <point x="71" y="-185"/>
      <point x="106" y="-212"/>
    </contour>
  </outline>
</glyph>
<glyph name="eth" format="1">
  <advance width="554"/>
  <unicode hex="00F0"/>
  <outline>
    <contour>
      <point x="215" y="-12" type="curve" smooth="yes" name="hr00"/>
      <point x="398" y="-12"/>
      <point x="520" y="138"/>
      <point x="520" y="391" type="curve" smooth="yes"/>
      <point x="520" y="500"/>
      <point x="480" y="581"/>
      <point x="428" y="647" type="curve"/>
      <point x="527" y="707" type="line"/>
      <point x="496" y="760" type="line"/>
      <point x="386" y="693" type="line"/>
      <point x="364" y="715"/>
      <point x="339" y="733"/>
      <point x="315" y="748" type="curve"/>
      <point x="233" y="748" type="line"/>
      <point x="266" y="719"/>
      <point x="294" y="689"/>
      <point x="318" y="654" type="curve"/>
      <point x="214" y="594" type="line"/>
      <point x="244" y="541" type="line"/>
      <point x="348" y="602" type="line"/>
      <point x="375" y="545"/>
      <point x="395" y="486"/>
      <point x="394" y="422" type="curve"/>
      <point x="383" y="419" type="line"/>
      <point x="374" y="473"/>
      <point x="335" y="504"/>
      <point x="278" y="504" type="curve" smooth="yes"/>
      <point x="141" y="504"/>
      <point x="33" y="353"/>
      <point x="33" y="184" type="curve" smooth="yes"/>
      <point x="33" y="64"/>
      <point x="97" y="-12"/>
    </contour>
    <contour>
      <point x="222" y="44" type="curve" smooth="yes"/>
      <point x="180" y="44"/>
      <point x="163" y="73"/>
      <point x="163" y="107" type="curve" smooth="yes"/>
      <point x="163" y="132"/>
      <point x="167" y="149"/>
      <point x="212" y="319" type="curve" smooth="yes"/>
      <point x="230" y="389"/>
      <point x="261" y="436"/>
      <point x="314" y="436" type="curve" smooth="yes"/>
      <point x="356" y="436"/>
      <point x="373" y="407"/>
      <point x="373" y="373" type="curve" smooth="yes"/>
      <point x="373" y="348"/>
      <point x="369" y="331"/>
      <point x="324" y="161" type="curve" smooth="yes"/>
      <point x="306" y="91"/>
      <point x="275" y="44"/>
    </contour>
  </outline>
</glyph>
<glyph name="divide" format="1">
  <advance width="550"/>
  <unicode hex="00F7"/>
  <outline>
    <contour>
      <point x="227" y="46" type="curve" smooth="yes" name="hr00"/>
      <point x="274" y="46"/>
      <point x="306" y="66"/>
      <point x="316" y="108" type="curve" smooth="yes"/>
      <point x="318" y="116"/>
      <point x="319" y="125"/>
      <point x="319" y="133" type="curve" smooth="yes"/>
      <point x="319" y="166"/>
      <point x="293" y="192"/>
      <point x="248" y="192" type="curve" smooth="yes"/>
      <point x="201" y="192"/>
      <point x="169" y="172"/>
      <point x="159" y="130" type="curve" smooth="yes"/>
      <point x="157" y="122"/>
      <point x="156" y="113"/>
      <point x="156" y="105" type="curve" smooth="yes"/>
      <point x="156" y="72"/>
      <point x="182" y="46"/>
    </contour>
    <contour>
      <point x="322" y="417" type="curve" smooth="yes"/>
      <point x="369" y="417"/>
      <point x="401" y="437"/>
      <point x="411" y="479" type="curve" smooth="yes"/>
      <point x="413" y="487"/>
      <point x="414" y="496"/>
      <point x="414" y="504" type="curve" smooth="yes"/>
      <point x="414" y="537"/>
      <point x="388" y="563"/>
      <point x="343" y="563" type="curve" smooth="yes"/>
      <point x="296" y="563"/>
      <point x="264" y="543"/>
      <point x="254" y="501" type="curve" smooth="yes"/>
      <point x="252" y="493"/>
      <point x="251" y="484"/>
      <point x="251" y="476" type="curve" smooth="yes"/>
      <point x="251" y="443"/>
      <point x="277" y="417"/>
    </contour>
    <contour>
      <point x="62" y="267" type="line"/>
      <point x="490" y="267" type="line"/>
      <point x="509" y="344" type="line"/>
      <point x="81" y="344" type="line"/>
    </contour>
  </outline>
</glyph>
